<?xml version="1.0" encoding="UTF-8"?>
<svg id="Layer_1" data-name="Layer 1" xmlns="http://www.w3.org/2000/svg" viewBox="0 0 800 800">
  <defs>
    <style>
      .cls-1 {
        fill: #fff;
      }

      .cls-2 {
        fill: #231f20;
      }

      .cls-3 {
        fill: #130400;
      }
    </style>
  </defs>
  <rect class="cls-2" width="800" height="800"/>
  <g>
    <g>
      <path class="cls-1" d="M411.58,462.48c-2.23-4.73-16.15-2.51-16.15-2.5,0,0-13.93-2.23-16.16,2.5-2.23,4.74,10.58,17.28,16.16,17.28h0c5.57,0,18.38-12.54,16.15-17.28Z"/>
      <g>
        <g>
          <path class="cls-1" d="M344.14,309c14.46-2.96-65.99-61.99-96.88-61.95-30.88,.04,9.08,128.46,13.97,120.88,3.97-6.14,29.71-48.04,82.91-58.93Z"/>
          <path class="cls-3" d="M278.76,319.46c.62-.51,1.27-1,1.94-1.46,1.36-.89,2.81-1.67,4.29-2.33,2.98-1.29,6.12-2.24,9.28-2.92,3.17-.7,6.35-1.23,9.49-1.67,1.06-.16,2.12-.31,3.18-.47l-1.65-.88c-1.18-.66-2.36-1.31-3.54-2.03-.59-.35-1.18-.72-1.76-1.11-.57-.37-1.16-.77-1.76-1.23-.6-.44-1.2-.88-1.68-1.31l-.77-.64-.44-.39-.39-.37c-1.02-.97-2.03-1.96-3-3.23-.47-.68-.97-1.33-1.35-2.55-.16-.6-.35-1.55,.15-2.68,.25-.54,.65-.99,1.04-1.28,.39-.29,.74-.46,1.06-.59,1.28-.42,2.09-.35,2.92-.33,.81,.05,1.54,.16,2.26,.3,1.42,.27,2.76,.62,4.1,1.01,1.32,.39,2.61,.82,3.89,1.31,2.53,.98,5.05,1.98,7.47,3.18,2.44,1.16,4.83,2.41,7.15,3.79,1.17,.67,2.3,1.41,3.42,2.18,1.11,.77,2.2,1.59,3.15,2.55-1.18-.64-2.41-1.13-3.63-1.65-1.23-.49-2.48-.94-3.72-1.41-2.5-.9-5-1.74-7.52-2.54-2.52-.76-5.02-1.59-7.55-2.24-2.52-.63-5.05-1.32-7.47-1.62-.38-.05-.74-.07-1.09-.09,.61,.74,1.36,1.51,2.15,2.24l.35,.32,.31,.27,.76,.64c.52,.47,.99,.81,1.46,1.16,.46,.36,.97,.72,1.51,1.07,.51,.35,1.04,.71,1.59,1.06,1.07,.7,2.21,1.37,3.33,2.04,2.25,1.38,4.55,2.77,6.83,4.2l4.73,2.96-5.37,1.01c-3.33,.63-6.53,.76-9.7,1.01-3.16,.24-6.31,.4-9.42,.77-3.11,.38-6.21,.82-9.2,1.69-.75,.22-1.49,.44-2.23,.7-.73,.26-1.47,.55-2.18,.87-.7,.33-1.42,.68-2.11,1.06-.68,.38-1.35,.81-2.01,1.27,.55-.58,1.13-1.14,1.75-1.65Z"/>
        </g>
        <g>
          <path class="cls-1" d="M446.7,309c-14.46-2.96,66-61.99,96.89-61.95,30.88,.04-9.08,128.46-13.98,120.89-3.97-6.15-29.7-48.04-82.91-58.94Z"/>
          <path class="cls-3" d="M512.09,319.46c-.63-.51-1.27-1-1.95-1.46-1.36-.89-2.79-1.67-4.29-2.33-2.98-1.29-6.12-2.24-9.29-2.92-3.16-.7-6.34-1.23-9.49-1.67-1.06-.16-2.12-.31-3.18-.47l1.65-.88c1.18-.66,2.36-1.31,3.54-2.03,.59-.35,1.18-.72,1.77-1.11,.57-.38,1.16-.77,1.76-1.23,.59-.44,1.2-.88,1.67-1.31l.76-.64,.44-.4,.38-.36c1.03-.97,2.03-1.96,3-3.23,.47-.68,.97-1.33,1.35-2.55,.16-.6,.35-1.55-.15-2.68-.24-.55-.65-.99-1.03-1.28-.39-.29-.76-.46-1.07-.59-1.27-.42-2.1-.35-2.92-.33-.8,.05-1.53,.16-2.25,.29-1.43,.27-2.78,.63-4.11,1.02-1.32,.39-2.62,.82-3.89,1.31-2.54,.98-5.05,1.98-7.47,3.18-2.44,1.16-4.83,2.41-7.16,3.79-1.17,.67-2.29,1.41-3.42,2.19-1.1,.76-2.19,1.59-3.14,2.54,1.17-.65,2.41-1.13,3.64-1.65,1.23-.5,2.48-.94,3.72-1.41,2.49-.9,5-1.74,7.52-2.54,2.52-.76,5.02-1.59,7.54-2.24,2.52-.63,5.05-1.32,7.47-1.62,.39-.05,.74-.07,1.1-.09-.62,.74-1.36,1.51-2.15,2.24l-.35,.32-.31,.27-.76,.64c-.52,.47-.99,.81-1.46,1.16-.46,.36-.96,.72-1.5,1.07-.52,.35-1.04,.71-1.6,1.06-1.07,.7-2.2,1.37-3.32,2.04-2.26,1.38-4.55,2.77-6.83,4.2l-4.73,2.96,5.37,1.01c3.33,.63,6.54,.76,9.7,1.01,3.17,.24,6.32,.4,9.43,.77,3.09,.38,6.19,.82,9.19,1.69,.75,.22,1.49,.44,2.23,.7,.73,.26,1.46,.55,2.17,.87,.71,.33,1.42,.68,2.12,1.06,.68,.39,1.35,.82,2.02,1.27-.55-.58-1.14-1.13-1.75-1.65Z"/>
        </g>
      </g>
      <g>
        <path class="cls-1" d="M421.7,475.79s2.35,.49,6.48,1.32c2.08,.37,4.53,1.09,7.37,1.89,1.42,.4,2.94,.8,4.52,1.3,1.55,.53,3.2,1.09,4.91,1.68,3.45,1.12,7.08,2.6,10.96,4.05,3.85,1.53,7.91,3.16,12.06,4.93,4.15,1.77,8.45,3.56,12.83,5.34,2.18,.92,4.41,1.72,6.64,2.59,2.23,.87,4.45,1.7,6.74,2.46,9.07,3.23,18.14,6.46,26.64,9.47,4.26,1.49,8.33,3.06,12.25,4.35,3.91,1.34,7.61,2.6,11.03,3.76,6.83,2.31,12.48,4.38,16.46,5.77,3.96,1.42,6.23,2.24,6.23,2.24,0,0-2.31-.66-6.37-1.81-4.04-1.2-9.84-2.82-16.75-4.94-3.46-1.05-7.2-2.18-11.16-3.39-3.98-1.16-8.11-2.56-12.37-4.04-8.53-2.93-17.63-6.06-26.74-9.19-2.27-.78-4.55-1.66-6.78-2.55-2.23-.9-4.49-1.73-6.66-2.69-4.38-1.84-8.67-3.68-12.79-5.5-4.13-1.81-8.12-3.56-11.9-5.21-3.81-1.59-7.37-3.18-10.76-4.41-3.36-1.31-6.43-2.49-9.21-3.38-2.77-.94-5.18-1.8-7.23-2.28-4.06-1.12-6.38-1.77-6.38-1.77Z"/>
        <path class="cls-1" d="M438.7,496.46s1.47,.81,4.03,2.23c2.54,1.46,6.21,3.47,10.54,6.03,4.32,2.57,9.41,5.48,14.77,8.75,5.36,3.26,11.09,6.76,16.82,10.25,2.83,1.79,5.66,3.59,8.45,5.36,2.74,1.87,5.49,3.66,8.04,5.5,5.16,3.63,9.73,7.28,13.9,10.04,2.08,1.37,3.98,2.67,5.75,3.66,1.74,1.05,3.27,1.96,4.6,2.58,2.61,1.34,4.1,2.11,4.1,2.11,0,0-1.56-.62-4.29-1.69-1.39-.51-2.99-1.3-4.83-2.21-1.87-.85-3.88-2-6.05-3.3-2.18-1.29-4.44-2.81-6.85-4.4-2.39-1.62-4.9-3.32-7.5-5.08-2.57-1.8-5.3-3.51-8.03-5.31-2.81-1.72-5.67-3.47-8.52-5.21-5.67-3.58-11.33-7.16-16.63-10.51-5.31-3.35-10.18-6.64-14.4-9.37-4.21-2.75-7.65-5.15-10.09-6.78-2.42-1.67-3.79-2.63-3.79-2.63Z"/>
      </g>
      <g>
        <path class="cls-1" d="M368.06,472.73s-1.92,.11-5.26,.28c-3.35,.18-8.15,.28-13.91,.41-5.76,.06-12.47,.04-19.65,.17-3.59,.05-7.29,.11-11.06,.24-3.77,.05-7.58,.34-11.39,.53-3.82,.24-7.61,.67-11.36,.98-3.71,.48-7.44,.81-11.01,1.21-7.11,.92-13.76,1.76-19.46,2.49-5.71,.74-10.48,1.23-13.83,1.58-3.33,.37-5.25,.5-5.25,.5,0,0,1.88-.42,5.17-1.06,3.29-.66,8-1.58,13.67-2.57,2.83-.51,5.91-1.05,9.15-1.63,3.27-.49,6.72-.99,10.29-1.52,3.58-.43,7.24-.94,11.02-1.33,3.79-.28,7.62-.67,11.46-.86,3.85-.15,7.69-.4,11.47-.41,1.9-.04,3.77-.06,5.63-.08,1.86,.02,3.69,.05,5.48,.08,7.2,.12,13.91,.36,19.66,.52,5.74,.2,10.53,.36,13.89,.36,3.36,.07,5.28,.11,5.28,.11Z"/>
        <path class="cls-1" d="M357.31,486.29s-1.68,.5-4.63,1.38c-1.49,.39-3.27,.98-5.28,1.67-2.03,.67-4.31,1.45-6.78,2.33-4.99,1.69-10.73,3.89-16.94,6.09-3.12,1.07-6.35,2.17-9.63,3.28-3.33,1.02-6.67,2.15-10.14,2.96-3.43,.96-6.9,1.49-10.23,2.32-3.34,.77-6.64,1.61-9.81,2.46-6.32,1.75-12.26,3.37-17.43,4.56-5.18,1.2-9.59,1.62-12.67,1.85-1.54,.14-2.75,.12-3.58,.15-.82,.02-1.26,.03-1.26,.03,0,0,1.75-.2,4.79-.66,3.04-.42,7.32-1.35,12.38-2.71,5.06-1.37,10.84-3.47,17.21-5.24,3.18-.91,6.48-1.81,9.86-2.64,3.37-.87,6.84-1.55,10.21-2.41,3.39-.73,6.72-1.81,10.03-2.76,3.28-1.06,6.51-2.11,9.64-3.13,3.12-1.05,6.17-1.98,9.05-2.9,2.88-.92,5.61-1.75,8.15-2.51,2.51-.8,4.87-1.38,6.96-1.91,2.08-.55,3.89-1.01,5.4-1.29,3.02-.6,4.74-.94,4.74-.94Z"/>
      </g>
      <path class="cls-1" d="M369.46,463.99s-2.47-.39-6.78-1.08c-2.16-.34-4.78-.76-7.79-1.24-1.5-.24-3.1-.5-4.79-.76-1.69-.21-3.47-.43-5.33-.67-3.71-.45-7.74-.95-12-1.46-4.25-.56-8.77-.88-13.43-1.35-4.66-.42-9.46-.94-14.37-1.22-4.9-.34-9.88-.68-14.86-1.03-9.98-.46-19.95-.98-29.3-1.29-9.36-.48-18.09-.92-25.56-1.31-14.98-.82-24.95-1.64-24.95-1.64v-.25s2.51-.02,6.89-.06c2.19-.03,4.85-.04,7.9-.02,3.04,.03,6.48,0,10.23,.08,3.75,.08,7.81,.16,12.11,.24,4.29,.05,8.82,.32,13.5,.48,4.68,.24,9.52,.45,14.43,.83,4.91,.35,9.9,.69,14.89,1.04,4.97,.44,9.96,.87,14.87,1.3,4.91,.38,9.72,.97,14.38,1.48,4.66,.57,9.17,.94,13.43,1.61,4.26,.62,8.28,1.21,11.99,1.76,1.85,.28,3.63,.54,5.32,.79,1.68,.3,3.28,.6,4.77,.88,3,.55,5.61,1.03,7.75,1.42,4.3,.79,6.76,1.24,6.76,1.24l-.04,.24Z"/>
      <path class="cls-1" d="M480.52,469.18c-4.68,.04-9.21-.07-13.5,.08-4.29,.12-8.35,.24-12.08,.34-1.87,.05-3.67,.11-5.37,.16-1.7,.11-3.32,.22-4.84,.31-3.04,.2-5.69,.37-7.87,.51-4.36,.29-6.85,.44-6.85,.44l-.02-.23s2.49-.22,6.84-.61c2.19-.19,4.83-.42,7.86-.69,1.52-.14,3.12-.28,4.82-.43,1.72-.08,3.51-.18,5.38-.29,3.75-.19,7.8-.4,12.1-.63,4.3-.26,8.83-.21,13.52-.34,4.69-.08,9.53-.22,14.46-.14,4.92,.03,9.92,.07,14.93,.1,5,.12,10,.24,14.92,.35,4.92,.08,9.76,.33,14.44,.52,4.69,.28,9.21,.43,13.5,.78,4.29,.32,8.34,.62,12.07,.9,3.74,.27,7.16,.61,10.2,.87,3.03,.26,5.68,.51,7.85,.75,4.35,.45,6.84,.71,6.84,.71l-.02,.24s-10-.11-24.99-.69c-7.49-.32-16.21-.69-25.57-1.09-9.35-.56-19.33-.97-29.3-1.44-4.99-.13-9.98-.24-14.89-.37"/>
    </g>
    <g>
      <g>
        <path class="cls-1" d="M288.51,397.67c5.68-25.19,27.3-32.91,34.97-34.69-1.85,6.82-.93,21.62,5.3,39.12,5.22,14.62,19.36,37.94,19.36,37.94,0,0,13.36-33.91,17.54-52.86,4.46,7.37,8.56,16.91,11.78,29.29,0,0-5.04,23.38-35.76,28.89-30.72,5.5-61.39-11.35-53.18-47.68Z"/>
        <path class="cls-1" d="M323.37,362.97l12.89,8.82s-1.13,20.88,3.26,28.21c0,0-14.66-12.58-16.15-37.03Z"/>
      </g>
      <g>
        <path class="cls-1" d="M511.49,397.67c-5.68-25.19-27.3-32.91-34.97-34.69,1.85,6.82,.94,21.62-5.3,39.12-5.21,14.62-19.36,37.94-19.36,37.94,0,0-13.36-33.91-17.54-52.86-4.46,7.37-8.55,16.91-11.77,29.29,0,0,5.05,23.38,35.76,28.89,30.72,5.5,61.39-11.35,53.18-47.68Z"/>
        <path class="cls-1" d="M476.63,362.97l-12.89,8.82s1.13,20.88-3.25,28.21c0,0,14.66-12.58,16.15-37.03Z"/>
      </g>
    </g>
  </g>
</svg>