<?xml version="1.0" encoding="UTF-8"?>
<svg xmlns="http://www.w3.org/2000/svg" xmlns:xlink="http://www.w3.org/1999/xlink" viewBox="0 0 750 500">
  <defs>
    <style>
      .cls-1, .cls-2, .cls-3 {
        fill: #252340;
      }

      .cls-4 {
        fill: #fff;
      }

      .cls-5 {
        fill: #ebebff;
      }

      .cls-6 {
        fill: #d65461;
      }

      .cls-7, .cls-3 {
        opacity: .5;
      }

      .cls-8 {
        fill: #e26640;
      }

      .cls-9 {
        fill: #93a6f5;
      }

      .cls-10 {
        fill: #d65b61;
      }

      .cls-11 {
        fill: #0f0f1e;
      }

      .cls-12 {
        fill: #fe7273;
      }

      .cls-13 {
        fill: #1b262c;
      }

      .cls-14 {
        fill: #ffa68a;
      }

      .cls-15 {
        stroke: #252340;
        stroke-miterlimit: 10;
        stroke-width: 1.85px;
      }

      .cls-15, .cls-16 {
        fill: none;
      }

      .cls-17 {
        fill: #e57755;
      }

      .cls-18 {
        opacity: .3;
      }

      .cls-19, .cls-20 {
        fill: #17172b;
      }

      .cls-19, .cls-2 {
        opacity: .2;
      }

      .cls-21 {
        clip-path: url(#clippath);
      }

      .cls-22 {
        fill: #313166;
      }

      .cls-23 {
        fill: #f8885d;
      }

      .cls-24 {
        fill: #f8f8ff;
      }

      .cls-25 {
        fill: #3a3a7c;
      }

      .cls-26 {
        fill: #e0e0fc;
      }
    </style>
    <clipPath id="clippath">
      <rect class="cls-16" x="453.36" y="148.06" width="296.64" height="343"/>
    </clipPath>
  </defs>
  <g id="BACKGROUND">
    <g>
      <g>
        <g>
          <rect class="cls-26" width="750" height="373.38"/>
          <polygon class="cls-24" points="697.36 373.55 0 373.55 0 0 365.72 0 697.36 373.55"/>
        </g>
        <rect class="cls-9" x="-.64" y="373.38" width="750.64" height="128.68"/>
      </g>
      <g>
        <g>
          <rect class="cls-26" x="112.5" y="23.5" width="112.47" height="79.56"/>
          <rect class="cls-24" x="127.32" y="37.22" width="82.83" height="52.12"/>
        </g>
        <g>
          <rect class="cls-26" x="282" y="96.66" width="96.47" height="68.24"/>
          <rect class="cls-24" x="294.71" y="108.42" width="71.05" height="43.21"/>
        </g>
      </g>
    </g>
  </g>
  <g id="OBJECTS">
    <g class="cls-21">
      <g>
        <g>
          <g>
            <rect class="cls-1" x="551.09" y="238.86" width="226.19" height="142.6" rx="4.92" ry="4.92"/>
            <rect class="cls-22" x="560.93" y="238.86" width="226.19" height="142.6" rx="4.92" ry="4.92"/>
          </g>
          <g>
            <rect class="cls-1" x="649.93" y="330.52" width="48.19" height="73.76" rx="4.92" ry="4.92"/>
            <path class="cls-1" d="M732.41,404.27c0,2.04-1.66,3.7-3.7,3.7h-109.98c-2.04,0-3.7-1.66-3.7-3.7h0c0-2.04,1.66-3.7,3.7-3.7h109.98c2.04,0,3.7,1.66,3.7,3.7h0Z"/>
          </g>
        </g>
        <g>
          <g>
            <ellipse class="cls-2" cx="658.81" cy="466.78" rx="152.95" ry="10.93"/>
            <g>
              <path class="cls-12" d="M803.8,463.26c0,1.97-1.88,3.57-4.2,3.57h-270.23c-2.32,0-4.2-1.6-4.2-3.57v-54.9c0-1.97,1.88-3.57,4.2-3.57h270.23c2.32,0,4.2,1.6,4.2,3.57v54.9Z"/>
              <path class="cls-3" d="M569.53,463.26v-54.9c0-1.97,1.88-3.57,4.2-3.57h-44.36c-2.32,0-4.2,1.6-4.2,3.57v54.9c0,1.97,1.88,3.57,4.2,3.57h44.36c-2.32,0-4.2-1.6-4.2-3.57Z"/>
            </g>
          </g>
          <path class="cls-15" d="M677.76,382.09s24.95,27.73-8.32,47.13c-33.27,19.41-20.33,61,48.06,48.06,68.39-12.94,105.36,2.77,105.36,2.77"/>
        </g>
      </g>
    </g>
    <g>
      <g>
        <g>
          <g>
            <rect class="cls-9" x="454.12" y="71.65" width="8.25" height="248.99"/>
            <rect class="cls-22" x="454.12" y="71.65" width="8.25" height="37.5"/>
          </g>
          <g>
            <polygon class="cls-12" points="509.72 101.08 405.27 101.08 428.56 24.56 481.8 24.56 509.72 101.08"/>
            <polygon class="cls-3" points="428.56 24.56 405.27 101.08 420.02 101.08 443.31 24.56 428.56 24.56"/>
          </g>
        </g>
        <g>
          <ellipse class="cls-2" cx="264.46" cy="411.69" rx="238.49" ry="17.97"/>
          <g>
            <g>
              <path class="cls-13" d="M46.96,411.17c0,2.37,1.92,4.29,4.29,4.29h0c2.37,0,4.29-1.92,4.29-4.29v-14.82c0-2.37-1.92-4.29-4.29-4.29h0c-2.37,0-4.29,1.92-4.29,4.29v14.82Z"/>
              <path class="cls-13" d="M476.62,411.17c0,2.37,1.92,4.29,4.29,4.29h0c2.37,0,4.29-1.92,4.29-4.29v-14.82c0-2.37-1.92-4.29-4.29-4.29h0c-2.37,0-4.29,1.92-4.29,4.29v14.82Z"/>
              <path class="cls-13" d="M436.12,411.17c0,2.37,1.92,4.29,4.29,4.29h0c2.37,0,4.29-1.92,4.29-4.29v-14.82c0-2.37-1.92-4.29-4.29-4.29h0c-2.37,0-4.29,1.92-4.29,4.29v14.82Z"/>
              <path class="cls-13" d="M92.02,411.17c0,2.37,1.92,4.29,4.29,4.29h0c2.37,0,4.29-1.92,4.29-4.29v-14.82c0-2.37-1.92-4.29-4.29-4.29h0c-2.37,0-4.29,1.92-4.29,4.29v14.82Z"/>
            </g>
            <g>
              <rect class="cls-1" x="60.57" y="209.78" width="128.33" height="136.46" rx="17.11" ry="17.11"/>
              <rect class="cls-1" x="203.74" y="209.78" width="128.33" height="136.46" rx="17.11" ry="17.11"/>
              <g>
                <path class="cls-22" d="M259.54,240.45c0-23.91,7.37-31.27,16.46-31.27h130.83c9.09,0,16.46-.1,16.46,23.8v127.6c0-5.73-7.37,1.64-16.46,1.64h-130.83c-9.09,0-16.46-7.37-16.46-1.64v-120.14Z"/>
                <path class="cls-22" d="M95.77,232.98c0-23.91,13.25-23.8,22.34-23.8h124.95c9.09,0,16.46-.1,16.46,23.8v127.6c0-5.73-7.37,1.64-16.46,1.64H112.22c-9.09,0-16.46-7.37-16.46-1.64v-127.6Z"/>
              </g>
              <path class="cls-3" d="M423.29,307.1v53.48c0-5.73-7.44,1.64-16.61,1.64h-132.08c-6.69,0-12.44-3.91-15.08-3.81v2.17c0-1.09-.27-1.7-.76-1.99-.5,.28-.77,.9-.77,1.99v-2.17c-2.62-.08-8.31,3.82-14.92,3.82H112.22c-9.09,0-16.46-7.37-16.46-1.64v-127.6c0-1.28,.03-2.47,.07-3.61l327.45,77.74Z"/>
            </g>
            <g>
              <rect class="cls-1" x="28.06" y="267.96" width="78.17" height="136.46" rx="17.11" ry="17.11"/>
              <path class="cls-1" d="M415.49,339.04c0,8.61,26.5,15.6,35.11,15.6h34.31c8.61,0,15.6-6.98,15.6-15.6v-56.15c0-8.61-6.98-15.6-15.6-15.6h-53.83c-8.61,0-15.6,6.98-15.6,15.6v56.15Z"/>
              <path class="cls-22" d="M89.29,267.29h17.16c8.61,0,15.6,6.98,15.6,15.6v77.98H455.17s0-77.98,0-77.98c0-8.61,6.98-15.6,15.6-15.6h17.16c8.61,0,15.6,6.98,15.6,15.6v106.83c0,4.51-1.92,8.56-4.98,11.4-2.85,3.05-6.89,4.97-11.39,4.97l-397.86-.78c-8.61,0-15.6-6.98-15.6-15.6v-106.83c0-8.61,6.98-15.6,15.6-15.6Z"/>
              <g>
                <rect class="cls-25" x="278.5" y="328.12" width="182.23" height="45.23" rx="15.6" ry="15.6"/>
                <rect class="cls-25" x="115.13" y="328.12" width="163.38" height="45.23" rx="15.6" ry="15.6"/>
              </g>
            </g>
          </g>
        </g>
      </g>
      <g>
        <g>
          <g>
            <g>
              <g>
                <path class="cls-14" d="M119.84,214.41c-3.12-9.32-6.6-18.52-10.51-27.54,5.26-1.47,10.79-1.1,14.03-2.66,3.82-1.84-.34-32.11-.34-32.11,0,0,25.78-7.62,26.77,11.08,.99,18.7-5.98,19.16,18.84,21.36,.53,.05,1.03,.11,1.53,.17-1.9,8.1-4.31,16.11-7.12,23.99-12.6,2.42-29.15,5.02-43.19,5.71Z"/>
                <path class="cls-23" d="M150.2,179.89c-8.38-2.54-16.79-4.97-25.28-7.13-.33-9.24-1.89-20.65-1.89-20.65,0,0,25.78-7.62,26.77,11.08,.49,9.17-.94,13.96,.41,16.71Z"/>
              </g>
              <g>
                <path class="cls-14" d="M118.04,131.56s2.16-20.69,21.3-23.88c21.96-3.65,25.77,16.13,27.54,31.42,1.78,15.29-2.1,33.34-21.14,31.94-23.07-1.7-28.18-34.73-27.71-39.48Z"/>
                <g>
                  <path class="cls-1" d="M112.18,106.45s.07,0,.13,0c-1.11-17.66,27.45-13.58,34.65-14.66,7.63-1.14,5.02-7.68,5.02-7.68,8.92,3.95,7.22,12.61,7.22,12.61,2.15-3,.04-7.31,.04-7.31,0,0,13.12,8.47,1.94,21.91-9.24,11.12-28.33,9.04-34.66,7.99,.09,.08,.17,.16,.26,.24,3.89,9.58-2.59,15.45-2.59,15.45,1.23,4.25,1.73,14.57,1.73,14.57l-3.28-.54c.05-4.35-3.06-7.81-3.06-7.81-4.32-4.54-6.52,2.24-6.52,2.24,0,0-21.58-36.57-.86-37Z"/>
                  <path class="cls-11" d="M150.52,118.22c-5.77,.75-12.26-.62-17.06-3.69-4.82-3.09-10.31-8.84-9.63-15.11,.24-2.25,.88-4.45,1.92-6.39-7.58,1.41-13.99,4.86-13.45,13.41-.05,0-.1,0-.13,0-20.72,.43,.86,37,.86,37,0,0,2.2-6.78,6.52-2.24,0,0,3.11,3.46,3.06,7.81l3.28,.54s-.49-10.32-1.73-14.57c0,0,6.47-5.87,2.59-15.45-.09-.08-.17-.16-.26-.24,4.39,.73,14.9,1.94,24.02-1.08Z"/>
                </g>
              </g>
            </g>
            <g>
              <g>
                <path class="cls-14" d="M122.2,145.17s-1.73-7.52-7.26-5.23c-5.53,2.3,1.79,22.89,11.68,15.38l-2.92-3.85-1.5-6.31Z"/>
                <path class="cls-8" d="M123.27,155.03c-.42-.07-.84-.18-1.24-.36-.4-.17-.8-.42-1.12-.79-.09-.09-.14-.21-.21-.31-.08-.1-.1-.24-.14-.37-.05-.13-.04-.26-.05-.4-.01-.14,0-.27,.04-.39,.03-.13,.05-.27,.1-.37l.16-.34c.12-.22,.27-.4,.41-.59l-.12,.38c-.27-1.43-.57-2.88-.92-4.29-.17-.71-.37-1.4-.6-2.08-.22-.68-.47-1.35-.79-1.94-.3-.59-.73-1.12-1.12-1.18-.1-.03-.2-.02-.32,0-.05,.02-.14,.03-.16,.04l-.25,.12-.25,.12-.18,.12c-.12,.07-.24,.16-.35,.28-.47,.41-.7,1.04-.71,1.74-.01,.69,.16,1.42,.43,2.12-.46-.59-.83-1.28-.96-2.07-.08-.39-.07-.81,0-1.23,.11-.41,.27-.83,.56-1.16,.13-.18,.29-.33,.47-.47,.18-.16,.35-.27,.5-.36l.24-.15c.14-.09,.24-.1,.36-.16,.23-.08,.51-.13,.78-.08,.55,.07,.98,.37,1.3,.68,.33,.31,.56,.66,.78,1.01,.79,1.41,1.21,2.88,1.53,4.36,.17,.74,.28,1.48,.39,2.23,.11,.75,.18,1.49,.23,2.25v.22s-.12,.17-.12,.17c-.12,.14-.25,.27-.36,.41l-.14,.22c-.06,.07-.07,.15-.1,.22-.03,.08-.06,.15-.06,.23,0,.08-.03,.16,0,.23,.02,.08,0,.16,.05,.24,.04,.08,.05,.16,.1,.24,.37,.64,1.13,1.12,1.87,1.49Z"/>
              </g>
              <g>
                <path class="cls-8" d="M154.55,130.37c.42,.65,.81,1.31,1.21,1.98,.4,.66,.79,1.33,1.16,2,.76,1.34,1.49,2.69,2.2,4.06,.72,1.36,1.4,2.74,2.09,4.11,.67,1.38,1.34,2.77,1.98,4.17l.25,.54-.54,.17c-1.19,.37-2.38,.73-3.58,1.06-.6,.17-1.21,.32-1.81,.47-.6,.15-1.21,.31-1.82,.44,.56-.28,1.13-.54,1.7-.79,.57-.26,1.14-.52,1.71-.75,1.15-.49,2.31-.95,3.47-1.39l-.29,.71c-.72-1.36-1.42-2.73-2.11-4.1-.68-1.38-1.36-2.76-2-4.16-.65-1.39-1.28-2.8-1.89-4.21-.31-.71-.6-1.42-.88-2.14-.29-.72-.58-1.43-.84-2.16Z"/>
                <path class="cls-11" d="M158.96,133.78c.23,1.6,.86,2.83,1.42,2.74,.56-.09,.83-1.46,.6-3.06-.23-1.6-.86-2.83-1.42-2.74-.56,.09-.83,1.46-.6,3.06Z"/>
                <path class="cls-11" d="M143.16,135.97c.23,1.6,.86,2.83,1.42,2.74,.56-.09,.83-1.46,.6-3.06-.23-1.6-.86-2.83-1.42-2.74-.56,.09-.83,1.46-.6,3.06Z"/>
                <path class="cls-11" d="M165.14,127.42s-.23-.08-.6-.24c-.36-.15-.87-.38-1.48-.64-1.17-.51-2.7-1.24-3.96-1.35-.31-.03-.59-.03-.85,.02-.26,.05-.51,.12-.76,.27-.25,.12-.5,.31-.73,.52-.24,.2-.46,.44-.66,.66-.41,.46-.75,.9-.99,1.22-.24,.32-.41,.5-.41,.5,0,0-.05-.24-.07-.65-.02-.21-.02-.46,.01-.75,.01-.29,.06-.62,.15-.98,.09-.36,.22-.75,.44-1.14,.21-.39,.49-.81,.9-1.17,.39-.37,.91-.68,1.48-.85,.57-.2,1.17-.22,1.73-.17,1.13,.11,2.07,.57,2.83,1.08,.76,.51,1.34,1.1,1.79,1.65,.44,.55,.74,1.06,.92,1.43,.19,.37,.25,.6,.25,.6Z"/>
                <path class="cls-11" d="M149.51,128.5s-.23-.16-.63-.41c-.4-.24-.95-.58-1.62-.88-.32-.17-.7-.28-1.07-.44-.39-.1-.77-.26-1.18-.3-.4-.1-.82-.11-1.24-.15-.21-.03-.43,.03-.64,.02-.21,.02-.43-.02-.64,.05-.43,.09-.87,.11-1.3,.27-.43,.14-.87,.21-1.27,.41-.41,.18-.84,.28-1.21,.48-.38,.19-.76,.35-1.11,.5-.7,.31-1.27,.64-1.72,.81-.43,.19-.71,.28-.71,.28,0,0,.12-.25,.37-.66,.13-.2,.28-.46,.48-.73,.19-.27,.4-.6,.71-.88,.29-.3,.61-.62,.96-.95,.35-.33,.8-.59,1.25-.89,.44-.31,.97-.52,1.51-.73,.52-.25,1.14-.31,1.73-.44,.6-.07,1.22-.07,1.82,0,.6,.1,1.18,.21,1.7,.45,.54,.18,.99,.51,1.42,.77,.4,.32,.76,.62,1.04,.96,.3,.3,.52,.64,.71,.92,.18,.29,.32,.56,.41,.79,.2,.45,.24,.73,.24,.73Z"/>
                <path class="cls-4" d="M138.97,153.19l23.76,.15s-11.8,10.73-23.76-.15Z"/>
              </g>
            </g>
          </g>
          <g>
            <g>
              <path class="cls-17" d="M271.81,375.31s90.29,51.36,93.13,51.54,56-60.4,5.48-18.26l-92.41-51.3-6.19,18.02Z"/>
              <g>
                <path class="cls-14" d="M283.3,378.76s94.91,36.03,97.72,35.63c2.81-.4,44.23-69.57-1.21-17.29l-96.11-41.66-.4,23.32Z"/>
                <path class="cls-23" d="M372.73,393.48l-89.02-38.05-.4,23.32s56.33,18.72,81.15,29.21c2.85-4.78,5.65-9.58,8.27-14.49Z"/>
              </g>
              <path class="cls-23" d="M365.91,428.31s25.68-27.6,25.68-33.02-22.54,13.45-22.54,13.45l-2.97,.17-9.61,13.1s8.21,5.77,9.43,6.29Z"/>
            </g>
            <g>
              <polygon class="cls-6" points="185.18 284.67 206.39 297.1 353.42 402.18 343.63 422.83 174.21 320.5 185.18 284.67"/>
              <g>
                <path class="cls-12" d="M124.36,275.72s2.39,49.41,19.94,57.46c17.55,8.04,175.19,73.75,215.41,79.6,0,0,8.41-12.24,12.06-26.14l-177.76-77.95,12.38-11.59-11.7-30.71-70.33,9.34Z"/>
                <path class="cls-6" d="M199.81,279.82l-5.12-13.44-68.66,4.34s-1.78,22.87,3,35.33c14.4-3.55,59.36-13.25,70.78-26.23Z"/>
              </g>
            </g>
          </g>
          <g>
            <g>
              <g>
                <path class="cls-20" d="M332.77,209.14h-16.86l13.74-28.18c1.07-2.18,3.7-3.09,5.88-2.03l5.71,2.79c2.18,1.07,3.09,3.7,2.03,5.88l-10.5,21.54Z"/>
                <g class="cls-7">
                  <path class="cls-25" d="M320.87,209.14c-.52-.82-.83-1.78-.83-2.81,0-2.9,2.35-5.26,5.26-5.26s5.26,2.35,5.26,5.26c0,1.04-.31,2-.83,2.81h-8.85Z"/>
                  <g>
                    <path class="cls-25" d="M338.37,187.38c0,.88,.71,1.59,1.59,1.59h0c.88,0,1.59-.71,1.59-1.59h0c0-.88-.71-1.59-1.59-1.59h0c-.88,0-1.59,.71-1.59,1.59h0Z"/>
                    <path class="cls-25" d="M334.63,185.3c0,.88,.71,1.59,1.59,1.59h0c.88,0,1.59-.71,1.59-1.59h0c0-.88-.71-1.59-1.59-1.59h0c-.88,0-1.59,.71-1.59,1.59h0Z"/>
                    <path class="cls-25" d="M330.48,183.37c0,.88,.71,1.59,1.59,1.59h0c.88,0,1.59-.71,1.59-1.59h0c0-.88-.71-1.59-1.59-1.59h0c-.88,0-1.59,.71-1.59,1.59h0Z"/>
                  </g>
                  <g>
                    <path class="cls-25" d="M336.29,191.81c0,.88,.71,1.59,1.59,1.59h0c.88,0,1.59-.71,1.59-1.59h0c0-.88-.71-1.59-1.59-1.59h0c-.88,0-1.59,.71-1.59,1.59h0Z"/>
                    <path class="cls-25" d="M332.56,189.73c0,.88,.71,1.59,1.59,1.59h0c.88,0,1.59-.71,1.59-1.59h0c0-.88-.71-1.59-1.59-1.59h0c-.88,0-1.59,.71-1.59,1.59h0Z"/>
                    <path class="cls-25" d="M328.41,187.79c0,.88,.71,1.59,1.59,1.59h0c.88,0,1.59-.71,1.59-1.59h0c0-.88-.71-1.59-1.59-1.59h0c-.88,0-1.59,.71-1.59,1.59h0Z"/>
                  </g>
                  <g>
                    <path class="cls-25" d="M334.08,196.23c0,.88,.71,1.59,1.59,1.59h0c.88,0,1.59-.71,1.59-1.59h0c0-.88-.71-1.59-1.59-1.59h0c-.88,0-1.59,.71-1.59,1.59h0Z"/>
                    <path class="cls-25" d="M330.34,194.16c0,.88,.71,1.59,1.59,1.59h0c.88,0,1.59-.71,1.59-1.59h0c0-.88-.71-1.59-1.59-1.59h0c-.88,0-1.59,.71-1.59,1.59h0Z"/>
                    <path class="cls-25" d="M326.19,192.22c0,.88,.71,1.59,1.59,1.59h0c.88,0,1.59-.71,1.59-1.59h0c0-.88-.71-1.59-1.59-1.59h0c-.88,0-1.59,.71-1.59,1.59h0Z"/>
                  </g>
                  <g>
                    <path class="cls-25" d="M331.73,200.66c0,.88,.71,1.59,1.59,1.59h0c.88,0,1.59-.71,1.59-1.59h0c0-.88-.71-1.59-1.59-1.59h0c-.88,0-1.59,.71-1.59,1.59h0Z"/>
                    <path class="cls-25" d="M327.99,198.58c0,.88,.71,1.59,1.59,1.59h0c.88,0,1.59-.71,1.59-1.59h0c0-.88-.71-1.59-1.59-1.59h0c-.88,0-1.59,.71-1.59,1.59h0Z"/>
                    <path class="cls-25" d="M323.84,196.65c0,.88,.71,1.59,1.59,1.59h0c.88,0,1.59-.71,1.59-1.59h0c0-.88-.71-1.59-1.59-1.59h0c-.88,0-1.59,.71-1.59,1.59h0Z"/>
                  </g>
                  <path class="cls-25" d="M326.6,209.14h-2.62c-1.06-.5-1.8-1.57-1.8-2.81,0-1.72,1.39-3.11,3.11-3.11s3.11,1.39,3.11,3.11c0,1.25-.74,2.32-1.8,2.81Z"/>
                </g>
              </g>
              <g>
                <path class="cls-14" d="M173.52,185.56s24.81-1.84,63.39,8.27c0,0,14.24-3.67,39.05,1.38,24.81,5.05,37.67,9.19,37.67,14.24s-128.16,.92-128.16,.92"/>
                <path class="cls-23" d="M280.25,196.09c22,4.66,33.38,8.6,33.38,13.35,0,2.43-29.62,2.74-60.38,2.4,8.87-5.47,17.91-10.66,27-15.75Z"/>
                <path class="cls-23" d="M213.17,188.68c-3.81,7.27-7.21,14.73-10.66,22.17-10.33-.27-17.04-.49-17.04-.49l-11.94-24.81s14.94-1.1,39.65,3.12Z"/>
                <path class="cls-23" d="M305.56,210.81s12.31,1.81,12.31-5.43c0,0,11.23-17.74-2.9-3.26l-16.66-1.45,7.24,10.14Z"/>
              </g>
              <g>
                <path class="cls-4" d="M196.96,218.17s6.67-22.98,10.86-34.82c0,0-33.5-6.02-47.23-.05l21.56,34.87h14.81Z"/>
                <path class="cls-5" d="M182.71,180.72c1.93,12.36,2.63,24.91,2.46,37.45h11.79s6.67-22.98,10.86-34.82c0,0-12.34-2.22-25.12-2.62Z"/>
              </g>
            </g>
            <g>
              <path class="cls-4" d="M122.09,184.58s-18.67-6.51-28.33,6.17c-9.66,12.68,14.77,77.9,31.67,107.18,0,0,59.76-7.85,74.25-23.54,0,0-12.36-40.48-14.47-61.61-2.11-21.13-.3-35.01-26.26-30.18,0,0,0,10.26-15.7,13.58-15.76,3.33-21.17-11.6-21.17-11.6Z"/>
              <path class="cls-5" d="M164.12,250.93c-20.03-5.39-35.29-8.01-48.53-23.93-6.8-8.17-13.09-17.28-18.17-26.62-1.55-2.85-2.98-5.77-4.2-8.75-7.93,14.92,15.67,77.63,32.22,106.3,0,0,59.76-7.85,74.25-23.54,0,0-2.75-8.66-6.11-20.3-9.86,.24-19.71-.53-29.46-3.16Z"/>
            </g>
            <g>
              <path class="cls-14" d="M78.37,213.39l28.67,6.04-16.6,36.82s55.54,0,57.95,1.51,19.92,24.75-.6,3.32c0,0,17.51,36.22-2.11,3.02,0,0,12.98,30.49-1.81,2.11,0,0-.3,25.35-2.41,1.21,0,0-57.95,16.3-73.65,10.56-15.7-5.73,10.56-64.59,10.56-64.59Z"/>
              <path class="cls-23" d="M98.92,237.46l8.13-18.04-28.67-6.04s-1.58,3.55-3.73,8.98c7.48,5.75,15.65,10.88,24.28,15.1Z"/>
              <path class="cls-4" d="M73.24,217.91s17.66,12.22,31.24,13.58c0,0,20.37-45.28,8.15-48.45-12.22-3.17-28.07,8.15-39.39,34.86Z"/>
            </g>
          </g>
        </g>
        <g>
          <rect class="cls-1" x="28.06" y="267.96" width="78.17" height="136.46" rx="17.11" ry="17.11"/>
          <path class="cls-22" d="M109.69,394.39l9.37-84.64,2.79,20.31,.18-47.17c0-8.61-6.98-15.6-15.6-15.6h-17.16c-8.61,0-15.6,6.98-15.6,15.6v106.83c0,8.61,6.98,15.6,15.6,15.6l27.21,.05c3.45-14.78-6.81-10.98-6.81-10.98Z"/>
        </g>
      </g>
      <g>
        <g>
          <g>
            <g>
              <path class="cls-11" d="M233.47,134.32l-3.33,2.91s1,11.28-3.08,20.22c-4.08,8.94-.78,19.82,7.77,23.9,0,0-.97-3.11,2.72-3.5,3.69-.39,26.04,12.83,48.77,2.53,22.74-10.3,12.24-45.47,12.24-45.47l-65.1-.58Z"/>
              <g>
                <path class="cls-1" d="M265.84,134.61l-32.37-.29-3.33,2.91s1,11.28-3.08,20.22c-4.08,8.94-.78,19.82,7.77,23.9,0,0-.97-3.11,2.72-3.5,2.47-.26,13.32,5.57,27.04,6.37-.08-16.55,.06-33.1,1.25-49.6Z"/>
                <path class="cls-1" d="M233,134.4s.01,.76-.08,2.09c-.07,.66-.12,1.47-.24,2.39-.15,.91-.23,1.97-.5,3.08-.25,1.12-.46,2.35-.88,3.6-.19,.63-.38,1.28-.58,1.94-.23,.65-.52,1.3-.79,1.97-.49,1.36-1.23,2.67-1.99,4l-.55,.97-.57,.97c-.41,.65-.62,1.29-.95,1.93-.53,1.35-1,2.73-1.21,4.15-.27,1.41-.33,2.82-.3,4.18,.11,1.36,.25,2.68,.59,3.89,.08,.3,.16,.6,.24,.9,.11,.29,.21,.57,.31,.85,.18,.57,.43,1.08,.67,1.58,.22,.51,.5,.96,.76,1.39,.13,.22,.25,.43,.38,.64,.14,.19,.28,.38,.42,.56,.51,.75,1.07,1.32,1.52,1.8,.45,.48,.86,.8,1.12,1.05,.26,.24,.4,.37,.4,.37,0,0-.16-.1-.46-.3-.29-.21-.77-.45-1.27-.88-.51-.44-1.15-.94-1.77-1.66-.16-.17-.33-.35-.5-.53-.15-.2-.31-.4-.47-.61-.32-.42-.66-.87-.93-1.38-.3-.5-.61-1.03-.85-1.61-.13-.29-.26-.58-.39-.88-.1-.31-.21-.62-.32-.94-.45-1.27-.7-2.68-.85-4.14-.07-1.47-.11-3,.18-4.53,.21-1.54,.7-3.04,1.26-4.52,.36-.7,.67-1.5,1.08-2.12l.58-.97,.57-.98c.37-.62,.73-1.24,1.1-1.86,.4-.59,.62-1.28,.93-1.9,.29-.63,.57-1.26,.85-1.87,.23-.63,.46-1.25,.68-1.85,.47-1.19,.79-2.37,1.13-3.45,.35-1.07,.55-2.09,.81-2.97,.23-.89,.37-1.68,.52-2.32,.13-.65,.23-1.16,.29-1.51,.06-.35,.09-.54,.09-.54Z"/>
              </g>
              <g>
                <path class="cls-11" d="M257.61,121.6s6.66-14.64,28.51-3.65c21.86,10.98,16.65,51.29-5.63,57.77-22.77,6.63-22.88-54.12-22.88-54.12Z"/>
                <path class="cls-11" d="M257.79,124.36s.17-.37,.57-1.04c.39-.66,1.01-1.62,1.95-2.73,.93-1.1,2.19-2.37,3.86-3.52,1.66-1.16,3.78-2.19,6.27-2.66,1.24-.26,2.56-.32,3.92-.3,1.36,.06,2.76,.25,4.16,.59,2.81,.67,5.62,1.92,8.29,3.53l1.01,.61,.98,.69,.96,.68,.94,.79c.65,.51,1.23,1.08,1.81,1.67,.6,.56,1.12,1.2,1.67,1.82,2.13,2.53,3.87,5.44,5.2,8.5,2.61,6.18,3.64,12.89,3.6,19.11-.03,6.24-1.31,12.02-3.13,16.64-.92,2.31-1.98,4.35-3.15,6.01-1.15,1.66-2.3,3.01-3.39,3.97-.27,.24-.52,.47-.76,.69-.26,.19-.5,.37-.73,.54-.44,.34-.84,.62-1.18,.8-.66,.39-1.02,.6-1.02,.6,0,0,.34-.23,.98-.66,.33-.2,.7-.5,1.12-.87,.21-.18,.44-.37,.68-.58,.22-.23,.46-.46,.72-.72,1.02-1,2.09-2.38,3.14-4.06,1.06-1.68,2-3.72,2.85-6.01,1.68-4.58,2.67-10.27,2.65-16.36-.02-6.08-1.09-12.62-3.67-18.55-1.26-2.97-2.9-5.78-4.92-8.22-.51-.6-1.01-1.22-1.58-1.76-.55-.56-1.1-1.12-1.69-1.59l-.87-.74-.95-.69-.93-.67-.97-.6c-2.59-1.57-5.24-2.87-7.92-3.59-1.33-.36-2.66-.59-3.95-.68-1.29-.06-2.55-.03-3.74,.18-2.38,.39-4.45,1.28-6.12,2.32-1.68,1.05-2.97,2.23-3.94,3.27-.97,1.05-1.66,1.95-2.09,2.59-.43,.64-.63,1-.63,1Z"/>
              </g>
            </g>
            <g>
              <g>
                <g>
                  <path class="cls-14" d="M250.58,161.62s8.95,18.59,4.77,22.98c-4.18,4.39-24.43-2.28-32.05,21.51-7.62,23.8,49.77,25.81,72.16,9.08,10.71-8,13.28-26.12,2.64-28.11-10.64-1.99-23.8,8.08-24.37-12.16-.58-20.24-22.34-13.52-22.34-13.52"/>
                  <path class="cls-23" d="M273.39,184.91c.96,.08,1.92,.12,2.86,.14-1.46-1.94-2.38-5.09-2.52-10.11-.58-20.24-22.34-13.52-22.34-13.52l-.81,.21s5.56,11.56,5.87,18.6c5.34,2.5,11.11,4.22,16.94,4.69Z"/>
                </g>
                <g>
                  <path class="cls-14" d="M266.21,126.26s19.01-3.01,23.46,15.16c4.14,16.9,.55,36.74-13.91,39.47-19.67,3.71-30.14-17.77-29.48-28.65,.65-10.88,1.11-25.15,19.93-25.98Z"/>
                  <path class="cls-14" d="M245.31,151s-4.54-5.13-7.12,.83c-2.59,5.95,5.84,16.51,10.48,11.65,0,0-1.83-8.04-3.36-12.48Z"/>
                </g>
              </g>
              <g>
                <path class="cls-1" d="M263.41,124.72s5.87,17.53-17.25,29.76c0,0-5.31-8.01-7.84-2.05-2.38,5.59,7.54,14.82,10.35,11.05,0,0,3.09,5.82,6.25,10.55-3.88,2.64-25.26-11.11-24.77-36.81,.37-19.3,28.92-31.17,33.26-12.51Z"/>
                <path class="cls-13" d="M263.74,124.41s.05,.11,.15,.37c.11,.26,.23,.62,.38,1.08,.13,.47,.31,1.03,.44,1.69,.06,.33,.13,.68,.21,1.05,.04,.37,.09,.76,.14,1.17,.06,.41,.07,.83,.08,1.28,0,.44,.06,.9,.02,1.37-.05,.94-.09,1.93-.29,2.93-.12,1.02-.45,2.02-.73,3.05-.13,.52-.38,1-.57,1.5-.21,.49-.38,1.01-.64,1.49l-.77,1.42c-.25,.47-.5,.94-.83,1.36-.3,.43-.61,.86-.91,1.28-.29,.43-.59,.84-.94,1.2-.67,.75-1.3,1.48-1.93,2.15-.68,.62-1.32,1.2-1.91,1.74-.3,.27-.58,.52-.85,.77-.29,.22-.57,.42-.83,.62-.52,.39-.97,.72-1.35,1-.75,.55-1.17,.87-1.17,.87,0,0,.41-.34,1.13-.92,.36-.29,.8-.65,1.3-1.06,.25-.2,.52-.42,.8-.65,.26-.25,.53-.52,.81-.8,.56-.56,1.17-1.16,1.82-1.8,.59-.69,1.18-1.44,1.81-2.2,.33-.37,.6-.79,.87-1.22,.27-.43,.55-.86,.83-1.29,.3-.42,.52-.89,.75-1.36l.69-1.41c.23-.47,.36-.98,.54-1.46,.16-.49,.38-.97,.48-1.47,.22-1,.49-1.97,.55-2.94,.15-.96,.14-1.9,.15-2.78,.01-.44-.06-.87-.08-1.29-.03-.41-.06-.82-.14-1.19-.06-.38-.12-.74-.18-1.09-.08-.34-.16-.66-.24-.96-.15-.6-.33-1.12-.48-1.53-.16-.42-.28-.74-.38-.93-.08-.2-.16-.33-.16-.33l1.41-.68Z"/>
                <path class="cls-1" d="M246.16,154.48s3.44,1.7,4.42,7.15c0,0,3.82-9.16-3.16-11.85-6.98-2.69-1.26,4.7-1.26,4.7Z"/>
              </g>
            </g>
          </g>
          <g>
            <path class="cls-8" d="M277.68,151.67c.34,.51,.68,.99,1.02,1.46,.34,.47,.68,.93,1.04,1.37,.18,.22,.35,.45,.54,.67,.18,.22,.36,.44,.55,.66l1.14,1.3,.29,.34-.27,.25c-1.29,1.18-2.6,2.35-3.98,3.44,1.08-1.39,2.24-2.71,3.41-4.01l.02,.59c-.5-.35-.97-.74-1.39-1.19-.44-.43-.8-.93-1.15-1.43-.33-.52-.61-1.06-.83-1.64-.21-.58-.37-1.18-.37-1.8Z"/>
            <path class="cls-11" d="M289.16,143.98s-.86-.35-2.07-.72c-.31-.08-.63-.18-.97-.25-.34-.1-.7-.13-1.06-.2-.36-.03-.74-.08-1.11-.06-.19,0-.37,.02-.56,.02-.18,.02-.36,.06-.55,.09-.37,.02-.71,.19-1.07,.27-.35,.12-.67,.3-1.01,.43-.31,.19-.61,.39-.92,.56-.29,.19-.54,.41-.8,.6-.26,.19-.5,.36-.68,.55-.19,.18-.38,.33-.53,.45-.31,.25-.5,.39-.5,.39,0,0,.06-.22,.19-.6,.07-.19,.15-.42,.27-.68,.1-.27,.25-.55,.45-.83,.2-.29,.39-.63,.66-.93,.29-.29,.6-.6,.95-.9,.39-.24,.78-.53,1.23-.73,.46-.16,.93-.38,1.44-.43,.25-.03,.5-.08,.75-.09,.25,0,.5,.02,.74,.02,.49,.02,.96,.15,1.4,.26,.87,.28,1.6,.69,2.16,1.11,1.13,.84,1.58,1.68,1.58,1.68Z"/>
            <path class="cls-11" d="M271.9,146.3s-.88-.31-2.1-.63c-.31-.07-.64-.15-.98-.2-.34-.08-.7-.1-1.07-.15-.37,0-.74-.05-1.11-.01-.18,.01-.37,.04-.56,.04-.18,.03-.36,.08-.54,.11-.37,.03-.7,.22-1.06,.32-.34,.14-.65,.34-.99,.48-.3,.21-.59,.41-.89,.6-.28,.21-.52,.44-.78,.63-.25,.2-.48,.38-.66,.58-.18,.19-.36,.34-.51,.48-.29,.26-.48,.41-.48,.41,0,0,.05-.22,.16-.61,.06-.19,.13-.43,.23-.69,.08-.27,.22-.56,.42-.85,.18-.3,.36-.64,.62-.96,.28-.3,.57-.63,.91-.94,.38-.26,.76-.57,1.2-.78,.46-.19,.91-.42,1.42-.49,.25-.04,.5-.1,.74-.13,.25-.01,.5,0,.74,0,.49,0,.96,.1,1.41,.2,.88,.24,1.63,.61,2.21,1.01,1.17,.79,1.65,1.6,1.65,1.6Z"/>
            <path class="cls-8" d="M245.67,162.06c-.4-.18-.78-.4-1.13-.67-.18-.14-.35-.28-.51-.45-.16-.17-.32-.34-.43-.57-.06-.11-.11-.23-.13-.37-.04-.13-.04-.27-.03-.42,.02-.28,.15-.58,.32-.77,.17-.23,.38-.35,.58-.51,.21-.12,.42-.22,.63-.34l-.28,.5c-.26-1.09-.57-2.19-.93-3.25-.19-.53-.39-1.04-.63-1.53-.23-.49-.52-.94-.84-1.25-.34-.31-.6-.34-1.01-.13l-.15,.09-.04,.02s-.02,.01-.02,.02l-.08,.07-.33,.28c-.18,.19-.36,.35-.5,.57-.16,.2-.27,.43-.34,.67-.07,.24-.1,.49-.06,.75,.08,.52,.38,1.02,.78,1.44-.51-.28-.95-.74-1.17-1.34-.11-.3-.16-.63-.11-.96,.04-.33,.14-.65,.3-.92,.13-.29,.35-.55,.55-.8l.3-.31,.07-.08s0,0,.06-.06l.05-.04,.2-.16c.29-.21,.67-.37,1.1-.35,.42,.02,.8,.22,1.07,.44,.55,.45,.86,1.01,1.15,1.55,.28,.54,.5,1.1,.68,1.67,.37,1.13,.62,2.27,.8,3.44l.05,.36-.34,.14c-.18,.07-.36,.14-.54,.21-.14,.1-.33,.17-.42,.29-.06,.05-.13,.11-.15,.17-.04,.06-.09,.12-.09,.19-.02,.07-.04,.14-.02,.22,0,.08,.01,.16,.05,.25,.11,.34,.35,.7,.62,1.01,.28,.31,.59,.61,.92,.89Z"/>
            <path class="cls-8" d="M271,167.01s.76,.2,1.86,.41c.55,.09,1.19,.21,1.87,.25,.34,.05,.69,.02,1.04,.05,.35,0,.71-.01,1.06-.05,.35-.05,.71-.06,1.04-.17,.17-.04,.34-.08,.5-.11,.16-.05,.32-.11,.47-.17,.32-.1,.61-.23,.88-.38,.28-.13,.54-.27,.76-.43,.22-.16,.45-.28,.63-.42,.18-.15,.33-.27,.46-.38,.27-.21,.42-.33,.42-.33,0,0-.09,.17-.26,.47-.09,.15-.2,.33-.33,.53-.14,.2-.33,.39-.53,.61-.1,.11-.21,.22-.32,.34-.13,.1-.27,.2-.4,.3-.14,.1-.29,.21-.43,.32-.15,.1-.33,.17-.5,.25-.34,.18-.71,.33-1.1,.42-.38,.13-.79,.16-1.19,.23-.81,.06-1.62,.03-2.35-.13-.37-.06-.71-.16-1.04-.27-.33-.09-.62-.23-.89-.34-1.08-.48-1.67-1.01-1.67-1.01Z"/>
            <path class="cls-11" d="M283.24,151.14c.14,1.51,.69,2.68,1.21,2.62,.53-.06,.84-1.33,.69-2.84-.14-1.51-.69-2.68-1.21-2.62-.53,.06-.84,1.33-.69,2.84Z"/>
            <path class="cls-11" d="M268.37,152.51c.14,1.51,.69,2.68,1.21,2.62,.53-.06,.84-1.33,.69-2.84-.14-1.51-.69-2.68-1.21-2.62-.53,.06-.84,1.33-.69,2.84Z"/>
          </g>
        </g>
        <g>
          <g>
            <path class="cls-12" d="M233.11,192.18s.56-4.21,17.11-5.89c0,0,6.45,14.87,19.92,13.74,13.46-1.12,15.99-12.34,15.99-12.34,0,0,15.71-4.77,19.07,4.21,3.37,8.98-.84,49.09,11.78,70.13,0,0-23.84,28.61-72.09,29.73,0,0-15.15-73.77-11.78-99.58Z"/>
            <path class="cls-10" d="M310.55,256.38c-12.56,.82-25.64-.85-36.93-6.67-11.6-5.98-20.26-14.6-28.44-24.62-3.91-4.78-8.22-9.94-10.19-15.88-1.11-3.35-1.78-6.78-2.34-10.23-.65,29.99,12.25,92.79,12.25,92.79,48.25-1.12,72.09-29.73,72.09-29.73-1.12-1.86-2.1-3.88-2.97-6.01-1.14,.15-2.29,.28-3.47,.36Z"/>
          </g>
          <g>
            <g>
              <path class="cls-20" d="M255.86,281.21s-33.5,40.84-1.79,49.67c19.77,5.5,55.88-6.22,66.9-17.75,11.02-11.54,2.82-44.09-6.92-50.76-9.74-6.67-58.19,18.84-58.19,18.84Z"/>
              <path class="cls-1" d="M333.79,313.36s-34.09,5.13-26.15-32.04c7.95-37.17,45.89-82.29,56.4-77.16s3.33,96.64-30.25,109.2Z"/>
            </g>
            <g>
              <g>
                <path class="cls-14" d="M365.13,204.67s-15.38,4.17-19.23,31.72c-3.85,27.56,11.54,76.26,11.54,76.26,0,0-3.45,12.58-.96,12.82,16.66,1.6,68.57,5.77,15.7-8.65,0,0,16.02-109.27-7.05-112.15Z"/>
                <path class="cls-23" d="M373.14,315.54s-.34-2.97,.48-9.8c-5.37,2.63-10.82,5.09-16.33,7.45-.62,2.4-3,12.07-.82,12.28,16.66,1.6,78.83,7.05,16.66-9.93Z"/>
              </g>
              <path class="cls-14" d="M386.12,318.38c-3.57-2.22-18.89-3.05-28-3.36-5.66-.76-31.48-4.47-63.06-12.66-31.75-8.24-47.13,2.32-49.42,12.82-2.79,12.82,8.44,15.7,8.44,15.7,22.18,8.44,69.32,1.19,91.63-2.99,.22,.03,.42,.07,.65,.1,14.87,1.92,37.94,3.52,40.37,3.52s1.21-4.17,1.21-4.17c0,0,3.34-5.77-1.82-8.97Z"/>
            </g>
          </g>
        </g>
        <g>
          <g>
            <g>
              <path class="cls-14" d="M307.03,221.39v43.33s13.28-4.4,11.67-15.67c-.33-2.33-7-30.33-7-30.33l-4.67,2.67Z"/>
              <path class="cls-23" d="M312.21,221.41c-.31-1.68-.52-2.68-.52-2.68l-4.67,2.67v1.8c1.71-.65,3.43-1.25,5.18-1.78Z"/>
            </g>
            <path class="cls-12" d="M302.03,222.39l12.33-3.33s-3.67-24-11.33-30c-7.67-6-1,33.33-1,33.33Z"/>
          </g>
          <g>
            <g>
              <g>
                <polygon class="cls-4" points="263.66 235.86 267.65 298.41 306.45 300.21 307.92 235.42 263.66 235.86"/>
                <g class="cls-18">
                  <polygon class="cls-12" points="270.19 298.53 273.67 298.69 271.37 235.78 267.61 235.82 270.19 298.53"/>
                  <polygon class="cls-12" points="282.48 235.67 275.78 235.74 279.16 298.95 283.7 299.16 282.48 235.67"/>
                  <polygon class="cls-12" points="304.17 235.45 300.7 235.49 298.44 299.84 302.63 300.03 304.17 235.45"/>
                  <polygon class="cls-12" points="294.63 235.55 289.63 235.6 289.11 299.41 292.75 299.58 294.63 235.55"/>
                </g>
              </g>
              <polygon class="cls-19" points="290.58 235.59 290.41 299.47 306.45 300.21 307.92 235.42 290.58 235.59"/>
            </g>
            <g>
              <g>
                <path class="cls-14" d="M275.98,257.81c25-5.12-.5-3.12-.5-3.12,20.12-5.5-6.75-1.62-6.75-1.62,11.2-16.02-3.81-1.3-4.93-.2-14.71-.33-34-.33-34-.33l14.41-31.97-24.9-5.24s-22.8,51.1-9.17,56.08c10.34,3.78,41.77-3.45,56.36-7.16,0,0,0,0,0-.01,34.55-3.18,10.11-3.92,10.11-3.92,25.88-3.25-.62-2.5-.62-2.5Z"/>
                <path class="cls-23" d="M237.16,236.22l7.06-15.66-24.9-5.24s-1.37,3.08-3.24,7.79c6.49,5,13.59,9.45,21.08,13.11Z"/>
              </g>
              <path class="cls-12" d="M245.45,186.85s-12.33-1.49-22.72,15.99c-6.37,10.72-9.37,15.22-9.37,15.22,0,0,9.71,12.53,27.67,15.33,0,0,20.41-35.32,4.42-46.54Z"/>
            </g>
            <path class="cls-14" d="M309.1,254.47c-.57-.1-.91-.15-.91-.15l.72-1.35s-16.39-12.75-3.63,1.09c0,0-20.69,1.44-4.53,2.87,0,0-18.69,3.67,.94,3.8,0,0-18.13,4.85,1.67,3,0,0-17.33,12,6,0-.07-3.31,.13-5.94-.26-9.26Z"/>
          </g>
        </g>
      </g>
    </g>
  </g>
</svg>