<?xml version="1.0" encoding="UTF-8"?>
<svg id="Capa_1" data-name="Capa 1" xmlns="http://www.w3.org/2000/svg" viewBox="0 0 465.71 515.4">
  <defs>
    <style>
      .cls-1 {
        fill: #fff;
      }

      .cls-2 {
        fill: #d8edee;
      }

      .cls-3 {
        fill: #fde039;
      }

      .cls-4 {
        fill: #a6a8ab;
      }

      .cls-5 {
        fill: #e8af2e;
      }

      .cls-6 {
        fill: #403f41;
      }

      .cls-7 {
        fill: #f8ec3a;
      }

      .cls-8 {
        fill: #a5dcf0;
      }

      .cls-9 {
        stroke-width: 4.9px;
      }

      .cls-9, .cls-10 {
        fill: none;
        stroke: #403f41;
        stroke-linecap: round;
        stroke-miterlimit: 10;
      }

      .cls-11 {
        fill: #f05a2a;
      }

      .cls-10 {
        stroke-width: 4.08px;
      }

      .cls-12 {
        fill: #221f1f;
      }
    </style>
  </defs>
  <g>
    <path class="cls-8" d="M232.85,49.69C104.25,49.69,0,153.95,0,282.55s104.25,232.86,232.85,232.86,232.86-104.25,232.86-232.86S361.46,49.69,232.85,49.69Z"/>
    <path class="cls-2" d="M419.75,421.45c-.26-15.99-11.6-30.19-27.92-33.45-16.03-3.2-31.68,5.2-38.28,19.4-3.84-3.42-8.61-5.9-14.03-6.98-11.82-2.36-23.4,2.6-30.06,11.75-1.92-.78-3.94-1.39-6.04-1.81-18.3-3.65-36.09,8.22-39.75,26.52-3.65,18.3,8.22,36.09,26.52,39.75,6.29,1.26,12.52,.68,18.13-1.37-.03,.13-.06,.25-.08,.38-1.84,9.2,.42,18.26,5.51,25.31,42.6-15.79,79.33-43.68,106-79.5Z"/>
    <path class="cls-2" d="M76.12,435.15c13.39,7.09,29.99,1.99,37.09-11.39,7.09-13.39,1.99-30-11.39-37.09-2.5-1.32-5.1-2.22-7.73-2.72,.2-.35,.41-.7,.6-1.06,7.38-13.91,2.07-31.17-11.84-38.54-8.08-4.29-17.29-4.28-25.04-.81-1.99-5.77-6.1-10.82-11.91-13.91-8.9-4.72-19.37-3.51-26.89,2.22-1.9-2.2-4.23-4.1-6.96-5.54-2.7-1.43-5.55-2.29-8.42-2.64,7.47,41.93,26.17,79.97,52.86,110.92,4.34-.77,8.45-2.67,11.84-5.59,2.14,2.45,4.75,4.55,7.8,6.16Zm-31.01-48.64c0-.81-.06-1.62-.14-2.42,.42,.72,.89,1.41,1.38,2.09-.42,.1-.83,.21-1.23,.33Z"/>
    <polygon class="cls-2" points="222.21 286 191.92 457.52 285.79 451.86 250.07 284.21 222.21 286"/>
    <path class="cls-2" d="M302.51,441.08c2.71-7.46-.63-15.64-7.51-19.17,1.87-2.1,3.38-4.57,4.4-7.37,4.3-11.84-1.81-24.94-13.66-29.24-11.84-4.3-24.93,1.81-29.23,13.65-.48,1.32-.82,2.66-1.05,3.99-1-.53-2.04-1-3.13-1.4-12.63-4.59-26.6,1.93-31.19,14.57-3.91,10.77,.25,22.5,9.4,28.58-2.78,2.3-5,5.34-6.33,8.98-2.89,7.94-.67,16.49,4.96,22.07-.74,1.25-1.38,2.58-1.89,3.99-4.46,12.29,1.88,25.88,14.17,30.34,12.29,4.47,25.88-1.88,30.34-14.17,1.54-4.22,1.8-8.6,.97-12.71,.09,.03,.17,.07,.26,.1,11.79,4.28,24.82-1.8,29.1-13.59,2.86-7.88,1.09-16.3-3.91-22.3,1.87-1.66,3.37-3.8,4.29-6.33Z"/>
    <path class="cls-2" d="M435.5,332.64c-.83,1.11-1.55,2.28-2.15,3.48-.79-.79-1.64-1.54-2.56-2.23-10.63-7.99-25.73-5.84-33.72,4.79-6.81,9.07-6.25,21.38,.65,29.76-3.29,1.37-6.28,3.62-8.58,6.68-5.02,6.69-5.39,15.42-1.67,22.33-1.06,.97-2.05,2.04-2.94,3.23-7.77,10.35-5.69,25.04,4.66,32.81,5.07,3.81,11.18,5.25,17.01,4.51,27.97-31.17,47.65-69.93,55.59-112.81-9.21-3.62-20.07-.84-26.3,7.46Z"/>
    <path class="cls-2" d="M211.69,414.53c1.15-1.7,2.08-3.61,2.72-5.71,3.04-10.01-1.69-20.31-10.57-23.01-8.04-2.44-16.71,2.19-20.54,10.51-7.47-.23-14.74,5.2-17.28,13.56-2.06,6.8-.45,13.74,3.64,18.22-3.64,1.38-6.73,4.62-8.04,8.95-2.12,6.98,1.18,14.16,7.37,16.04,.54,.16,1.1,.27,1.65,.34-.01,.05-.04,.09-.05,.14-2.28,7.51,1.27,15.24,7.93,17.26,6.66,2.02,13.91-2.43,16.19-9.94,.41-1.36,.63-2.72,.67-4.06,.17,.06,.34,.12,.51,.17,10.65,3.23,22.24-3.88,25.88-15.9,3.33-10.98-1.13-22.25-10.07-26.57Z"/>
    <path class="cls-2" d="M181.61,483.44c2.04,.33,4.14,.48,6.29,.42,18.65-.5,33.37-16.02,32.87-34.68-.5-18.65-16.02-33.37-34.68-32.87-6.41,.17-12.36,2.12-17.38,5.36,0-.13,0-.26,0-.39-.48-17.89-15.37-32-33.26-31.52-11.95,.32-22.21,7.07-27.56,16.85-3.19-1.62-6.81-2.49-10.64-2.39-11.32,.3-20.42,9.02-21.52,19.99-3.76-1.38-7.83-2.09-12.08-1.98-5.15,.14-9.98,1.47-14.25,3.71,26.71,34.12,62.73,60.6,104.24,75.62,.42,0,.85,.02,1.27,.01,12.06-.32,22.24-7.74,26.71-18.13Z"/>
    <path class="cls-1" d="M413.58,429.37c-2.29-1.86-4.86-3.47-7.68-4.74-14.91-6.71-32.04-2.02-41.65,10.34-2.98-4.2-7.07-7.68-12.11-9.95-11-4.95-23.39-2.7-31.93,4.73-1.7-1.18-3.53-2.23-5.48-3.11-17.02-7.66-37.02-.07-44.67,16.95-7.66,17.02-.07,37.02,16.95,44.67,5.85,2.63,12.05,3.46,17.98,2.73-.05,.12-.11,.23-.17,.35-1.99,4.43-2.9,9.06-2.85,13.62,44.34-13.76,83-40.43,111.61-75.6Z"/>
    <path class="cls-1" d="M84.75,453.1c.12-.06,.23-.12,.35-.18,15.75-8.51,21.62-28.17,13.11-43.91-5.68-10.52-16.34-16.62-27.48-16.98,0-3.57-.86-7.2-2.68-10.57-5.38-9.96-17.27-14.15-27.56-10.18-.47-3.98-1.67-7.93-3.69-11.67-5.94-11-17.3-17.19-28.99-17.08,14.4,54.14,47.8,100.52,92.64,131.58-.67-2.7-1.69-5.36-3.07-7.92-3.05-5.64-7.47-10.07-12.63-13.09Z"/>
    <polygon class="cls-1" points="225.94 318.46 202.45 438.43 275.26 434.47 247.56 317.21 225.94 318.46"/>
    <path class="cls-1" d="M272.76,500.34c.09,.03,.17,.07,.26,.1,11.79,4.29,24.82-1.8,29.1-13.59,2.86-7.87,1.09-16.3-3.91-22.3,1.87-1.66,3.37-3.8,4.29-6.33,2.71-7.46-.63-15.64-7.51-19.17,1.87-2.1,3.38-4.57,4.39-7.37,4.3-11.84-1.81-24.93-13.65-29.24-11.84-4.3-24.93,1.81-29.23,13.65-.48,1.32-.82,2.66-1.05,3.99-1-.53-2.04-1-3.13-1.4-12.63-4.59-26.6,1.93-31.19,14.57-3.91,10.77,.25,22.5,9.39,28.58-2.78,2.3-5,5.34-6.32,8.98-2.89,7.94-.67,16.49,4.96,22.08-.74,1.25-1.38,2.58-1.89,3.99-2.28,6.28-1.74,12.9,.98,18.47,1.53,.03,3.06,.06,4.59,.06,13.38,0,26.49-1.14,39.25-3.31,1.24-3.93,1.42-7.96,.66-11.75Z"/>
    <path class="cls-1" d="M453.23,345.17c-10.99,2.8-18.27,12.73-18.15,23.59-3.43-.99-7.16-1.12-10.87-.18-8.11,2.06-13.87,8.63-15.3,16.34-1.43,.09-2.88,.31-4.32,.68-12.55,3.19-20.13,15.94-16.94,28.48,2.8,11.05,13.03,18.24,24,17.63,20.99-25.13,36.77-54.75,45.71-87.21-1.37,.11-2.75,.32-4.13,.67Z"/>
    <path class="cls-1" d="M216.83,426.53c.46-2,.64-4.12,.48-6.3-.77-10.44-8.89-18.34-18.15-17.66-8.37,.62-14.8,8.06-15.38,17.2-7.06,2.47-11.88,10.15-11.24,18.86,.53,7.09,4.53,12.98,9.95,15.69-2.9,2.6-4.62,6.73-4.29,11.24,.54,7.27,6.2,12.78,12.64,12.31,.57-.04,1.12-.14,1.66-.27,0,.05,0,.1,0,.15,.58,7.83,6.67,13.76,13.61,13.24,6.94-.51,12.1-7.27,11.52-15.1-.1-1.42-.39-2.77-.83-4.03,.18,0,.35-.01,.53-.02,11.1-.82,19.35-11.63,18.43-24.15-.84-11.45-9.07-20.35-18.96-21.17Z"/>
    <path class="cls-1" d="M201.75,511.9c18.65-.5,33.37-16.03,32.87-34.68-.5-18.65-16.02-33.37-34.68-32.87-6.41,.17-12.36,2.12-17.38,5.36,0-.13,0-.26,0-.39-.48-17.89-15.37-32.01-33.26-31.53-11.95,.32-22.21,7.07-27.56,16.85-3.19-1.62-6.81-2.49-10.64-2.39-11.32,.3-20.43,9.02-21.53,19.99-3.76-1.38-7.83-2.1-12.08-1.98-1.88,.05-3.73,.27-5.51,.62,33.18,31.72,75.73,53.71,123.07,61.44,.14-.29,.28-.57,.41-.86,2.05,.33,4.15,.48,6.29,.43Z"/>
    <path class="cls-1" d="M309.06,485.27c-6.41,.17-12.36,2.12-17.38,5.36,0-.13,0-.26,0-.39-.48-17.89-15.37-32.01-33.26-31.53-11.95,.32-22.21,7.07-27.56,16.85-3.19-1.62-6.81-2.49-10.64-2.39-11.32,.3-20.42,9.01-21.52,19.99-3.76-1.38-7.83-2.09-12.08-1.98-10.34,.28-19.42,5.35-25.18,13.03,22.51,7.25,46.51,11.18,71.43,11.18,35.41,0,68.98-7.92,99.03-22.06-6.13-5.23-14.13-8.3-22.82-8.07Z"/>
    <path class="cls-1" d="M380.81,168.09c-.9,.18-1.76,.46-2.57,.82-.04-.51-.11-1.01-.21-1.52-1.4-7.2-8.38-11.9-15.58-10.49-3.96,.77-7.17,3.24-9.01,6.49-2.7-2.75-6.68-4.13-10.74-3.33-4.93,.96-8.55,4.85-9.4,9.52-1.54-.27-3.15-.26-4.77,.05-5.29,1.03-9.21,5.1-10.32,10.04h76.43c.01-.79-.06-1.59-.21-2.4-1.23-6.29-7.33-10.4-13.62-9.17Zm-26.4,10.81c.12-.16,.25-.33,.36-.49,.25,.3,.51,.59,.78,.86-.37-.14-.75-.26-1.14-.37Z"/>
    <path class="cls-1" d="M135.45,218.54c-.7,.14-1.38,.36-2,.64-.03-.39-.08-.79-.16-1.19-1.1-5.62-6.54-9.29-12.16-8.19-3.09,.6-5.59,2.53-7.04,5.07-2.11-2.14-5.21-3.22-8.38-2.6-3.85,.75-6.68,3.79-7.34,7.43-1.2-.21-2.45-.21-3.72,.04-4.13,.81-7.19,3.98-8.06,7.84h59.67c0-.62-.04-1.24-.17-1.87-.96-4.91-5.72-8.12-10.63-7.16Zm-20.61,8.44c.1-.12,.19-.25,.28-.39,.19,.23,.4,.46,.61,.67-.29-.11-.59-.2-.89-.29Z"/>
  </g>
  <g>
    <g>
      <path class="cls-11" d="M241.94,368.03c9.22-23.12,30.06-52.32,29.72-65.44-.33-13.12-15.5-31.37-32.17-30.95-16.66,.42-30.9,19.19-30.56,32.54,.34,13.34,33,63.85,33,63.85Z"/>
      <path class="cls-7" d="M241.52,351.38c7.54-18.9,24.57-42.76,24.29-53.48-.27-10.72-12.67-25.64-26.29-25.29-13.62,.34-25.25,15.69-24.97,26.59,.27,10.9,26.97,52.18,26.97,52.18Z"/>
      <path class="cls-1" d="M241.06,333.19c5.81-14.56,18.93-32.95,18.72-41.21-.21-8.26-9.76-19.75-20.26-19.49-10.49,.27-19.46,12.09-19.24,20.49,.21,8.4,20.78,40.21,20.78,40.21Z"/>
    </g>
    <g>
      <path class="cls-11" d="M214.42,341.47c9.35-13.66,27.12-29.57,28.82-38.13,1.69-8.56-5.49-22.61-16.37-24.77-10.87-2.15-22.84,7.96-24.57,16.66-1.72,8.71,12.12,46.24,12.12,46.24Z"/>
      <path class="cls-7" d="M216.58,330.6c7.64-11.17,22.17-24.17,23.55-31.16,1.38-7-4.49-18.48-13.38-20.24-8.89-1.76-18.67,6.5-20.08,13.62-1.41,7.12,9.9,37.79,9.9,37.79Z"/>
      <path class="cls-1" d="M218.93,318.73c5.89-8.61,17.08-18.62,18.15-24.01,1.07-5.39-3.46-14.24-10.31-15.6-6.85-1.36-14.39,5.01-15.48,10.5-1.08,5.48,7.63,29.12,7.63,29.12Z"/>
    </g>
    <g>
      <path class="cls-11" d="M248.08,313.29c-.05-10.52,3.48-25.25,1.28-30.34-2.21-5.08-11.04-9.83-17.5-7.02-6.46,2.8-9.06,12.41-6.82,17.58,2.25,5.17,23.04,19.78,23.04,19.78Z"/>
      <path class="cls-7" d="M245.28,306.84c-.04-8.59,2.85-20.64,1.04-24.79-1.8-4.16-9.02-8.03-14.3-5.74-5.27,2.29-7.4,10.14-5.57,14.37,1.84,4.23,18.83,16.16,18.83,16.16Z"/>
      <path class="cls-1" d="M242.22,299.79c-.03-6.62,2.2-15.9,.8-19.1-1.39-3.21-6.96-6.19-11.02-4.42-4.07,1.77-5.71,7.82-4.29,11.07,1.42,3.26,14.51,12.45,14.51,12.45Z"/>
    </g>
    <g>
      <path class="cls-5" d="M322.2,89.35c-46.5,61.6-63.64,8.38-89.34,8.56-13.46,.1-23.25,55.48-89.35-8.56,0-49.34,40-89.35,89.35-89.35s89.34,40,89.34,89.35Z"/>
      <path class="cls-5" d="M143.51,89.35c9.8,55.74,36.72,62.56,51.4,120.83,31.89,21.23,29.44,16.33,80.78,4.19,7.34-53.63,46.5-85.97,46.5-125.01,2.45-58.35-171.34-46.91-178.69,0Z"/>
      <g>
        <path class="cls-9" d="M192.47,106.33s16.93,38.88,22.05,53.3c5.12,14.42,5.27,48.86,5.27,48.86"/>
        <path class="cls-9" d="M279.41,106.33s-16.93,38.88-22.05,53.3c-5.12,14.42-5.26,48.86-5.26,48.86"/>
      </g>
      <path class="cls-4" d="M204.6,237.14v27.57c0,8.48,5.5,15.35,12.29,15.35h36.86c6.77,0,12.28-6.87,12.28-15.35v-27.57s-61.43,0-61.43,0Z"/>
      <path class="cls-12" d="M189.3,203.32v44.71c0,8.48,6.87,15.35,15.34,15.35h61.35c8.47,0,15.34-6.87,15.34-15.35v-44.71h-92.04Z"/>
      <g>
        <path class="cls-10" d="M218.11,120.53c0,6.46-3.99,11.7-8.91,11.7-4.92,0-8.91-5.24-8.91-11.7,0-6.45,3.99-11.69,8.91-11.69,4.92,0,8.91,5.24,8.91,11.69Z"/>
        <path class="cls-10" d="M235.94,120.53c0,6.46-3.99,11.7-8.91,11.7-4.92,0-8.91-5.24-8.91-11.7s3.99-11.69,8.91-11.69,8.92,5.24,8.91,11.69Z"/>
        <path class="cls-10" d="M253.77,120.53c0,6.46-3.99,11.7-8.92,11.7-4.93,0-8.92-5.24-8.92-11.7,0-6.45,3.99-11.69,8.92-11.69s8.92,5.24,8.92,11.69Z"/>
        <path class="cls-10" d="M271.59,120.53c0,6.46-3.99,11.7-8.91,11.7s-8.91-5.24-8.91-11.7,3.99-11.69,8.91-11.69c4.92,0,8.91,5.24,8.91,11.69Z"/>
      </g>
      <path class="cls-3" d="M204.6,16.41c22.05-16.27,61.38-2.43,75.95,8.15,20.25,14.71,35.21,47.2,32.87,68.21-2.34,21.01-11.22,32.09-19.48,51.64-2.94,6.95,10.04-21.19-5.74-59.12-11.78-28.31-45.83-35.53-68.42-38.14-15.8-1.83-37.12-14.55-15.19-30.74Z"/>
      <path class="cls-6" d="M284.45,216.79c0,1.22-.94,2.21-2.1,2.21h-94.51c-1.16,0-2.1-.98-2.1-2.21v-3.84c0-1.22,.94-2.21,2.1-2.21h94.51c1.16,0,2.1,.99,2.1,2.21v3.83Z"/>
      <path class="cls-6" d="M284.45,229.99c0,1.22-.94,2.21-2.1,2.21h-94.51c-1.16,0-2.1-.99-2.1-2.21v-3.83c0-1.22,.94-2.21,2.1-2.21h94.51c1.16,0,2.1,.99,2.1,2.21v3.83Z"/>
      <path class="cls-6" d="M284.67,243.18c0,1.22-.94,2.21-2.1,2.21h-94.51c-1.16,0-2.1-.99-2.1-2.21v-3.83c0-1.22,.94-2.21,2.1-2.21h94.51c1.16,0,2.1,.99,2.1,2.21v3.83Z"/>
    </g>
  </g>
</svg>