<?xml version="1.0" encoding="UTF-8"?>
<svg xmlns="http://www.w3.org/2000/svg" viewBox="0 0 500 500">
  <defs>
    <style>
      .cls-1 {
        fill: #f0f0f0;
      }

      .cls-2, .cls-3 {
        fill: #fff;
      }

      .cls-4 {
        fill: #fafafa;
      }

      .cls-5 {
        fill: #37474f;
      }

      .cls-6 {
        fill: #f5f5f5;
      }

      .cls-3 {
        opacity: .3;
      }

      .cls-7 {
        fill: #455a64;
      }

      .cls-8 {
        opacity: .2;
      }

      .cls-9 {
        fill: #f28f8f;
      }

      .cls-10 {
        opacity: .05;
      }

      .cls-11 {
        fill: #e0e0e0;
      }

      .cls-12 {
        fill: #ffc4c3;
      }

      .cls-13 {
        opacity: .1;
      }

      .cls-14 {
        fill: #ebebeb;
      }

      .cls-15 {
        fill: #ba68c8;
      }

      .cls-16 {
        fill: #263238;
      }

      .cls-17 {
        fill: #ffa8a7;
      }
    </style>
  </defs>
  <g id="Floor">
    <path id="Floor-2" data-name="Floor" class="cls-4" d="M77.66,236.19c-95.18,54.95-95.18,144.04,0,199,95.18,54.95,249.5,54.95,344.67,0,95.18-54.95,95.18-144.04,0-199-95.18-54.95-249.5-54.95-344.67,0Z"/>
  </g>
  <g id="Shadows">
    <path id="Shadow" class="cls-11" d="M478.9,317.14l-15.61-17.74h0s-.02,0-.02,0h0l-164.64-95.22c-4.1-2.8-10.24,2.88-12.63,8.61,0,0,0,0,0,0-.37,.9-.67,1.8-.83,2.67-.46,2.38-.06,4.52,1.7,5.74l166,95.99s0,0,0-.01c0,0,0,0,0,.01l22.78,4.5,6.2,1.22c.31,.06,.59-.04,.78-.22,.32-.31,.41-.84,.06-1.24l-3.79-4.3Z"/>
    <path id="Shadow-2" data-name="Shadow" class="cls-11" d="M201.79,194.93L19.69,317.08c-2.71,1.82-2.7,4.58,.03,6.16l246.2,141.95c2.73,1.58,7.14,1.38,9.86-.44l182.1-122.15c2.71-1.82,2.7-4.58-.03-6.16L211.64,194.49c-2.73-1.58-7.14-1.38-9.86,.44Z"/>
  </g>
  <g id="Pencil">
    <g id="Pencil-2" data-name="Pencil">
      <path class="cls-7" d="M305.9,223.6l2.13,1.22,2.56,1.48,145.2,83.98c-.8-1.79-.17-5.35,1.65-8.78,2.12-3.99,5.38-7.15,7.73-7.27l-144.52-83.59-4.91-2.81c3.07,2-6.73,17.73-9.84,15.77Z"/>
      <g>
        <path class="cls-14" d="M320.43,210.51l-4.76-2.72c-1.35-.83-3.92,1.6-6.16,4.81-2.99,4.26-5.42,9.9-3.63,11.01l3.5,2.01,1.26,.7c-1.79-1.11,.63-6.75,3.63-11.01,2.15-3.08,4.62-5.44,6-4.87h.01c.05,.02,.09,.04,.14,.07Z"/>
        <path class="cls-15" d="M319.24,209.84c-3.14-1.94-12.92,13.87-9.78,15.81l4.75,2.73c-3.14-1.94,6.65-17.75,9.78-15.81l-4.75-2.74Z"/>
        <path class="cls-14" d="M328.51,215.18l-4.69-2.7c-3.07-1.93-12.66,13.24-10.06,15.65,.04,.05,.1,.09,.16,.13l4.74,2.68c-3.07-2,6.73-17.73,9.84-15.77Z"/>
      </g>
      <path class="cls-9" d="M315.74,207.8v.03s-.07-.03-.07-.03c-1.34-.86-3.9,1.59-6.15,4.81-2.96,4.18-5.38,9.71-3.71,10.93l-19.82-11.39c-1.59-1.09-1.96-3.03-1.54-5.17,1.1-5.77,7.86-13.11,12.14-10.19l19.15,11.01Z"/>
      <g>
        <path class="cls-9" d="M477.83,311.02c-1.64,2.22-1.47,3.31-1.47,3.31l-20.55-4.04c-2.04-3.12-.7-8.17,2.12-11.78l.9,.51,19.01,12Z"/>
        <path class="cls-5" d="M481.94,315.42l-5.59-1.1s-.25-1.08,1.47-3.31l4.88,3.08h0c.32,.36,.24,.85-.05,1.12-.17,.17-.42,.26-.71,.2Z"/>
        <path class="cls-17" d="M465.16,294.23h.02s0,0,0,0l14.1,15.99c-.55,.09-1.08,.38-1.46,.8l-19.01-12-.9-.51c1.92-2.46,4.54-4.24,7.24-4.28Z"/>
        <path class="cls-7" d="M477.83,311.02c.38-.56,1.18-.85,1.46-.8l3.42,3.88-4.88-3.08Z"/>
      </g>
      <path class="cls-8" d="M457.92,298.51l-171.47-96.34c-.97,1.56-1.7,3.25-2,4.82-.42,2.15-.05,4.07,1.54,5.17l19.91,11.44,2.13,1.22,2.56,1.48,145.2,83.98c-2.5-3.87,.24-9.58,2.12-11.78Z"/>
    </g>
  </g>
  <g id="Notebook">
    <g id="Notebook-2" data-name="Notebook">
      <g>
        <path class="cls-16" d="M206.49,201.09L33.83,307.41l-3.53,6.21,.02,4.88c.01,2.43,1.32,4.58,3.58,5.89l228.73,132.26c1.65,.95,3.76,1.42,5.95,1.33,2.18-.1,4.29-.76,5.93-1.86l168.77-113.25-.02-4.87L206.49,201.09Z"/>
        <path class="cls-15" d="M268.55,453.1c-2.18,.1-4.3-.37-5.95-1.33L33.88,319.51c-2.27-1.31-3.57-3.46-3.59-5.89-.01-2.43,1.28-4.7,3.53-6.21l165.02-110.74,244.4,141.32-168.77,113.25c-1.64,1.1-3.75,1.76-5.93,1.86Z"/>
      </g>
      <g>
        <path class="cls-14" d="M198.79,182.37L35.64,291.85l-1.67,2.61,.08,18.99h0c0,.92,.57,1.81,1.69,2.46l228.73,132.26c2.25,1.3,5.88,1.14,8.12-.36l163.15-109.48-.08-18.99L198.79,182.37Z"/>
        <path class="cls-1" d="M435.67,319.34l-2.04,1.37-26.55,17.81-4.94,3.33-129.62,86.97c-2.25,1.5-5.89,1.66-8.12,.36L35.65,296.92c-2.24-1.3-2.25-3.57-.02-5.08l2.17-1.46,160.98-108.02,234.85,135.79,.49,.3,1.54,.88Z"/>
        <path class="cls-11" d="M268.45,430.06l.08,18.99c-1.46,.07-2.95-.21-4.06-.88L35.74,315.91c-1.11-.64-1.68-1.53-1.68-2.46l-.08-18.99c0,.91,.57,1.8,1.68,2.46l228.74,132.26c1.11,.66,2.59,.94,4.06,.88Z"/>
      </g>
      <g>
        <path class="cls-2" d="M435.66,316.81l-29.37,19.7-4.6,3.09-129.17,86.68c-2.25,1.5-5.89,1.66-8.12,.36L59.55,308.21c-1.84-1.01-3.55-2.01-5.15-2.98-8.33-5.1-13.36-9.77-16.59-14.84-.13-.22-.27-.41-.4-.63-.26-.41-.43-.85-.51-1.3-.38-1.93,.81-3.85,2.83-4.59,3.95-1.46,9.93-4,15.37-7.63,.07-.04,.13-.09,.2-.13l143.47-96.28,236.89,136.98Z"/>
        <path class="cls-11" d="M198.81,181.01l234.96,135.86-28.04,18.81-4.6,3.09-129.17,86.68c-1.02,.68-2.45,1.07-3.92,1.07-1.2,0-2.32-.26-3.14-.74L60.03,307.33c-1.68-.92-3.35-1.89-5.11-2.95-7.85-4.81-13.02-9.42-16.26-14.52-.06-.1-.12-.2-.19-.3-.07-.11-.14-.22-.22-.35-.19-.29-.31-.61-.37-.95-.29-1.43,.64-2.89,2.2-3.46,4.05-1.49,10.04-4.04,15.56-7.72,.04-.03,.08-.05,.12-.08l.06-.04,.03-.02,.02-.02,142.95-95.93m-.04-1.18L55.3,276.11c-.07,.04-.13,.09-.2,.13-5.45,3.63-11.42,6.17-15.37,7.63-2.02,.74-3.22,2.66-2.83,4.59,.08,.44,.25,.88,.51,1.3,.13,.22,.26,.42,.4,.63,3.23,5.07,8.26,9.74,16.59,14.84,1.6,.97,3.31,1.96,5.15,2.98l204.83,118.44c1.01,.59,2.32,.88,3.65,.88,1.6,0,3.25-.42,4.48-1.24l129.17-86.68,4.6-3.09,29.38-19.7L198.77,179.83h0Z"/>
      </g>
      <g>
        <g>
          <path class="cls-13" d="M405.16,315.94c-2.08,1.41-2.07,3.54,.02,4.76,2.09,1.22,5.49,1.07,7.59-.34,2.1-1.41,2.09-3.54-.02-4.76-2.11-1.22-5.51-1.07-7.58,.34Z"/>
          <path class="cls-16" d="M429.47,299.46c-2.9-1.68-6.51-1.23-10.2,1.23-5.7,3.85-10.62,12.07-12.74,20.54,.87,.27,1.84,.35,2.8,.24,1.96-7.55,6.32-14.8,11.37-18.21,1.65-1.09,3.22-1.69,4.65-1.75,.99-.04,1.91,.18,2.74,.65,2.45,1.41,3.87,5.06,3.89,9.99,0,.81-.03,1.63-.12,2.44l2.67,1.54c.18-1.39,.27-2.77,.27-4.11-.03-6.05-1.96-10.63-5.31-12.57Z"/>
          <path class="cls-16" d="M434.26,317.74c-.02,.22-.07,.47-.13,.72l-.49-.3,.62-.41Z"/>
        </g>
        <g>
          <path class="cls-13" d="M382.24,302.68c-2.08,1.41-2.07,3.54,.02,4.76,2.09,1.22,5.48,1.07,7.58-.34,2.1-1.41,2.09-3.54-.02-4.76-2.11-1.22-5.51-1.07-7.58,.34Z"/>
          <path class="cls-16" d="M406.55,286.21c-2.9-1.68-6.52-1.23-10.2,1.23-5.7,3.85-10.62,12.06-12.75,20.54,.86,.27,1.84,.34,2.8,.24,1.96-7.56,6.32-14.8,11.37-18.21,1.65-1.09,3.22-1.69,4.65-1.75,.99-.04,1.91,.18,2.74,.65,2.45,1.41,3.87,5.06,3.89,9.99,0,.81-.03,1.63-.12,2.44l2.67,1.54c.18-1.39,.27-2.77,.26-4.11-.03-6.05-1.96-10.63-5.31-12.57Z"/>
        </g>
        <g>
          <path class="cls-13" d="M359.31,289.43c-2.08,1.41-2.07,3.54,.02,4.76,2.09,1.22,5.49,1.07,7.58-.34,2.1-1.41,2.09-3.54-.02-4.76-2.11-1.22-5.51-1.07-7.58,.34Z"/>
          <path class="cls-16" d="M383.62,272.95c-2.9-1.68-6.52-1.23-10.2,1.23-5.71,3.85-10.63,12.07-12.75,20.55,.86,.26,1.84,.34,2.8,.24,1.96-7.56,6.32-14.8,11.37-18.21,1.65-1.09,3.22-1.69,4.65-1.75,1-.04,1.92,.18,2.74,.65,2.45,1.41,3.87,5.07,3.89,9.99,0,.81-.03,1.63-.12,2.44l2.67,1.54c.18-1.39,.27-2.77,.26-4.11-.03-6.05-1.96-10.63-5.31-12.57Z"/>
        </g>
        <g>
          <path class="cls-13" d="M336.39,276.17c-2.08,1.41-2.07,3.54,.02,4.76,2.09,1.22,5.49,1.07,7.58-.34,2.1-1.41,2.09-3.54-.02-4.76-2.11-1.22-5.51-1.07-7.59,.34Z"/>
          <path class="cls-16" d="M360.7,259.7c-2.9-1.68-6.52-1.23-10.2,1.23-5.71,3.85-10.63,12.06-12.75,20.54,.86,.26,1.84,.34,2.8,.24,1.96-7.56,6.32-14.8,11.37-18.21,1.65-1.09,3.22-1.69,4.65-1.75,.99-.04,1.92,.18,2.74,.65,2.45,1.41,3.87,5.06,3.89,10,0,.81-.03,1.63-.12,2.44l2.67,1.54c.18-1.39,.27-2.77,.26-4.11-.03-6.05-1.96-10.63-5.31-12.57Z"/>
        </g>
        <g>
          <path class="cls-13" d="M313.47,262.92c-2.08,1.41-2.07,3.54,.02,4.76,2.09,1.22,5.49,1.07,7.58-.34,2.1-1.41,2.09-3.54-.02-4.76-2.11-1.22-5.51-1.07-7.59,.34Z"/>
          <path class="cls-16" d="M337.78,246.44c-2.9-1.68-6.52-1.23-10.2,1.23-5.71,3.85-10.63,12.06-12.75,20.54,.86,.27,1.84,.34,2.8,.24,1.96-7.56,6.31-14.8,11.37-18.21,1.65-1.09,3.22-1.69,4.65-1.75,1-.04,1.92,.18,2.74,.65,2.45,1.41,3.87,5.06,3.89,9.99,0,.81-.03,1.63-.12,2.44l2.67,1.54c.18-1.39,.27-2.77,.26-4.11-.03-6.05-1.96-10.63-5.31-12.57Z"/>
        </g>
        <g>
          <path class="cls-13" d="M290.54,249.66c-2.08,1.41-2.07,3.54,.02,4.76,2.09,1.22,5.49,1.07,7.58-.34,2.1-1.41,2.09-3.54-.02-4.76-2.11-1.22-5.51-1.07-7.59,.34Z"/>
          <path class="cls-16" d="M314.85,233.18c-2.9-1.68-6.52-1.23-10.2,1.23-5.71,3.85-10.63,12.06-12.75,20.54,.86,.26,1.84,.34,2.8,.24,1.96-7.56,6.32-14.79,11.37-18.21,1.65-1.09,3.22-1.69,4.65-1.75,.99-.04,1.91,.18,2.74,.65,2.45,1.41,3.87,5.06,3.89,9.99,0,.81-.03,1.63-.12,2.44l2.67,1.54c.18-1.39,.27-2.77,.26-4.11-.03-6.05-1.96-10.63-5.31-12.57Z"/>
        </g>
        <g>
          <path class="cls-13" d="M267.62,236.41c-2.08,1.41-2.07,3.54,.02,4.76,2.09,1.22,5.48,1.07,7.59-.34,2.1-1.41,2.09-3.54-.02-4.76-2.11-1.22-5.51-1.07-7.58,.34Z"/>
          <path class="cls-16" d="M291.93,219.93c-2.9-1.68-6.51-1.23-10.2,1.23-5.71,3.85-10.62,12.07-12.75,20.55,.87,.26,1.84,.34,2.8,.24,1.96-7.56,6.32-14.8,11.37-18.21,1.65-1.09,3.22-1.69,4.65-1.75,.99-.04,1.91,.18,2.74,.65,2.45,1.41,3.87,5.06,3.89,10,0,.81-.03,1.62-.12,2.44l2.67,1.55c.18-1.39,.27-2.77,.26-4.11-.03-6.05-1.96-10.63-5.31-12.57Z"/>
        </g>
        <g>
          <path class="cls-13" d="M244.69,223.15c-2.08,1.41-2.07,3.54,.02,4.76,2.09,1.22,5.49,1.07,7.59-.34,2.1-1.41,2.09-3.54-.02-4.76-2.11-1.22-5.51-1.07-7.58,.34Z"/>
          <path class="cls-16" d="M269,206.68c-2.9-1.68-6.51-1.23-10.2,1.23-5.71,3.85-10.63,12.07-12.75,20.54,.86,.27,1.84,.34,2.79,.24,1.96-7.56,6.32-14.8,11.37-18.21,1.65-1.09,3.22-1.69,4.64-1.75,.99-.04,1.91,.18,2.74,.65,2.45,1.41,3.87,5.06,3.89,10,0,.81-.03,1.62-.12,2.44l2.67,1.55c.18-1.39,.27-2.77,.26-4.11-.03-6.05-1.96-10.63-5.31-12.57Z"/>
        </g>
        <g>
          <path class="cls-13" d="M221.77,209.9c-2.08,1.41-2.07,3.54,.02,4.76,2.09,1.22,5.49,1.07,7.58-.34,2.1-1.41,2.09-3.54-.02-4.76-2.11-1.22-5.51-1.07-7.58,.34Z"/>
          <path class="cls-16" d="M246.08,193.42c-2.9-1.68-6.52-1.23-10.2,1.23-5.71,3.85-10.63,12.06-12.75,20.54,.86,.27,1.84,.34,2.79,.24,1.96-7.56,6.32-14.8,11.37-18.21,1.65-1.09,3.22-1.68,4.65-1.75,1-.04,1.92,.18,2.74,.65,2.45,1.41,3.87,5.06,3.89,9.99,0,.81-.03,1.63-.12,2.44l2.67,1.54c.18-1.39,.27-2.77,.26-4.11-.03-6.05-1.96-10.63-5.31-12.57Z"/>
        </g>
        <g>
          <path class="cls-13" d="M198.84,196.64c-2.08,1.41-2.07,3.54,.02,4.76,2.09,1.22,5.48,1.07,7.59-.34,2.1-1.41,2.09-3.54-.02-4.76-2.11-1.22-5.51-1.07-7.59,.34Z"/>
          <path class="cls-16" d="M223.15,180.17c-2.9-1.68-6.52-1.23-10.2,1.23-5.71,3.85-10.62,12.07-12.75,20.54,.87,.27,1.84,.34,2.8,.24,1.95-7.56,6.31-14.8,11.37-18.21,1.65-1.09,3.22-1.69,4.65-1.75,.99-.04,1.92,.18,2.74,.65,2.44,1.41,3.87,5.07,3.89,10,0,.81-.03,1.62-.12,2.44l2.67,1.55c.18-1.39,.27-2.77,.26-4.11-.03-6.05-1.96-10.63-5.31-12.57Z"/>
        </g>
      </g>
      <g>
        <path class="cls-14" d="M245.47,402.03c-.89,.04-1.76-.42-2.24-1.3-.71-1.31-.3-3.03,.92-3.85l125.52-84.23c1.21-.81,2.81-.45,3.52,.86,.71,1.31,.3,3.03-.92,3.85l-125.51,84.23c-.4,.27-.85,.42-1.29,.44Z"/>
        <path class="cls-14" d="M230.19,393.2c-.89,.04-1.76-.43-2.24-1.3-.71-1.31-.3-3.03,.92-3.85l125.51-84.23c1.21-.81,2.81-.44,3.52,.86,.71,1.31,.3,3.03-.92,3.85l-125.52,84.23c-.4,.27-.85,.41-1.29,.43Z"/>
        <path class="cls-14" d="M214.9,384.36c-.89,.04-1.76-.43-2.24-1.3-.71-1.31-.3-3.03,.92-3.85l125.51-84.23c1.21-.81,2.8-.44,3.52,.86,.71,1.31,.3,3.03-.93,3.85l-125.51,84.23c-.4,.27-.85,.42-1.29,.44Z"/>
        <path class="cls-14" d="M199.62,375.53c-.89,.04-1.76-.43-2.24-1.3-.71-1.31-.3-3.03,.93-3.85l125.51-84.23c1.21-.82,2.81-.44,3.52,.86,.71,1.31,.3,3.03-.92,3.85l-125.51,84.23c-.4,.27-.85,.42-1.29,.44Z"/>
        <path class="cls-14" d="M184.33,366.68c-.89,.04-1.76-.42-2.24-1.3-.71-1.31-.3-3.03,.92-3.85l125.52-84.23c1.21-.81,2.81-.43,3.52,.86,.71,1.3,.3,3.03-.92,3.85l-125.52,84.23c-.4,.27-.85,.42-1.29,.44Z"/>
        <path class="cls-14" d="M169.05,357.85c-.89,.04-1.76-.42-2.24-1.3-.71-1.3-.3-3.03,.92-3.85l125.52-84.23c1.21-.82,2.81-.45,3.53,.86,.71,1.31,.3,3.03-.92,3.85l-125.52,84.23c-.4,.27-.85,.42-1.29,.44Z"/>
        <path class="cls-14" d="M153.77,349.01c-.89,.04-1.76-.43-2.24-1.3-.71-1.31-.3-3.03,.92-3.85l125.52-84.23c1.21-.82,2.81-.45,3.52,.86,.71,1.31,.3,3.03-.92,3.85l-125.51,84.23c-.4,.27-.85,.42-1.29,.44Z"/>
        <path class="cls-14" d="M138.48,340.17c-.89,.04-1.76-.43-2.24-1.29-.71-1.31-.3-3.03,.92-3.85l125.52-84.23c1.22-.82,2.81-.45,3.53,.86,.71,1.3,.3,3.03-.92,3.85l-125.52,84.23c-.4,.27-.85,.42-1.29,.44Z"/>
        <path class="cls-14" d="M123.2,331.33c-.89,.04-1.76-.42-2.24-1.3-.71-1.31-.3-3.03,.92-3.85l125.52-84.23c1.21-.82,2.81-.45,3.52,.86,.71,1.31,.3,3.03-.93,3.85l-125.51,84.23c-.4,.27-.85,.42-1.29,.44Z"/>
        <path class="cls-14" d="M107.91,322.5c-.89,.04-1.76-.43-2.24-1.3-.71-1.31-.3-3.03,.93-3.85l125.51-84.23c1.22-.82,2.81-.44,3.53,.86,.71,1.31,.3,3.03-.92,3.85l-125.52,84.23c-.4,.27-.85,.42-1.29,.44Z"/>
        <path class="cls-14" d="M92.63,313.67c-.89,.04-1.76-.43-2.24-1.3-.71-1.3-.3-3.03,.92-3.85l125.52-84.24c1.21-.82,2.8-.44,3.53,.86,.71,1.31,.3,3.03-.92,3.85l-125.52,84.24c-.4,.27-.85,.42-1.29,.44Z"/>
        <path class="cls-14" d="M77.34,304.82c-.89,.04-1.76-.42-2.24-1.29-.71-1.31-.3-3.03,.93-3.85l125.52-84.23c1.21-.81,2.81-.44,3.53,.86,.71,1.31,.3,3.03-.92,3.85l-125.52,84.23c-.4,.27-.85,.42-1.29,.44Z"/>
        <path class="cls-14" d="M62.06,295.99c-.89,.04-1.76-.42-2.24-1.3-.71-1.3-.3-3.03,.92-3.85l125.52-84.24c1.21-.81,2.8-.44,3.52,.86,.71,1.3,.3,3.03-.92,3.85l-125.52,84.24c-.4,.27-.85,.42-1.29,.44Z"/>
      </g>
      <path class="cls-15" d="M260.99,410.87c-.89,.04-1.76-.42-2.24-1.29-.71-1.3-.31-3.02,.92-3.85l132.76-89.25c1.21-.82,2.81-.45,3.52,.86,.71,1.3,.3,3.02-.92,3.85l-132.76,89.25c-.4,.27-.85,.42-1.29,.44Z"/>
    </g>
  </g>
  <g id="Line">
    <g id="Line-2" data-name="Line">
      <path class="cls-16" d="M274.19,357.25c-.19-.55-.47-1.11-.87-.97-.21,.07-.37,.35-.38,.65,0,.18,.04,.36,.09,.53,.13,.4,.37,.6,.5,1.03,1.48,4.89-3.37,6.43-5.92,6.62-7.26,.53-14.39-2.73-21.07-6.29-9.57-5.11-19.1-10.71-29.12-14.02-8.38-2.77-21.42-5.52-26.26,7.25-.1,.25,.2,.73,.33,.44,5.25-11.8,17.26-9.36,25.54-6.62,10.12,3.35,19.73,9.05,29.41,14.19,6.47,3.43,13.27,6.42,20.29,6.25,3.21-.08,9.68-1.94,7.67-8.31-.06-.18-.13-.46-.23-.73Z"/>
    </g>
  </g>
  <g id="Hand">
    <g id="Hand-2" data-name="Hand">
      <g id="Hand-3" data-name="Hand">
        <g>
          <path class="cls-17" d="M314.01,207.17c-4.52-8.17-9.85-17.16-15.45-30.32-5.57-13.07-10.38-13.29-23.03-17.8-10.47-3.74-39-15.75-50.39-20.6-14.66-6.24-18.71-6.95-31.2-21.13-13.59-15.43-59.22-66.09-59.22-66.09l-58.02,107.35c19.41,11.14,35.62,20.45,47.41,27.95,10.3,6.56,16.61,12.24,22.38,32.51,3.91,13.77,4.37,19.74,15.15,32.05,8.35,9.53,10.78,12.24,20.46,22.82l37.96-15.88c-1.08-1.98-2.1-4.09-2.19-6.35-.32-8.12,11.15-6.86,16.4-6.3,12.29,1.3,51.76,18.75,51.76,18.75l23.32-18.42c3.78-3.95,7.48-8.88,3.61-19.95,2.56-3.03,5.57-10.42,1.05-18.59Z"/>
          <path class="cls-9" d="M285.16,176.23c-1-1.36-2.31-2.35-3.69-3.29-.75-.51-1.5-1.03-2.27-1.53-.89-.57-1.78-1.24-2.74-1.69-.18-.08-.15,.22-.08,.3,2.54,2.56,5.98,4.04,8.06,7.07,.87,1.27,1.51,2.68,2.15,4.07,.82,1.77,1.66,3.51,2.55,5.24,.07,.13,.16,0,.14-.1-.93-3.5-1.96-7.12-4.13-10.08Z"/>
          <path class="cls-9" d="M312.95,225.76c.56-.66,1.14-1.55,1.66-2.6-2.66-5.6-8.98-15.57-14.06-28.05,3.56,9.95,6.55,14.93,12.4,30.65Z"/>
          <path class="cls-9" d="M293.61,175.94c-.13-.8-.3-1.55-.6-2.31-.53-1.33-1.21-2.6-2.19-3.66-1.1-1.19-2.49-1.97-3.92-2.7-1.56-.8-3.19-1.51-4.91-1.89-.03,0-.04,.06-.02,.07,1.44,.83,2.92,1.57,4.37,2.38,1.32,.74,2.67,1.55,3.66,2.72,1.78,2.11,2.43,4.9,3.62,7.34,.07,.14,.22,.11,.22-.05,0-.66-.13-1.27-.24-1.92Z"/>
          <path class="cls-9" d="M312.3,242.08c-.44-5.83-3.48-9.59-6.65-16.84-3.98-9.1-12.82-26.48-15.79-36.67,1.02,9.14,7.11,40.8,11.57,63.39l7.92-6.25c1.05-1.1,2.08-2.28,2.96-3.63Z"/>
          <path class="cls-9" d="M219.21,256.81c-.37-1.18-1.07-2.29-1.64-3.39-.57-1.1-1.07-2.24-1.55-3.38-.91-2.14-1.72-4.3-2.33-6.55-.61-2.27-1.03-4.59-1.12-6.95-.04-1.15-.02-2.3,.08-3.44,.05-.6,.13-1.2,.22-1.79,.07-.46,.2-.95,.23-1.4,.02-.36,0-.7,.06-1.05,.03-.21-.36-.68-.5-.36-.24,.54-.52,1.04-.68,1.61-.14,.51-.25,1.02-.34,1.54-.17,1.01-.28,2.03-.31,3.05-.06,1.91,.09,3.82,.41,5.71,.62,3.74,1.96,7.33,3.7,10.69,.5,.97,1.06,1.92,1.61,2.86,.59,1.03,1.22,2.15,2.04,3.02,.1,.11,.16-.07,.14-.16Z"/>
          <path class="cls-9" d="M291.49,249.55l-23.89-45.16s-24.41,7-35.98,13.41c-11.57,6.42-17.03,28.6-12.55,39.17l.46,.1c-.87-1.7-1.61-3.49-1.68-5.39-.32-8.12,11.15-6.86,16.4-6.3,12.29,1.3,51.76,18.75,51.76,18.75l5.8-4.58-.33-10.01Z"/>
          <ellipse class="cls-17" cx="103.01" cy="102.7" rx="61.86" ry="35" transform="translate(-31.83 157.27) rotate(-66.95)"/>
        </g>
        <g>
          <g>
            <path class="cls-17" d="M272.73,168.2c13.86,6.1,15.49,13.72,17.93,23.56,2.45,9.85,11.82,30.84,15.49,40.31,3.67,9.48,4.48,11.91,.82,24.75-3.67,12.85-14.08,37.98-14.08,37.98,0,0-31.16-98.67-33.2-108.77-2.04-10.11-.82-21.5,13.04-17.84Z"/>
            <path class="cls-9" d="M303.87,250.23c-.04,.06-.05,.1-.02,.17,.43,.14,1.1-.15,1.55-.24,.56-.11,1.12-.21,1.68-.3,.54-.08,1.1-.12,1.67-.16,.07-.37,.14-.73,.19-1.07-1.41,.17-2.82,.48-4.14,.98-.36,.13-.73,.3-.93,.63Zm-.06-6.7c1.41-.48,2.79-.94,4.27-1.14,.38-.05,.77-.08,1.15-.09-.04-.38-.09-.75-.16-1.13-.42,.03-.84,.07-1.25,.13-1.54,.21-3.15,.65-4.49,1.47-.45,.27,.06,.91,.47,.77Zm4.64,1.47c-.88,.03-1.77,.13-2.64,.28-1.75,.3-3.59,.81-5.12,1.74-.39,.24,.13,.74,.46,.63,1.52-.52,2.99-1.07,4.58-1.36,.76-.14,1.53-.24,2.3-.28,.4-.02,.82,0,1.25,0,.03-.34,.04-.68,.06-1.01-.3,0-.6,0-.88,.02Z"/>
            <path class="cls-9" d="M294.81,229.84c-4.01-7.53-11.27-23.84-14.75-34.21l-12.46-3.86-4.13,7.94c8.79,29.79,29.42,95.1,29.42,95.1,0,0,1.54-3.73,3.65-9.04,0-.01,2.79-23.07,4.04-33.41,1.25-10.34-1.76-15-5.77-22.53Z"/>
          </g>
          <g>
            <path class="cls-17" d="M249.9,286.5c-.77-.53-1.54-1.04-2.3-1.6-10.31-7.57-21.3-15.38-27.56-26.87l-37.96,15.88c9.68,10.59,14.49,14.58,20.65,20.16,6.16,5.58,24.85,13.24,37.05,19.35,12.06,6.04,17.26,9.14,20.32,7.42,3.45-1.95,7.83-22.08-10.2-34.34Z"/>
            <g>
              <path class="cls-9" d="M206.08,296.57c.13-.44,.27-.87,.42-1.3,.33-.89,.72-1.77,1.14-2.62,.42-.84,1.06-1.67,1.3-2.58,.06-.22-.25-.59-.47-.41-.82,.65-1.38,1.66-1.88,2.57-.54,.98-.99,2-1.37,3.06-.07,.19-.12,.39-.19,.59,.33,.23,.68,.46,1.04,.7Z"/>
              <path class="cls-9" d="M210.05,298.58c.41-1.5,.94-2.96,1.62-4.35,.58-1.18,1.3-2.29,2.13-3.31,.58-.71,1.23-1.37,1.94-1.96,.57-.47,1.19-.89,1.71-1.41,.14-.14-.06-.51-.25-.46-1.49,.36-2.77,1.4-3.84,2.46-1.13,1.11-2.06,2.4-2.83,3.78-.83,1.5-1.44,3.13-1.9,4.78,0,0,0,.01,0,.02,.44,.26,.89,.51,1.36,.77,.03-.11,.05-.22,.08-.33Z"/>
              <path class="cls-9" d="M214.21,298.25c.42-1.14,.91-2.27,1.49-3.34,.25-.46,.52-.9,.82-1.34,.29-.43,.71-.84,.82-1.35,.05-.22-.26-.57-.49-.44-1.04,.56-1.77,1.84-2.38,2.82-.64,1.04-1.17,2.13-1.62,3.26-.29,.72-.53,1.46-.77,2.19,.43,.23,.86,.46,1.3,.69,.25-.84,.52-1.67,.83-2.49Z"/>
            </g>
            <path class="cls-12" d="M234.6,310.9c1.14-6.72,5.22-9.92,5.22-9.92,0,0,8.71,3.65,12.43,7.02s6.59,10.74,4.27,13.11c-5.34,0-12.52-5.25-21.92-10.21Z"/>
            <path class="cls-3" d="M234.6,310.9c1.1,.58,2.16,1.16,3.2,1.74,.88-3.16,2.02-7.95,2.02-11.66,0,0-4.08,3.2-5.22,9.92Z"/>
          </g>
          <g>
            <path class="cls-17" d="M250.62,225.37c6.11,9.96,15.49,27.99,15.6,30.32,.62,13.13-.13,26.85-.13,41.05s-.12,24.57,6.1,33.96c5.64,8.51,15.97,10.85,17.47,1.55,1.29-7.95,2.08-24.13,3.23-37.44s4.2-32.58,4.96-43.36c.76-10.78-6.28-21.34-11.05-35.27-4.15-12.11-7.65-27.4-14.14-33.89-6.49-6.49-31.06-18.66-40-23.37l17.95,66.45Z"/>
            <g>
              <g>
                <path class="cls-9" d="M297.18,252.32c-.77,.06-1.53,.06-2.3,.01-1.63-.09-3.16-.52-4.75-.86-.4-.09-.3,.49-.06,.61,1.49,.78,3.32,1.05,4.98,1.16,.86,.06,1.72,.04,2.58-.04,.02,0,.05,0,.08,0,.03-.33,.05-.64,.08-.95-.21,.03-.41,.06-.61,.07Z"/>
                <path class="cls-9" d="M288.03,242.67c-.26,.13,.08,.6,.31,.54,1.88-.45,3.78-.65,5.7-.32,.84,.15,1.67,.39,2.46,.71,.25,.1,.49,.23,.73,.35-.09-.43-.19-.86-.3-1.29-.85-.34-1.74-.6-2.64-.74-2.07-.32-4.37-.2-6.27,.75Z"/>
                <path class="cls-9" d="M291.67,246.15c-1.51-.04-3.04,.05-4.51,.38-1.26,.28-3.09,.59-3.91,1.68-.04,.05-.02,.17,.05,.18,.69,.04,1.38-.21,2.05-.37,.72-.17,1.44-.34,2.17-.45,1.36-.2,2.74-.29,4.12-.19,1.34,.09,2.68,.31,3.98,.67,.79,.22,1.53,.52,2.26,.85-.02-.52-.04-1.03-.09-1.55-.55-.2-1.11-.38-1.65-.53-1.45-.4-2.95-.63-4.46-.67Z"/>
              </g>
              <g>
                <path class="cls-9" d="M292.11,302.42c-.53-.17-1.06-.32-1.6-.47-1.1-.3-2.2-.55-3.32-.76-.24-.04-.51,.09-.53,.35-.02,.27,.26,.46,.49,.51,1.03,.19,2.05,.42,3.05,.69,.49,.13,.98,.28,1.47,.43,.17,.05,.35,.11,.53,.17,.02-.29,.04-.58,.06-.87-.05-.02-.11-.04-.16-.05Z"/>
                <path class="cls-9" d="M288.78,298.78c1.13,.33,2.25,.73,3.33,1.2,.12,.05,.23,.11,.35,.17,.03-.4,.06-.79,.09-1.19-.04-.02-.08-.04-.12-.05-1.15-.46-2.33-.86-3.53-1.17-1.19-.31-2.39-.54-3.61-.7-1.24-.16-2.66-.35-3.89-.07-.23,.05-.12,.43,.07,.47,1.27,.25,2.57,.32,3.84,.54,1.17,.2,2.33,.46,3.47,.8Z"/>
                <path class="cls-9" d="M286.91,295.63c1.57,.36,3.14,.78,4.67,1.31,.37,.13,.73,.28,1.09,.43,.03-.33,.05-.64,.08-.97-.26-.09-.51-.2-.77-.28-1.68-.55-3.38-.92-5.13-1.16-.45-.06-.28,.6,.05,.68Z"/>
              </g>
            </g>
            <path class="cls-12" d="M291.49,313.35c-5.86-5.66-12.03-3.64-12.03-3.64,0,0-1.24,7.7-.82,14.45,.42,6.75,4.89,10.07,8.3,10.65,3.41,.58,3.89-6.08,4.55-21.45Z"/>
            <path class="cls-3" d="M291.38,315.84c.04-.8,.07-1.63,.11-2.49-5.86-5.66-12.03-3.64-12.03-3.64,1.2,2.07,7.68,5.73,11.92,6.13Z"/>
            <path class="cls-9" d="M275.97,184.11c-2.71-3.69-6.78-5.88-10.77-7.91-2.24-1.14-4.49-2.28-6.56-3.7-.12-.08-.16,.18-.08,.24,3.17,2.8,6.96,4.75,10.46,7.09,1.68,1.12,3.26,2.39,4.6,3.9,1.61,1.81,2.82,3.96,3.79,6.16,1.06,2.41,1.94,4.89,2.9,7.34,.07,.19,.23,.07,.21-.09-.55-4.54-1.79-9.3-4.54-13.03Z"/>
          </g>
        </g>
      </g>
      <g id="Pen">
        <g>
          <path class="cls-15" d="M207.4,66.3c.18,.27,.32,.56,.42,.86l-.53-1.93c-.03-.12-.07-.23-.11-.34l-.03-.07c-.04-.12-.09-.23-.14-.34l-.09-.16c-.04-.09-.09-.17-.15-.26l-.28-.4c-.1-.13-.22-.26-.34-.38l-.02-.02c-.8-.79-1.95-1.43-3.45-1.82-5.12-1.35-12.32,.59-16.06,4.35-.53,.54-.97,1.08-1.3,1.63-.07,.1-.14,.21-.19,.33-.04,.06-.07,.12-.1,.19-.06,.12-.12,.25-.18,.39-.2,.46-.33,.91-.39,1.36-.02,.11-.12,.66,.09,1.65l.61,2.22c-.1-.36-.15-.75-.14-1.14,.74,1.18,2.11,2.13,4.11,2.65,5.13,1.36,12.33-.59,16.07-4.35,1.47-1.47,2.18-3.01,2.2-4.41Z"/>
          <path class="cls-1" d="M277.77,325.61l-22.71,6.19-.6-2.22L185.16,73.54c-.1-.36-.15-.75-.14-1.14,.03-1.4,.75-2.93,2.21-4.4,3.74-3.76,10.93-5.71,16.07-4.35,1.49,.39,2.65,1.03,3.44,1.81,.26,.26,.48,.53,.66,.83,.18,.27,.32,.56,.42,.86,.02,.05,.04,.11,.05,.15l.02,.06s0,.01,0,.02l69.88,258.22Z"/>
          <path class="cls-15" d="M273.18,321.88c5.13,1.36,6.25,5.51,2.51,9.27-3.74,3.76-10.93,5.71-16.06,4.35-5.13-1.36-6.26-5.51-2.51-9.27,3.74-3.76,10.93-5.71,16.06-4.35Z"/>
        </g>
        <path class="cls-11" d="M277.15,343.26c.01-.1,.02-.21,.02-.31l.7-15.77s0-.02,0-.04v-.12c.01-.1,.01-.19,.01-.29v-.17s0,0,0,0c-.05-2.1-1.67-3.89-4.71-4.69-5.13-1.36-12.32,.59-16.06,4.35-2.17,2.18-2.69,4.5-1.75,6.32h0s.07,.11,.07,.11c.1,.18,.21,.35,.34,.52l.07,.11s.02,.02,.02,.04l8.55,13.23c.42,.67,1.21,1.19,2.31,1.48,2.94,.78,7.05-.33,9.18-2.48,.77-.77,1.17-1.55,1.25-2.3Z"/>
        <g>
          <path class="cls-7" d="M228.36,172.09s0-.04-.01-.06l-.08-.31c-.2-.52-.73-.95-1.57-1.17-1.82-.48-4.39,.22-5.72,1.55-.59,.59-.84,1.2-.77,1.75,0,0,0,.01,0,.01l.11,.4,43.96,162.47,9.28,2.46-45.21-167.1Z"/>
          <path class="cls-5" d="M260.74,323.65l3.55,13.09,9.28,2.46-4.8-17.72c-2.74,.14-5.6,.91-8.03,2.17Z"/>
        </g>
        <g>
          <g>
            <path class="cls-15" d="M276.2,350.14h0s.01,0,.01,0l.64-14.3c.01-.13,.02-.26,.02-.38,0-1.51-1.16-2.79-3.34-3.37-3.62-.96-8.71,.42-11.35,3.08-1.53,1.54-1.91,3.16-1.26,4.45,.02,.03,.03,.06,.05,.08l.22,.33,7.84,12.14h0c.24,.37,.68,.67,1.31,.84,1.65,.44,3.96-.19,5.17-1.4,.49-.49,.7-1,.7-1.46Z"/>
            <path class="cls-13" d="M276.2,350.14h0s.01,0,.01,0l.64-14.3c.01-.13,.02-.26,.02-.38,0-1.51-1.16-2.79-3.34-3.37-3.62-.96-8.71,.42-11.35,3.08-1.53,1.54-1.91,3.16-1.26,4.45,.02,.03,.03,.06,.05,.08l.22,.33,7.84,12.14h0c.24,.37,.68,.67,1.31,.84,1.65,.44,3.96-.19,5.17-1.4,.49-.49,.7-1,.7-1.46Z"/>
          </g>
          <g>
            <path class="cls-15" d="M275.51,351.61c-1.2,1.21-3.52,1.83-5.17,1.4-.63-.17-1.07-.47-1.3-.84h-.01s-3.96-6.14-3.96-6.14c-.63-.96-.4-2.23,.79-3.44,1.92-1.94,5.63-2.94,8.27-2.25,1.57,.41,2.4,1.34,2.42,2.42v.29s-.33,7.09-.33,7.09h-.01c0,.46-.21,.97-.7,1.46Z"/>
            <path class="cls-13" d="M274.7,348.62c1.65,.44,2.01,1.77,.81,2.98-1.2,1.21-3.52,1.84-5.17,1.4-1.65-.44-2.01-1.77-.81-2.98,1.2-1.21,3.52-1.84,5.17-1.4Z"/>
          </g>
        </g>
        <g>
          <path class="cls-4" d="M207.07,93.4c-.15-.6-.71-1.08-1.63-1.33-1.82-.48-4.37,.21-5.68,1.55-.67,.68-.91,1.38-.73,1.97h0l21.18,78.26c-.07-.54,.19-1.16,.77-1.75,1.33-1.34,3.9-2.03,5.72-1.55,.83,.22,1.36,.65,1.57,1.17l-21.19-78.32Z"/>
          <path class="cls-6" d="M206.34,95.36c-1.32,1.33-3.87,2.02-5.69,1.54-.9-.24-1.45-.72-1.6-1.31-.17-.59,.05-1.3,.72-1.97,1.31-1.34,3.86-2.02,5.68-1.55,.91,.24,1.47,.73,1.63,1.33,.16,.59-.08,1.3-.73,1.96Z"/>
        </g>
        <path class="cls-15" d="M210.55,81.78h0s-.03-.11-.03-.11c-.01-.05-.02-.1-.04-.14l-3.71-13.68c-.02-.11-.05-.21-.09-.32l-.02-.08h0c-.49-1.4-1.85-2.55-4.04-3.13-4.62-1.22-11.09,.53-14.46,3.92-1.69,1.7-2.28,3.49-1.85,5.01h0s3.75,13.85,3.75,13.85c0,.02,.01,.05,.02,.07l.02,.08h0c.45,1.46,1.84,2.65,4.08,3.24,4.62,1.22,11.09-.53,14.46-3.92,1.62-1.63,2.22-3.33,1.9-4.8Z"/>
        <path class="cls-10" d="M210.55,81.78h0s-.03-.11-.03-.11c-.01-.05-.02-.1-.04-.14l-3.71-13.68c-.02-.11-.05-.21-.09-.32l-.02-.08h0c-.49-1.4-1.85-2.55-4.04-3.13-4.62-1.22-11.09,.53-14.46,3.92-1.69,1.7-2.28,3.49-1.85,5.01h0s3.75,13.85,3.75,13.85c0,.02,.01,.05,.02,.07l.02,.08h0c.45,1.46,1.84,2.65,4.08,3.24,4.62,1.22,11.09-.53,14.46-3.92,1.62-1.63,2.22-3.33,1.9-4.8Z"/>
        <path class="cls-13" d="M206.39,78.24c4.62,1.22,5.63,4.96,2.26,8.35-3.37,3.39-9.84,5.14-14.46,3.92-4.62-1.22-5.63-4.96-2.26-8.35,3.37-3.39,9.84-5.14,14.46-3.92Z"/>
        <g>
          <path class="cls-7" d="M275.85,356.08h0l-1.45-5.74h0c-.06-.29-.32-.53-.76-.65-.85-.22-2.03,.1-2.65,.72-.31,.31-.42,.64-.34,.91h0l1.43,5.74h0c.09,.31,.25,.59,.5,.83,.76,.76,2,.76,2.76,0,.49-.49,.66-1.18,.52-1.81Z"/>
          <path class="cls-16" d="M275.89,356.45h0c0-.12-.02-.25-.04-.35,0,0,0-.02,0-.02-.1-.23-.36-.41-.73-.51-.85-.22-2.03,.09-2.65,.72-.3,.3-.41,.62-.34,.89,0,.04,.02,.08,.04,.11,0,.04,.04,.1,.04,.1,.08,.2,.21,.36,.37,.52,.76,.76,2,.75,2.76-.01,.4-.4,.59-.92,.56-1.43Z"/>
        </g>
      </g>
      <g id="Fingers">
        <g>
          <path class="cls-17" d="M272.73,168.2c13.86,6.1,15.49,13.72,17.93,23.56,2.45,9.85,11.82,30.84,15.49,40.31,3.67,9.48,4.48,11.91,.82,24.75-3.67,12.85-14.08,37.98-14.08,37.98,0,0-31.16-98.67-33.2-108.77-2.04-10.11-.82-21.5,13.04-17.84Z"/>
          <path class="cls-9" d="M303.87,250.23c-.04,.06-.05,.1-.02,.17,.43,.14,1.1-.15,1.55-.24,.56-.11,1.12-.21,1.68-.3,.54-.08,1.1-.12,1.67-.16,.07-.37,.14-.73,.19-1.07-1.41,.17-2.82,.48-4.14,.98-.36,.13-.73,.3-.93,.63Zm-.06-6.7c1.41-.48,2.79-.94,4.27-1.14,.38-.05,.77-.08,1.15-.09-.04-.38-.09-.75-.16-1.13-.42,.03-.84,.07-1.25,.13-1.54,.21-3.15,.65-4.49,1.47-.45,.27,.06,.91,.47,.77Zm4.64,1.47c-.88,.03-1.77,.13-2.64,.28-1.75,.3-3.59,.81-5.12,1.74-.39,.24,.13,.74,.46,.63,1.52-.52,2.99-1.07,4.58-1.36,.76-.14,1.53-.24,2.3-.28,.4-.02,.82,0,1.25,0,.03-.34,.04-.68,.06-1.01-.3,0-.6,0-.88,.02Z"/>
          <path class="cls-9" d="M294.81,229.84c-4.01-7.53-11.27-23.84-14.75-34.21l-12.46-3.86-4.13,7.94c8.79,29.79,29.42,95.1,29.42,95.1,0,0,1.54-3.73,3.65-9.04,0-.01,2.79-23.07,4.04-33.41,1.25-10.34-1.76-15-5.77-22.53Z"/>
        </g>
        <g>
          <path class="cls-17" d="M249.9,286.5c-.77-.53-1.54-1.04-2.3-1.6-10.31-7.57-21.3-15.38-27.56-26.87l-37.96,15.88c9.68,10.59,14.49,14.58,20.65,20.16,6.16,5.58,24.85,13.24,37.05,19.35,12.06,6.04,17.26,9.14,20.32,7.42,3.45-1.95,7.83-22.08-10.2-34.34Z"/>
          <g>
            <path class="cls-9" d="M206.08,296.57c.13-.44,.27-.87,.42-1.3,.33-.89,.72-1.77,1.14-2.62,.42-.84,1.06-1.67,1.3-2.58,.06-.22-.25-.59-.47-.41-.82,.65-1.38,1.66-1.88,2.57-.54,.98-.99,2-1.37,3.06-.07,.19-.12,.39-.19,.59,.33,.23,.68,.46,1.04,.7Z"/>
            <path class="cls-9" d="M210.05,298.58c.41-1.5,.94-2.96,1.62-4.35,.58-1.18,1.3-2.29,2.13-3.31,.58-.71,1.23-1.37,1.94-1.96,.57-.47,1.19-.89,1.71-1.41,.14-.14-.06-.51-.25-.46-1.49,.36-2.77,1.4-3.84,2.46-1.13,1.11-2.06,2.4-2.83,3.78-.83,1.5-1.44,3.13-1.9,4.78,0,0,0,.01,0,.02,.44,.26,.89,.51,1.36,.77,.03-.11,.05-.22,.08-.33Z"/>
            <path class="cls-9" d="M214.21,298.25c.42-1.14,.91-2.27,1.49-3.34,.25-.46,.52-.9,.82-1.34,.29-.43,.71-.84,.82-1.35,.05-.22-.26-.57-.49-.44-1.04,.56-1.77,1.84-2.38,2.82-.64,1.04-1.17,2.13-1.62,3.26-.29,.72-.53,1.46-.77,2.19,.43,.23,.86,.46,1.3,.69,.25-.84,.52-1.67,.83-2.49Z"/>
          </g>
          <path class="cls-12" d="M234.6,310.9c1.14-6.72,5.22-9.92,5.22-9.92,0,0,8.71,3.65,12.43,7.02s6.59,10.74,4.27,13.11c-5.34,0-12.52-5.25-21.92-10.21Z"/>
          <path class="cls-3" d="M234.6,310.9c1.1,.58,2.16,1.16,3.2,1.74,.88-3.16,2.02-7.95,2.02-11.66,0,0-4.08,3.2-5.22,9.92Z"/>
        </g>
        <g>
          <path class="cls-17" d="M250.62,225.37c6.11,9.96,15.49,27.99,15.6,30.32,.62,13.13-.13,26.85-.13,41.05s-.12,24.57,6.1,33.96c5.64,8.51,15.97,10.85,17.47,1.55,1.29-7.95,2.08-24.13,3.23-37.44s4.2-32.58,4.96-43.36c.76-10.78-6.28-21.34-11.05-35.27-4.15-12.11-7.65-27.4-14.14-33.89-6.49-6.49-31.06-18.66-40-23.37l17.95,66.45Z"/>
          <g>
            <g>
              <path class="cls-9" d="M297.18,252.32c-.77,.06-1.53,.06-2.3,.01-1.63-.09-3.16-.52-4.75-.86-.4-.09-.3,.49-.06,.61,1.49,.78,3.32,1.05,4.98,1.16,.86,.06,1.72,.04,2.58-.04,.02,0,.05,0,.08,0,.03-.33,.05-.64,.08-.95-.21,.03-.41,.06-.61,.07Z"/>
              <path class="cls-9" d="M288.03,242.67c-.26,.13,.08,.6,.31,.54,1.88-.45,3.78-.65,5.7-.32,.84,.15,1.67,.39,2.46,.71,.25,.1,.49,.23,.73,.35-.09-.43-.19-.86-.3-1.29-.85-.34-1.74-.6-2.64-.74-2.07-.32-4.37-.2-6.27,.75Z"/>
              <path class="cls-9" d="M291.67,246.15c-1.51-.04-3.04,.05-4.51,.38-1.26,.28-3.09,.59-3.91,1.68-.04,.05-.02,.17,.05,.18,.69,.04,1.38-.21,2.05-.37,.72-.17,1.44-.34,2.17-.45,1.36-.2,2.74-.29,4.12-.19,1.34,.09,2.68,.31,3.98,.67,.79,.22,1.53,.52,2.26,.85-.02-.52-.04-1.03-.09-1.55-.55-.2-1.11-.38-1.65-.53-1.45-.4-2.95-.63-4.46-.67Z"/>
            </g>
            <g>
              <path class="cls-9" d="M292.11,302.42c-.53-.17-1.06-.32-1.6-.47-1.1-.3-2.2-.55-3.32-.76-.24-.04-.51,.09-.53,.35-.02,.27,.26,.46,.49,.51,1.03,.19,2.05,.42,3.05,.69,.49,.13,.98,.28,1.47,.43,.17,.05,.35,.11,.53,.17,.02-.29,.04-.58,.06-.87-.05-.02-.11-.04-.16-.05Z"/>
              <path class="cls-9" d="M288.78,298.78c1.13,.33,2.25,.73,3.33,1.2,.12,.05,.23,.11,.35,.17,.03-.4,.06-.79,.09-1.19-.04-.02-.08-.04-.12-.05-1.15-.46-2.33-.86-3.53-1.17-1.19-.31-2.39-.54-3.61-.7-1.24-.16-2.66-.35-3.89-.07-.23,.05-.12,.43,.07,.47,1.27,.25,2.57,.32,3.84,.54,1.17,.2,2.33,.46,3.47,.8Z"/>
              <path class="cls-9" d="M286.91,295.63c1.57,.36,3.14,.78,4.67,1.31,.37,.13,.73,.28,1.09,.43,.03-.33,.05-.64,.08-.97-.26-.09-.51-.2-.77-.28-1.68-.55-3.38-.92-5.13-1.16-.45-.06-.28,.6,.05,.68Z"/>
            </g>
          </g>
          <path class="cls-12" d="M291.49,313.35c-5.86-5.66-12.03-3.64-12.03-3.64,0,0-1.24,7.7-.82,14.45,.42,6.75,4.89,10.07,8.3,10.65,3.41,.58,3.89-6.08,4.55-21.45Z"/>
          <path class="cls-3" d="M291.38,315.84c.04-.8,.07-1.63,.11-2.49-5.86-5.66-12.03-3.64-12.03-3.64,1.2,2.07,7.68,5.73,11.92,6.13Z"/>
          <path class="cls-9" d="M275.97,184.11c-2.71-3.69-6.78-5.88-10.77-7.91-2.24-1.14-4.49-2.28-6.56-3.7-.12-.08-.16,.18-.08,.24,3.17,2.8,6.96,4.75,10.46,7.09,1.68,1.12,3.26,2.39,4.6,3.9,1.61,1.81,2.82,3.96,3.79,6.16,1.06,2.41,1.94,4.89,2.9,7.34,.07,.19,.23,.07,.21-.09-.55-4.54-1.79-9.3-4.54-13.03Z"/>
        </g>
      </g>
    </g>
  </g>
  <g id="Speech_Bubble" data-name="Speech Bubble">
    <g id="Speech_Bubble-2" data-name="Speech Bubble">
      <g>
        <path class="cls-2" d="M296,104.99c0-32.24,36.48-58.38,81.48-58.38s81.48,26.14,81.48,58.38-36.48,58.37-81.48,58.37c-2.71,0-5.38-.1-8.02-.28-8.9,16.73-24.03,19.6-35.8,18.27,8.29-3.75,13.5-12.6,12.57-22.44-29.49-8.78-50.23-29.61-50.23-53.92Z"/>
        <path class="cls-11" d="M333.56,182.19c-.38-.04-.68-.33-.74-.71-.06-.38,.14-.75,.49-.91,7.93-3.58,12.75-11.98,12.12-21.02-30.56-9.29-50.28-30.66-50.28-54.57,0-32.66,36.93-59.23,82.33-59.23s82.33,26.57,82.33,59.23-36.93,59.22-82.33,59.22c-2.47,0-5-.08-7.53-.25-8.4,15.34-21.76,18.51-31.34,18.51-1.84,0-3.54-.12-5.05-.29Zm35.96-19.96c2.68,.19,5.36,.28,7.97,.28,44.46,0,80.63-25.81,80.63-57.52s-36.17-57.53-80.63-57.53-80.63,25.81-80.63,57.53c0,23.28,19.48,44.13,49.62,53.1,.33,.1,.57,.39,.6,.73,.84,8.95-3.3,17.4-10.48,21.9,9.32,.43,23.54-1.94,32.11-18.05,.15-.28,.44-.45,.75-.45,.02,0,.04,0,.06,0Z"/>
      </g>
      <g>
        <path class="cls-11" d="M396.98,144.01l3.2,.43-.23,1.87h-10.7l.23-1.87,3.12-.47-1.72-6.6h-9.17l-2.3,6.6,3.51,.47-.23,1.87h-9.21l.23-1.87,2.93-.47,8.98-24.79,4.29-.47,7.07,25.3Zm-6.72-8.98l-3.24-12.73h-.12l-4.41,12.73h7.77Z"/>
        <path class="cls-11" d="M340.63,122.04l.46-13.46-1.88-.42,.12-.97h3.15l.32,.22-.24,6.69-.55,4.75,.16,.04,.75-2.79c.73-2.75,1.66-3.94,3.48-3.94,2.08,0,2.99,1.64,2.99,4.31,0,4.2-2.04,6.51-4.89,6.51-1.29,0-3.01-.42-3.88-.93Zm2.51-3.11l-.67,2.32c.49,.22,1.13,.46,2.02,.46,1.88,0,3.09-2.12,3.09-5.11,0-1.13-.02-3.03-1.43-3.03-1.6,0-2,1.9-3.01,5.36Z"/>
        <path class="cls-11" d="M326.75,88.69c0,.79-.51,1.35-1.29,1.35-.59,0-1.11-.38-1.31-.89l.42-.51c.79-.89,.02-1.39-.97-1.39-1.86,0-2.93,1.7-2.93,4.77,0,1.92,.73,3.46,2.36,3.46,1.27,0,2.1-.89,2.75-1.54l.75,.77c-.48,.65-1.82,2.2-3.88,2.2-2.63,0-4.04-2-4.04-4.83,0-3.48,1.9-6.02,5.01-6.02,1.78,0,3.13,.97,3.13,2.63Z"/>
        <path class="cls-11" d="M388.72,79.8c.93,2.02-.56,3.53-1.94,4.63l-1.81,1.43c.68,1.18,2.05,2.33,3.57,1.62,1.1-.51,1.54-1.58,1.84-2.29l.94,.39c-.18,.73-.77,2.44-2.58,3.28-2.37,1.09-4.5-.2-5.66-2.71-1.45-3.16-.74-6.25,1.9-7.46,1.84-.85,3.09-.31,3.74,1.1Zm-3.39-.02c-1.52,.7-1.82,2.57-.84,5.04l1.63-1.33c1.13-.92,1.54-1.69,.99-2.88-.33-.72-.94-1.21-1.78-.83Z"/>
        <path class="cls-11" d="M379.54,99.77l-1.2,2.9,4.32,1.52-.81,1.89-4.2-1.48-4.01,10.06c-1.47,3.66-3.84,7.26-6.31,8.79-1.11,.72-2.25,.92-3.27,.56-1.27-.45-1.87-1.37-1.59-2.38,.19-.65,.72-1.32,1.57-1.91l1.17,1.05c.94,.87,1.96,.83,2.71-.69,.5-1,.86-1.95,1.39-3.23l5.23-13.35-2.7-.95,.83-1.64,2.63,.64,.64-1.52c1.66-3.99,4.88-6.25,8.95-4.82,2,.7,4.22,2.52,3.29,5.16-.41,1.18-1.43,1.64-2.61,1.23-.7-.25-1.29-.81-1.49-1.45l.63-.78c1.04-1.24,.82-2.14-.57-2.63-2.07-.73-3.66,.75-4.6,3.03Z"/>
        <path class="cls-11" d="M413.97,102.68l-1.59,2.07c-2.48,3.23-4.31,4.57-7.02,3.44-2.9-1.2-2.99-4.36-1.65-7.58,2.1-5.07,6.04-7.51,9.86-5.92,1.09,.45,2.32,1.22,3.2,2.09l1.31-.25,.7,.61-5.28,11.51c-1.94,4.22-5.24,7.71-10.61,5.48-1.9-.79-3.85-2.36-3.03-4.34,.51-1.22,1.61-1.65,2.56-1.26,.57,.24,1.11,.78,1.25,1.35l-.57,.69c-.93,1.01-.72,1.8,.78,2.42,2.82,1.17,5.4-.91,7.56-5.03l2.72-5.17-.18-.11Zm-.49-1.51l2.26-2.91c-.53-.63-1.83-1.49-2.64-1.83-2.55-1.06-5.29,1.18-6.9,5.05-.47,1.14-1.73,4.18,.36,5.04,2.14,.89,3.86-1.42,6.93-5.36Z"/>
        <path class="cls-11" d="M321.8,118.53c-.77,.3-1.42,.92-1.93,1.37l-1.27-1.67c.71-.9,2.17-2.31,4.05-3.02,2.18-.83,3.85,.01,4.73,2.98l3.53,11.8c.3,1.03,.64,1.57,1.45,1.26,.77-.3,1.22-1.01,1.72-1.71l1.5,1.29c-.48,1.07-1.95,2.98-3.94,3.74-2.62,1-3.92-.2-4.6-2.43l-3.7-12.5c-.28-.95-.67-1.43-1.52-1.11Zm-1.74-12.23c1.55-.59,3.03,.07,3.61,1.59,.59,1.55-.07,3.03-1.62,3.62-1.59,.6-3.05-.02-3.64-1.57-.58-1.51,.07-3.03,1.66-3.63Z"/>
        <path class="cls-11" d="M375.46,74.09c-1.56,0-2-.91-1.89-2.15l.65-7.4c.16-1.84-.16-2.41-1.01-2.41-1.04,0-1.43,.73-2.23,3.04l-3.04,8.56h-2.13l.42-10.8c.03-.73-.16-1.04-.7-1.04-.41,0-.96,.23-1.53,.47l-.44-1.3c.55-.31,1.95-.86,2.98-.86,1.48,0,1.97,.91,1.82,2.65l-.65,6.93,.18,.05,1.89-5.63c.93-2.75,2-4,3.97-4,2.31,0,2.93,1.48,2.67,4.49l-.57,6.7c-.08,.78,.03,1.12,.6,1.12,.39,0,.96-.23,1.45-.62l.6,.93c-.6,.55-1.97,1.27-3.04,1.27Z"/>
        <path class="cls-11" d="M429.3,80.11c3.53,0,5.56,2.62,5.56,6.6s-1.79,7.7-6.34,7.7c-3.53,0-5.51-2.62-5.51-6.66s1.71-7.65,6.28-7.65Zm3.05,6.58c0-2.91-.83-5.03-3.26-5.03-2.86,0-3.53,2.97-3.53,6.2,0,2.97,.96,4.97,3.13,4.97,2.86,0,3.66-2.91,3.66-6.15Z"/>
        <path class="cls-11" d="M341.82,64.46c6.72-2.43,13.32,.33,16.37,8.72,3.33,9.2,.06,15.4-6.7,18.71l.12,.32c2.82-.57,4.81-.21,6.79,.39,3.44,1.01,4.69,.97,4.58-.58l-.12-1.45c2.44-.88,3.99-.09,4.56,1.47,.71,1.96-.48,3.66-2.32,4.32-2,.72-4.36,.31-7.29-.66-3.84-1.37-5.26-1.9-7.57-1.06-1.68,.61-2.69,1.56-4.4,3.22l-1.84-1.82c.78-.83,1.9-1.86,3.16-2.64l-.09-.24c-6.37,.64-10.99-3.39-13.07-9.11-3.95-10.91,1.18-17.21,7.82-19.61Zm8.22,25.69c4.72-1.71,6.77-7.02,3.98-14.74-2.53-7-6.9-9.94-11.82-8.15-4.52,1.64-7.21,6.05-4.06,14.77,2.52,6.96,6.66,10.02,11.9,8.13Z"/>
        <path class="cls-11" d="M410.81,128.56c-.32,0-.75,.18-1.19,.36l-.34-1.01c.42-.24,1.52-.67,2.32-.67,1.15,0,1.54,.71,1.41,2.06l-.28,2.87,.12,.02,1.09-2.57c.67-1.58,1.17-2.39,2.37-2.39,1.03,0,1.56,.65,1.56,1.37,0,.57-.32,1.13-.95,1.39l-.46-.55c-.22-.28-.38-.44-.69-.44-.44,0-.61,.32-1.25,1.76-1.5,3.36-1.78,3.98-1.88,5.34l-.18,1.66h-1.5l.4-8.41c.02-.57-.12-.81-.55-.81Z"/>
        <path class="cls-11" d="M395.34,65.56c2.23-.52,3.25,.59,3.51,2.53l1.47,10.5c.35,2.34,.73,3.14,1.9,2.87,1.28-.3,1.53-1.51,1.87-4.86l1.22-12.82,3.54-.82,2.94,15.32c.19,.99,.51,1.38,1.28,1.2,.58-.14,1.24-.63,1.94-1.1l1.08,1.67c-.69,.66-2.48,1.92-4.01,2.28-2.15,.5-3.25-.59-3.6-3.09l-1.36-9.99-.3,.03-.6,8.52c-.31,3.96-1.3,6.18-4.22,6.86-3.21,.74-4.59-1.21-5.17-5.22l-1.41-9.71c-.13-1.05-.4-1.56-1.2-1.37-.55,.13-1.24,.63-1.75,1.25l-1.15-1.31c.67-.93,2.45-2.38,4.02-2.74Z"/>
        <path class="cls-11" d="M359.17,135.32c-.32,1.89-.78,3.49-1.29,5.16-.52,1.7-.74,2.81,.74,3.06,2.5,.42,4.69-3.83,5.23-6.54,.23-1.2,.02-1.52-.63-1.89l-.89-.49c.06-1.43,.86-2.3,2.11-2.08,1.61,.27,2.08,1.53,1.77,3.32-.67,3.98-3.74,10.5-8.44,9.7-1.2-.2-2.52-1.06-2.45-3.07-1.17,1.51-2.58,2.21-4.62,1.87-1.38-.23-3.49-1.06-2.69-4.73l1.51-6.88c.16-.81-.27-1.04-1-.93l-.92,.13-.2-1.43c.64-.23,2.16-.5,3.31-.31,1.58,.27,2.07,1.27,1.76,2.66l-1.51,6.62c-.4,1.72-.4,2.69,.82,2.9,2.55,.43,3.84-3.02,4.53-7.06,.19-1.15,.32-2.36,.37-3.45l2.76,.15c.04,1-.08,2.19-.27,3.29Z"/>
        <path class="cls-11" d="M431.39,116.39l7.11-7.94-2.46-1.11,.49-1.37,7.22,1.61-.55,1.48-2.51-.02-8.97,9.66-1.57,5.91,2.73,1.02-.51,1.43-8.29-1.85,.51-1.43,2.54,.16,1.65-5.86-3.49-12.56-2.15-.95,.54-1.45,7.97,1.77-.51,1.46-2.57-.16,2.7,10.19,.12,.03Z"/>
      </g>
    </g>
  </g>
</svg>