<?xml version="1.0" encoding="UTF-8"?>
<svg xmlns="http://www.w3.org/2000/svg" viewBox="0 0 750 500">
  <defs>
    <style>
      .cls-1, .cls-2, .cls-3, .cls-4, .cls-5, .cls-6, .cls-7 {
        stroke: #263238;
      }

      .cls-1, .cls-8, .cls-4 {
        fill: #fff;
      }

      .cls-1, .cls-5 {
        stroke-miterlimit: 10;
      }

      .cls-9 {
        opacity: .2;
      }

      .cls-2 {
        fill: #b8b8b8;
      }

      .cls-2, .cls-3, .cls-4, .cls-6, .cls-7 {
        stroke-linecap: round;
        stroke-linejoin: round;
      }

      .cls-8 {
        opacity: .7;
      }

      .cls-3, .cls-10 {
        fill: #92e3a9;
      }

      .cls-5, .cls-6 {
        fill: none;
      }

      .cls-11 {
        opacity: .1;
      }

      .cls-7, .cls-12 {
        fill: #263238;
      }
    </style>
  </defs>
  <g id="Background_Simple" data-name="Background Simple">
    <g>
      <path class="cls-10" d="M74.1,439.98h509.59c29.58-10.46,55.49-31.32,60.04-109.37,0,0,9.05-178-127.6-227s-205.43-13-248.87,33c-43.44,46-57.92,76-107.69,82-49.77,6-95.93,16-119.46,83-20.32,57.85-.83,105.26,34,138.37Z"/>
      <path class="cls-8" d="M74.1,439.98h509.59c29.58-10.46,55.49-31.32,60.04-109.37,0,0,9.05-178-127.6-227s-205.43-13-248.87,33c-43.44,46-57.92,76-107.69,82-49.77,6-95.93,16-119.46,83-20.32,57.85-.83,105.26,34,138.37Z"/>
    </g>
  </g>
  <g id="Wall">
    <g>
      <g>
        <rect class="cls-9" x="126.22" y="242.5" width="49.47" height="20.03"/>
        <g>
          <rect class="cls-9" x="297.19" y="187.47" width="49.47" height="20.03"/>
          <rect class="cls-9" x="450.49" y="187.47" width="49.47" height="20.03"/>
          <rect class="cls-9" x="538.93" y="224.81" width="49.47" height="20.03"/>
          <rect class="cls-11" x="270.09" y="215.15" width="49.47" height="20.03"/>
        </g>
        <g>
          <rect class="cls-9" x="184.25" y="187.47" width="49.47" height="20.03"/>
          <rect class="cls-11" x="157.16" y="215.15" width="49.47" height="20.03"/>
          <rect class="cls-11" x="213.7" y="215.15" width="49.47" height="20.03"/>
        </g>
        <g>
          <rect class="cls-9" x="68.62" y="260.99" width="49.47" height="20.03"/>
          <rect class="cls-11" x="44.23" y="215.15" width="49.47" height="20.03"/>
          <rect class="cls-11" x="100.77" y="215.15" width="49.47" height="20.03"/>
        </g>
      </g>
      <g>
        <g>
          <rect class="cls-9" x="297.19" y="74.46" width="49.47" height="20.03"/>
          <rect class="cls-11" x="270.09" y="102.14" width="49.47" height="20.03"/>
        </g>
        <g>
          <rect class="cls-9" x="303.36" y="370" width="49.47" height="20.03"/>
          <rect class="cls-11" x="276.26" y="397.68" width="49.47" height="20.03"/>
        </g>
        <g>
          <rect class="cls-9" x="545.81" y="74.46" width="49.47" height="20.03"/>
          <rect class="cls-11" x="518.72" y="102.14" width="49.47" height="20.03"/>
        </g>
        <g>
          <rect class="cls-9" x="563.64" y="248.63" width="49.47" height="20.03"/>
          <rect class="cls-11" x="536.55" y="276.31" width="49.47" height="20.03"/>
        </g>
        <g>
          <rect class="cls-9" x="486.84" y="317.88" width="49.47" height="20.03"/>
          <rect class="cls-11" x="459.75" y="345.57" width="49.47" height="20.03"/>
        </g>
        <g>
          <rect class="cls-9" x="411.41" y="170.46" width="49.47" height="20.03"/>
          <rect class="cls-11" x="384.32" y="198.14" width="49.47" height="20.03"/>
        </g>
        <rect class="cls-9" x="198.01" y="74.46" width="49.47" height="20.03"/>
        <rect class="cls-11" x="213.7" y="157.81" width="49.47" height="20.03"/>
        <rect class="cls-11" x="592.9" y="157.81" width="49.47" height="20.03"/>
        <rect class="cls-11" x="632.05" y="278.78" width="49.47" height="20.03"/>
        <rect class="cls-11" x="537.43" y="157.81" width="49.47" height="20.03"/>
        <rect class="cls-11" x="567.53" y="202.38" width="49.47" height="20.03"/>
        <rect class="cls-11" x="512.74" y="202.38" width="49.47" height="20.03"/>
      </g>
      <g>
        <g>
          <rect class="cls-9" x="354.59" y="289.67" width="49.47" height="20.03"/>
          <rect class="cls-9" x="354.59" y="343.72" width="49.47" height="20.03"/>
          <rect class="cls-9" x="126.22" y="344.7" width="49.47" height="20.03"/>
          <rect class="cls-11" x="439.57" y="317.35" width="49.47" height="20.03"/>
          <rect class="cls-11" x="412.57" y="343.54" width="49.47" height="20.03"/>
          <rect class="cls-11" x="582.6" y="317.35" width="49.47" height="20.03"/>
          <rect class="cls-11" x="555.61" y="343.54" width="49.47" height="20.03"/>
        </g>
        <g>
          <rect class="cls-9" x="297.19" y="289.67" width="49.47" height="20.03"/>
          <rect class="cls-11" x="326.63" y="317.35" width="49.47" height="20.03"/>
          <rect class="cls-11" x="303.05" y="374.35" width="49.47" height="20.03"/>
          <rect class="cls-11" x="373.8" y="400.88" width="49.47" height="20.03"/>
          <rect class="cls-11" x="187.09" y="400.88" width="49.47" height="20.03"/>
          <rect class="cls-11" x="46.02" y="400.88" width="49.47" height="20.03"/>
          <rect class="cls-11" x="225.87" y="249.54" width="49.47" height="20.03"/>
          <rect class="cls-11" x="282.41" y="249.54" width="49.47" height="20.03"/>
          <rect class="cls-11" x="439.65" y="249.54" width="49.47" height="20.03"/>
        </g>
        <g>
          <rect class="cls-9" x="184.25" y="289.67" width="49.47" height="20.03"/>
          <rect class="cls-11" x="238.72" y="346.83" width="49.47" height="20.03"/>
        </g>
        <g>
          <rect class="cls-9" x="71.32" y="289.67" width="49.47" height="20.03"/>
          <rect class="cls-9" x="68.62" y="363.19" width="49.47" height="20.03"/>
          <rect class="cls-11" x="44.23" y="317.35" width="49.47" height="20.03"/>
          <rect class="cls-11" x="100.77" y="317.35" width="49.47" height="20.03"/>
        </g>
      </g>
    </g>
  </g>
  <g id="Board">
    <g>
      <rect class="cls-4" x="249.17" y="101.09" width="291.28" height="295.87"/>
      <rect class="cls-2" x="255.48" y="107.5" width="278.66" height="283.05"/>
    </g>
  </g>
  <g id="Lamp">
    <g>
      <circle class="cls-1" cx="620.51" cy="104.82" r="9.92" transform="translate(-8.25 78.84) rotate(-7.22)"/>
      <polygon class="cls-12" points="664.73 106.82 575.51 106.82 606.74 69.53 633.51 69.53 664.73 106.82"/>
      <rect class="cls-12" x="614.23" y="62.32" width="11.78" height="11.78"/>
      <line class="cls-5" x1="620.6" y1="64.53" x2="620.6" y2="30.46"/>
    </g>
  </g>
  <g id="Panels">
    <g>
      <g>
        <rect class="cls-4" x="348.04" y="124.27" width="98.71" height="73.31"/>
        <g>
          <g>
            <g>
              <path class="cls-6" d="M397.04,152.27s-1.73-12.89-3.3-13.83c-1.57-.94-8.33-.63-8.8,2.36-.47,2.99,1.73,14.31,1.73,14.31"/>
              <path class="cls-6" d="M377.08,176.48s-1.26-11.79,.63-14.31c1.89-2.52,8.33-5.34,8.33-5.34,0,0-.94-2.99,2.36-3.77,3.3-.79,9.27-1.26,10.06,.79,.79,2.04,.79,1.1,.79,1.1,0,0,7.55,2.52,8.33,5.34,.79,2.83,2.83,16.03,2.83,16.03"/>
              <line class="cls-6" x1="400.5" y1="158.25" x2="393.43" y2="170.51"/>
              <line class="cls-6" x1="394.84" y1="163.75" x2="389.18" y2="172.71"/>
              <path class="cls-6" d="M387.29,156.83s8.17-2.04,10.53-1.73"/>
              <polygon class="cls-7" points="419.36 158.88 414.8 161.55 410.25 152.9 425.81 153.22 422.98 155.89 431.47 158.25 424.08 162.81 419.36 158.88"/>
            </g>
            <rect class="cls-6" x="360.05" y="130.95" width="74.63" height="49.54"/>
          </g>
          <g>
            <line class="cls-6" x1="424.3" y1="184.45" x2="432.29" y2="184.45"/>
            <line class="cls-6" x1="382.09" y1="184.45" x2="421.23" y2="184.45"/>
            <line class="cls-6" x1="360.54" y1="184.45" x2="379.74" y2="184.45"/>
            <line class="cls-6" x1="414.38" y1="188.33" x2="432.29" y2="188.33"/>
            <line class="cls-6" x1="395.43" y1="188.33" x2="412.21" y2="188.33"/>
            <line class="cls-6" x1="371.08" y1="188.33" x2="393.09" y2="188.33"/>
            <line class="cls-6" x1="360.54" y1="188.33" x2="369.46" y2="188.33"/>
            <line class="cls-6" x1="420.51" y1="192.21" x2="432.29" y2="192.21"/>
            <line class="cls-6" x1="377.04" y1="192.21" x2="417.26" y2="192.21"/>
            <line class="cls-6" x1="360.54" y1="192.21" x2="374.69" y2="192.21"/>
          </g>
          <circle class="cls-4" cx="360.88" cy="134.52" r="8.05"/>
          <path class="cls-12" d="M360,138.95v-7.44c-.08,.05-.18,.09-.29,.14-.11,.05-.22,.09-.34,.14-.12,.05-.23,.1-.35,.14-.11,.05-.21,.09-.31,.14v-1.43c.08-.05,.2-.11,.36-.19,.15-.08,.32-.17,.5-.27s.34-.2,.5-.31c.15-.1,.27-.19,.35-.27h1.51v9.35h-1.93Z"/>
        </g>
      </g>
      <g>
        <circle class="cls-3" cx="401.56" cy="123.91" r="3.16"/>
        <circle class="cls-3" cx="403.23" cy="122.69" r="3.16"/>
        <line class="cls-6" x1="398.85" y1="126.3" x2="397.78" y2="127.22"/>
      </g>
    </g>
    <g>
      <g>
        <rect class="cls-4" x="293.05" y="207.36" width="98.71" height="73.31"/>
        <g>
          <g>
            <g>
              <polygon class="cls-7" points="366.03 237.37 361.47 240.05 356.92 231.4 372.48 231.71 369.65 234.39 378.14 236.74 370.75 241.3 366.03 237.37"/>
              <path class="cls-6" d="M345.75,224.01s.16-2.83-2.36-4.87-7.55-2.04-9.9,.79c-2.36,2.83-2.36,3.93-2.2,5.5s1.89,12.26,1.89,12.26l13.99-4.09-.63-3.77s1.1-.63,.79-3.46c-.31-2.83-1.57-2.36-1.57-2.36Z"/>
              <polyline class="cls-6" points="333.65 227.16 333.34 233.13 337.58 232.5"/>
              <path class="cls-6" d="M337.74,223.38s-2.04-.31-2.67,1.41"/>
              <ellipse class="cls-12" cx="337.5" cy="226.61" rx=".55" ry=".86"/>
              <path class="cls-12" d="M335.38,219.77c1.57-.79,4.72-2.2,5.5-1.1,.79,1.1-2.2,1.73-1.41,2.99,.79,1.26,2.36,.79,2.99,1.73s-.47,2.99,.94,3.46,.63-.63,1.89-1.73c1.18-1.03,.84-.26,1.18-.95-.37-.27-.71-.15-.71-.15,0,0,.16-2.83-2.36-4.87-2.52-2.04-7.55-2.04-9.9,.79,0,0,.31,.63,1.89-.16Z"/>
              <polygon class="cls-6" points="333.18 237.69 332.08 241.15 351.57 236.12 350.63 233.91 347.17 233.6 333.18 237.69"/>
              <polyline class="cls-6" points="334.75 241.15 324.22 250.11 322.33 262.21"/>
              <path class="cls-6" d="M350.31,237.06s11.48,9.9,11.79,11.48c.31,1.57,3.3,14.3,3.3,14.3"/>
              <path class="cls-6" d="M352.04,246.65s-4.24,17.13-4.56,17.61"/>
              <line class="cls-6" x1="348.58" y1="255.29" x2="344.97" y2="261.58"/>
              <path class="cls-6" d="M328.15,249.79s6.6,6.76,6.92,12.26"/>
              <path class="cls-6" d="M325,226.06s-12.1,.47-12.1,4.09,11.32,3.77,11.32,3.77"/>
              <polygon class="cls-7" points="324.85 231.4 324.22 237.22 328.78 234.23 324.85 231.4"/>
            </g>
            <rect class="cls-6" x="306.76" y="214.37" width="74.63" height="49.54"/>
          </g>
          <g>
            <line class="cls-6" x1="371.7" y1="268.41" x2="379.69" y2="268.41"/>
            <line class="cls-6" x1="329.49" y1="268.41" x2="368.64" y2="268.41"/>
            <line class="cls-6" x1="307.95" y1="268.41" x2="327.15" y2="268.41"/>
            <line class="cls-6" x1="361.78" y1="272.28" x2="379.69" y2="272.28"/>
            <line class="cls-6" x1="342.84" y1="272.28" x2="359.62" y2="272.28"/>
            <line class="cls-6" x1="318.49" y1="272.28" x2="340.5" y2="272.28"/>
            <line class="cls-6" x1="307.95" y1="272.28" x2="316.87" y2="272.28"/>
            <line class="cls-6" x1="367.91" y1="276.16" x2="379.69" y2="276.16"/>
            <line class="cls-6" x1="324.44" y1="276.16" x2="364.67" y2="276.16"/>
            <line class="cls-6" x1="307.95" y1="276.16" x2="322.1" y2="276.16"/>
          </g>
          <circle class="cls-4" cx="307.48" cy="217.27" r="8.05" transform="translate(-32.03 54.54) rotate(-9.64)"/>
          <path class="cls-12" d="M305.54,221.7v-1.36l2.24-3.44c.17-.25,.33-.5,.48-.74,.15-.24,.27-.48,.37-.73,.1-.25,.14-.5,.14-.77s-.05-.47-.16-.6c-.11-.13-.25-.2-.44-.2-.21,0-.37,.06-.48,.17-.12,.12-.19,.27-.24,.46-.04,.19-.06,.41-.06,.65v.46h-1.87v-.5c0-.55,.09-1.05,.27-1.48,.18-.43,.46-.78,.84-1.03,.38-.25,.89-.37,1.51-.37,.84,0,1.47,.22,1.9,.65,.43,.43,.64,1.04,.64,1.82,0,.38-.06,.73-.18,1.05-.12,.32-.28,.64-.47,.94-.2,.3-.41,.62-.63,.95l-1.71,2.55h2.73v1.51h-4.88Z"/>
        </g>
      </g>
      <g>
        <path class="cls-3" d="M348.94,208.65c0-1.75-1.42-3.16-3.16-3.16s-3.16,1.42-3.16,3.16,1.42,3.16,3.16,3.16,3.16-1.42,3.16-3.16Z"/>
        <circle class="cls-3" cx="347.46" cy="207.43" r="3.16"/>
        <line class="cls-6" x1="343.07" y1="211.05" x2="342" y2="211.96"/>
      </g>
    </g>
    <g>
      <g>
        <rect class="cls-4" x="404.62" y="207.36" width="98.71" height="73.31"/>
        <g>
          <g>
            <g>
              <path class="cls-6" d="M472.07,241.47s.57-.71,1.43-1.85c.86-1.14,2.14-4.42,.86-7.99-1.28-3.57-4.28-.57-4.28-.57,0,0,0-.71-.43-3.71-.33-2.28-1.57-9.37-4.79-13.69h-27.22c-2.13,1.37-4.12,2.93-4.37,4.13-.57,2.71,.14,21.54,.57,23.54,.43,2,2,5.42,2.43,8.85,.43,3.42,1.71,11.98,1.71,11.98,0,0,5.71-3.57,20.69-6.85,14.98-3.28,19.97-3.57,19.97-3.57l-4.14-.86-2.43-9.42Z"/>
              <g>
                <path class="cls-7" d="M464.86,213.66h-5.19c1.89,3.32-1.14,6.13-1,8.84,.14,2.71,4.28,3.85,4.71,4.85,.43,1-.14,8.42,0,9.42,.14,1,2.28,0,3.42,0s1-.71,1.28-3c.29-2.28,2-2.71,2-2.71,0,0,0-.71-.43-3.71-.33-2.28-1.57-9.37-4.79-13.69Z"/>
                <path class="cls-7" d="M437.65,213.66c-.66,.42-1.31,.86-1.89,1.31,.03,.04,.05,.08,.08,.11,2,2.57,6.84,2.71,13.11-1.42h-11.3Z"/>
                <path class="cls-6" d="M470.08,231.06s.16-.14,.43-.36c-.26,.2-.43,.36-.43,.36Z"/>
              </g>
              <path class="cls-6" d="M445.68,231.34s1.85-2.71,3.42-1c1.57,1.71,1.71,3.28,1.71,3.28"/>
              <path class="cls-12" d="M450.96,233.48c0,1.34-.57,2.43-1.28,2.43s-1.28-1.09-1.28-2.43,.57-2.43,1.28-2.43,1.28,1.09,1.28,2.43Z"/>
              <path class="cls-6" d="M438.55,232.34s-.71,16.26-.71,17.26,10.56-2.85,10.56-2.85"/>
              <path class="cls-6" d="M441.83,249.32l.14,4.28,4.14-.29s-3.28,.57-3.42,1.57l-.14,1,.57,2.57"/>
              <path class="cls-6" d="M447.25,238.62s4.42,1.57,6.13,1.71"/>
              <path class="cls-6" d="M443.68,226.49s3.42-2,5.71-2,3.57,1.14,3.57,1.14"/>
              <path class="cls-6" d="M434.27,220.93s-1,6.85,0,7.7,2.85-.29,3.42,1l.57,1.28"/>
              <path class="cls-6" d="M456.1,263.01s16.83-4.99,27.39-6.99"/>
            </g>
            <rect class="cls-6" x="416.77" y="213.98" width="74.63" height="49.54"/>
          </g>
          <g>
            <line class="cls-6" x1="481.18" y1="268.41" x2="489.17" y2="268.41"/>
            <line class="cls-6" x1="438.97" y1="268.41" x2="478.11" y2="268.41"/>
            <line class="cls-6" x1="417.43" y1="268.41" x2="436.62" y2="268.41"/>
            <line class="cls-6" x1="471.26" y1="272.28" x2="489.17" y2="272.28"/>
            <line class="cls-6" x1="452.32" y1="272.28" x2="469.09" y2="272.28"/>
            <line class="cls-6" x1="427.97" y1="272.28" x2="449.97" y2="272.28"/>
            <line class="cls-6" x1="417.43" y1="272.28" x2="426.34" y2="272.28"/>
            <line class="cls-6" x1="477.39" y1="276.16" x2="489.17" y2="276.16"/>
            <line class="cls-6" x1="433.92" y1="276.16" x2="474.14" y2="276.16"/>
            <line class="cls-6" x1="417.43" y1="276.16" x2="431.57" y2="276.16"/>
          </g>
          <circle class="cls-4" cx="421.06" cy="217.27" r="8.05" transform="translate(-29.43 70.44) rotate(-9.24)"/>
          <path class="cls-12" d="M421.46,221.87c-.65,0-1.17-.12-1.54-.37-.37-.25-.64-.59-.8-1.03-.16-.44-.24-.95-.24-1.53v-.33h1.93v.33c0,.31,.02,.56,.06,.75,.04,.19,.11,.33,.21,.42s.24,.13,.42,.13,.31-.05,.4-.14c.09-.09,.15-.23,.18-.42,.03-.18,.05-.42,.05-.69,0-.46-.06-.81-.19-1.06-.13-.24-.39-.37-.79-.38h-.36v-1.33h.31c.41,0,.68-.11,.82-.33,.14-.22,.21-.57,.21-1.04,0-.36-.05-.64-.14-.83-.1-.19-.28-.29-.54-.29s-.42,.11-.5,.32c-.08,.22-.12,.49-.12,.83v.48h-1.93v-.57c0-.56,.1-1.04,.31-1.43,.2-.39,.5-.68,.88-.88,.38-.2,.84-.3,1.37-.3s1,.1,1.38,.29c.38,.19,.68,.48,.89,.85,.21,.37,.31,.84,.31,1.39s-.11,1-.33,1.37c-.22,.37-.49,.6-.81,.68,.22,.08,.41,.2,.58,.37,.17,.17,.31,.4,.41,.69,.1,.29,.15,.66,.15,1.1,0,.57-.08,1.07-.25,1.51-.17,.44-.44,.78-.81,1.03-.38,.25-.88,.38-1.5,.38Z"/>
        </g>
      </g>
      <g>
        <circle class="cls-3" cx="453.01" cy="206.76" r="3.16"/>
        <circle class="cls-3" cx="454.69" cy="205.54" r="3.16"/>
        <line class="cls-6" x1="450.3" y1="209.15" x2="449.23" y2="210.07"/>
      </g>
    </g>
    <g>
      <g>
        <rect class="cls-4" x="293.05" y="292.03" width="98.71" height="73.31"/>
        <g>
          <g>
            <g>
              <path class="cls-6" d="M379.13,302.9s-17.28,5.52-18.69,6.66c-1.42,1.13-14.87,8.36-15.72,10.2-.85,1.84-7.08,7.65-8.35,9.2s.42,3.82,2.27,4.81c1.84,.99,7.65,6.8,7.65,6.8,0,0,0,2.41,2.97,3.97s4.11,1.98,5.38,.85,2.12-2.69,2.12-2.69c0,0,.71-3.26,3.54-4.67s4.11-1.84,5.24-4.81c1.13-2.97,3.12-9.77,3.12-9.77l12.02-3.54"/>
              <path class="cls-6" d="M356.75,342.7s3.54,.57,4.81-.57,.85-4.96,.85-4.96"/>
              <path class="cls-6" d="M362.28,341.14s2.27,1.13,3.68-1.98c1.42-3.12-.42-5.95-.42-5.95"/>
              <path class="cls-6" d="M366.81,337.74s3.26-1.98,3.26-4.67-2.97-4.53-2.97-4.53c0,0,5.1,.28,6.09-1.56,.99-1.84,1.98-4.81,1.98-4.81"/>
              <path class="cls-6" d="M349.25,344.54s-2.41-2.69-1.13-4.53c1.27-1.84,2.97-3.97,3.68-6.37"/>
              <path class="cls-6" d="M354.06,333.92s-4.81-1.98-7.36-1.13"/>
              <path class="cls-6" d="M345.28,329.53s7.79,1.84,10.34,3.97"/>
              <path class="cls-6" d="M361.99,304.6s-9.63,6.66-15.44,10.62"/>
              <path class="cls-6" d="M348.96,310.69s-3.26,3.12-6.23,6.66"/>
              <path class="cls-6" d="M318.66,299.22s-4.53,7.36-4.25,8.5c.28,1.13,1.98,2.83,1.98,2.83l-4.25,16,6.94,.85s-3.12,3.68-2.69,4.53c.42,.85,.99,.71,1.56,1.13,0,0-2.27,1.27-2.27,2.41s2.83,2.12,3.26,2.12,1.42,8.35,1.56,9.2c.14,.85,.42,1.7,.42,1.7"/>
              <path class="cls-6" d="M318.66,308.99s.71-5.24,7.36-5.66"/>
              <path class="cls-6" d="M319.93,311.54s2.12-2.55,5.81-1.84"/>
              <path class="cls-6" d="M320.22,312.67s1.7,2.27,5.95,2.41"/>
              <path class="cls-7" d="M336.67,300.02s-7.67,1.47-5.41,3.31c2.27,1.84,6.09,2.83,6.51,3.97s.85,5.66,.57,9.06c-.28,3.4,.71,4.11,1.84,3.54,1.13-.57,1.27-9.06,4.96-12.04s5.52,2.55,5.52,2.97,7.84-10.16,7.84-10.16"/>
              <line class="cls-6" x1="331.83" y1="348.79" x2="344.72" y2="342.41"/>
            </g>
            <rect class="cls-6" x="307.01" y="299.37" width="74.63" height="49.54"/>
          </g>
          <g>
            <line class="cls-6" x1="371.7" y1="353.31" x2="379.69" y2="353.31"/>
            <line class="cls-6" x1="329.49" y1="353.31" x2="368.64" y2="353.31"/>
            <line class="cls-6" x1="307.95" y1="353.31" x2="327.15" y2="353.31"/>
            <line class="cls-6" x1="361.78" y1="357.18" x2="379.69" y2="357.18"/>
            <line class="cls-6" x1="342.84" y1="357.18" x2="359.62" y2="357.18"/>
            <line class="cls-6" x1="318.49" y1="357.18" x2="340.5" y2="357.18"/>
            <line class="cls-6" x1="307.95" y1="357.18" x2="316.87" y2="357.18"/>
            <line class="cls-6" x1="367.91" y1="361.06" x2="379.69" y2="361.06"/>
            <line class="cls-6" x1="324.44" y1="361.06" x2="364.67" y2="361.06"/>
            <line class="cls-6" x1="307.95" y1="361.06" x2="322.1" y2="361.06"/>
          </g>
          <circle class="cls-4" cx="307.48" cy="302.63" r="8.05" transform="translate(-95.83 455.82) rotate(-65.34)"/>
          <path class="cls-12" d="M308.04,307.06v-2.1h-2.87v-1.42l2.44-5.83h2.24v5.82h.87v1.43h-.87v2.1h-1.8Zm-1.41-3.53h1.41v-3.89l-1.41,3.89Z"/>
        </g>
      </g>
      <g>
        <circle class="cls-3" cx="346.73" cy="292.45" r="3.16"/>
        <circle class="cls-3" cx="348.4" cy="291.23" r="3.16"/>
        <line class="cls-6" x1="344.02" y1="294.84" x2="342.95" y2="295.75"/>
      </g>
    </g>
    <g>
      <g>
        <rect class="cls-4" x="406.2" y="292.03" width="98.71" height="73.31"/>
        <g>
          <g>
            <path class="cls-7" d="M428.67,340.08l-5.23,9.07h5.53l4.41-7.03,1.41,.63,2.2-3.62,.47-1.73,2.04-2.2-2.4,13.95h36.67l-2.04-8.76s1.73,1.89,2.2,2.2,3.77-.63,3.77-.63c0,0,2.36,1.89,3.93,.16,1.57-1.73,5.34-19.96,5.66-21.69,.31-1.73,.94-3.93,.94-5.19s-1.73-2.83-3.3-3.46c-1.57-.63-3.3-.31-3.62,.94-.31,1.26-1.73,.31-2.2,1.89-.47,1.57-.47,2.36,0,2.83s2.99,3.62,2.99,3.62c0,0-2.67,8.02-2.83,8.96s-1.57,2.83-1.57,2.83l-1.1-1.73-1.26-.31s-2.52-10.69-2.99-11.32c-.47-.63-7.39-.16-7.39-.16,0,0,2.67-1.89,2.67-2.36s-5.34-2.2-5.34-2.2l.16-1.89s2.2-.79,2.36-1.73-.16-2.83-.16-2.83l-1.26-1.1s.31-5.82,.16-6.45c-.16-.63,1.89-.16,1.73-1.41s-4.56-2.83-8.96-.94c0,0-2.67-.16-4.4,1.89-1.73,2.04-2.2,2.83-2.04,3.93,.16,1.1,.16,2.83,.16,2.83,0,0-.63-1.73-1.26,0-.63,1.73-.47,2.83,0,3.46,.47,.63,1.73,.94,1.73,.94l-.31,2.83s-3.62-.79-3.3,0c.31,.79,2.99,2.67,2.99,2.67,0,0-8.33-1.73-9.27,.16s-8.49,16.19-8.49,16.19c0,0-1.1-.47-1.73,.16s-3.77,5.03-3.14,5.66c.63,.63,1.41,.94,1.41,.94Z"/>
            <rect class="cls-6" x="419.48" y="299.62" width="74.63" height="49.54"/>
            <polyline class="cls-6" points="421.9 316.29 442.67 309.58 422.33 310.66"/>
            <polyline class="cls-6" points="422.12 306.12 441.59 307.2 428.17 302.44"/>
            <polyline class="cls-6" points="479.66 302.66 467.11 307.85 487.88 304.18"/>
            <polyline class="cls-6" points="490.26 310.66 469.27 312.61 491.99 316.07"/>
          </g>
          <g>
            <line class="cls-6" x1="483.55" y1="353.56" x2="491.54" y2="353.56"/>
            <line class="cls-6" x1="441.34" y1="353.56" x2="480.49" y2="353.56"/>
            <line class="cls-6" x1="419.8" y1="353.56" x2="439" y2="353.56"/>
            <line class="cls-6" x1="473.63" y1="357.44" x2="491.54" y2="357.44"/>
            <line class="cls-6" x1="454.69" y1="357.44" x2="471.47" y2="357.44"/>
            <line class="cls-6" x1="430.34" y1="357.44" x2="452.35" y2="357.44"/>
            <line class="cls-6" x1="419.8" y1="357.44" x2="428.72" y2="357.44"/>
            <line class="cls-6" x1="479.76" y1="361.31" x2="491.54" y2="361.31"/>
            <line class="cls-6" x1="436.29" y1="361.31" x2="476.52" y2="361.31"/>
            <line class="cls-6" x1="419.8" y1="361.31" x2="433.95" y2="361.31"/>
          </g>
          <circle class="cls-4" cx="423.43" cy="302.48" r="8.05"/>
          <path class="cls-12" d="M423.54,307.48c-.68,0-1.2-.12-1.55-.36-.35-.24-.59-.58-.71-1.02-.12-.44-.18-.95-.18-1.52h1.86c0,.35,.02,.64,.06,.87,.04,.22,.11,.38,.21,.48s.25,.14,.44,.13c.2,0,.34-.09,.43-.24,.08-.15,.14-.38,.16-.66,.02-.29,.03-.64,.03-1.04,0-.31-.02-.58-.05-.82-.03-.24-.1-.43-.21-.57-.1-.14-.26-.21-.47-.21-.19,0-.35,.07-.47,.21-.12,.14-.21,.35-.27,.65h-1.66l.17-5.39h4.36v1.62h-2.82l-.1,1.93c.08-.11,.22-.2,.44-.28,.22-.08,.45-.13,.69-.16,.48-.05,.88,.03,1.21,.26,.33,.23,.57,.57,.74,1.03,.17,.46,.25,1.03,.25,1.7,0,.5-.03,.96-.09,1.38-.06,.42-.18,.78-.36,1.09s-.43,.54-.77,.71c-.34,.17-.78,.25-1.33,.25Z"/>
        </g>
      </g>
      <g>
        <circle class="cls-3" cx="456.41" cy="290.99" r="3.16"/>
        <circle class="cls-3" cx="458.08" cy="289.77" r="3.16"/>
        <line class="cls-6" x1="453.7" y1="293.38" x2="452.63" y2="294.3"/>
      </g>
    </g>
  </g>
  <g id="Plant">
    <g>
      <g>
        <path class="cls-12" d="M607.3,411.9c.06,1.43,.17,2.85,.26,4.28,.22,2.85,.39,19.29,.65,22.13,.05,.48,.11,.95,.16,1.42h1.95c0-.52-.02-1.03-.01-1.55,.01-2.84-.06-19.26-.09-22.1l-.08-4.25,.08-4.25,.04-8.5,.23-8.49,.09-4.25c.05-1.42,.16-2.83,.24-4.24l.52-8.49c.99-11.3,2.55-22.55,4.81-33.68,2.26-11.11,5.05-22.19,9.2-32.77h0c.03-.08,0-.17-.08-.2-.08-.03-.16,0-.2,.08-4.54,10.48-7.73,21.48-10.39,32.57-2.57,11.13-4.43,22.41-5.73,33.77l-.81,8.53c-.13,1.42-.28,2.85-.38,4.27l-.23,4.28c-.12,2.86-.3,5.71-.38,8.57l.08,8.58,.1,4.29Z"/>
        <path class="cls-12" d="M617.34,439.74c.21-2.79,.42-19.18,.61-21.97,.53-7.42,.6-14.86,1.08-22.29,.45-7.4,1.38-14.77,2.65-22.1,1.25-7.33,2.81-14.62,4.86-21.78,.02-.08-.02-.16-.09-.19-.08-.03-.16,.01-.19,.09-2.45,7.06-4.4,14.29-6.05,21.59-1.58,7.31-2.82,14.72-3.57,22.18-.75,7.44-1.59,14.88-1.69,22.36-.04,2.84-.03,19.26,.01,22.1h2.38Z"/>
        <path class="cls-12" d="M623.3,439.74l.29-16.9c.75-7.16,1.21-14.37,2.74-21.37,.2-.87,.45-1.72,.67-2.59,.22-.86,.44-1.73,.76-2.55l.88-2.5,1.13-2.37c1.67-3.13,3.71-6.12,5.9-8.96,4.4-5.68,9.58-10.85,15.47-15.06h0c.06-.05,.08-.14,.04-.21-.04-.07-.14-.09-.21-.05-6.17,3.9-11.67,8.82-16.47,14.36-2.36,2.81-4.56,5.76-6.44,8.96l-1.32,2.5-1.04,2.6c-.37,.86-.63,1.75-.9,2.63-.27,.89-.56,1.77-.8,2.66-1.85,7.14-3.08,14.42-3.41,21.73-.05,1.17-.08,15.94-.1,17.11h2.81Z"/>
        <path class="cls-12" d="M628.54,439.74c.23-1.61,.44-16.8,.56-18.42,.26-1.88,.4-3.8,.81-5.65,.66-3.76,1.75-7.42,3.21-10.93,1.46-3.48,3.36-6.94,6.29-9.39l.02-.02c.06-.05,.07-.13,.03-.19-.04-.07-.14-.09-.21-.04-3.36,2.17-5.6,5.58-7.49,9.01-1.8,3.51-3.22,7.22-4.2,11.03-.3,.94-.53,1.9-.73,2.86l-.68,2.88c-.31,1.75-.55,17.11-.68,18.88h3.05Z"/>
        <path class="cls-12" d="M598.43,388.46c1.18,9.54,2.09,19.11,3.29,28.64l1.11,22.64h2.53c-.18-3.13-.42-19.83-.66-22.96-.81-9.62-2.4-19.14-3.9-28.66-1.5-9.52-3.16-19.01-4.9-28.48-1.8-9.46-3.69-18.91-5.73-28.32-.02-.08-.09-.13-.17-.12-.08,.01-.14,.09-.12,.17,1.65,9.48,3.14,18.99,4.54,28.51,1.44,9.51,2.8,19.03,4.01,28.57Z"/>
        <path class="cls-12" d="M574.58,352.88c2.63,2.73,4.55,6.09,6.35,9.41,.84,1.71,1.72,3.39,2.44,5.16l1.13,2.62,1,2.67c2.66,7.12,4.8,14.44,6.41,21.88,.88,3.7,1.46,7.47,2.17,11.2l.9,5.64c.33,1.87,.73,3.74,.99,5.62,.48,3.02,1.02,19.63,1.56,22.65h2.35c-.24-3.17-.6-19.93-.94-23.1-.51-3.81-1.21-7.6-1.94-11.37l-1.35-5.62c-.44-1.87-.86-3.75-1.41-5.6-1.92-7.45-4.37-14.78-7.35-21.87l-1.15-2.65-1.28-2.59c-.82-1.74-1.8-3.41-2.74-5.09-2.01-3.28-4.1-6.55-6.94-9.2-.06-.05-.15-.05-.21,0-.06,.06-.06,.15,0,.21v.02Z"/>
        <path class="cls-12" d="M583.51,402.9c1.95,4.92,3.71,9.91,5.19,14.98,.81,2.74,1.5,19.09,2.17,21.86h3.13c-.9-3.04-1.98-19.62-3.03-22.6-1.78-5.05-3.84-9.99-6.09-14.83-2.31-4.82-4.8-9.54-7.66-14.05-.04-.06-.13-.09-.2-.05-.07,.04-.1,.13-.05,.21,2.5,4.68,4.62,9.55,6.54,14.48Z"/>
        <path class="cls-12" d="M571.8,412.73c2.88,1.28,5.32,3.41,7.38,5.73,2.06,2.3,3.71,18.53,5.09,21.28h2.8c-.22-.36-.43-.73-.66-1.09-1.74-2.79-3.75-19.01-6.16-21.24-1.24-1.08-2.51-2.11-3.92-2.96-1.38-.87-2.85-1.6-4.45-2.01-.07-.02-.14,.02-.17,.08-.03,.08,0,.16,.08,.2h.02Z"/>
      </g>
      <path class="cls-10" d="M591.24,345.09s-15.76-3.64-19.4-20.61c-3.64-16.97,8.08-9.7-2.43-36.37-10.51-26.67-8.08-32.74-4.45-40.42,3.64-7.68,5.66-5.25,8.89,4.85,3.23,10.1,14.95,25.87,19.4,55.37,4.45,29.5-2.02,37.18-2.02,37.18Z"/>
      <path class="cls-10" d="M622.36,316.4s-10.51-3.64-10.91-23.44c-.4-19.8,7.68-15.76,8.89-40.42,1.21-24.65,2.83-42.03,7.27-42.44,4.45-.4,16.17,12.12,20.21,39.61,4.04,27.48-5.25,45.67-13.34,53.75-8.08,8.08-12.12,12.93-12.12,12.93Z"/>
      <path class="cls-10" d="M585.59,368.94s-2.42-14.55-7.27-21.42c-4.85-6.87-15.36-12.93-22.23-26.27-6.87-13.34-14.55-19.8-14.15-.81,.4,19,8.89,28.7,19.4,35.16,10.51,6.47,24.25,13.34,24.25,13.34Z"/>
      <path class="cls-10" d="M581.14,393.99s-9.7-18.59-23.85-32.33c-14.15-13.74-25.46-20.61-21.42-13.74,4.04,6.87,8.89,6.47,15.76,18.59,6.87,12.12,4.85,21.02,14.55,27.89,9.7,6.87,14.95-.4,14.95-.4Z"/>
      <path class="cls-10" d="M579.93,417.84c-.4-1.21-.81-10.1-14.55-17.38-13.74-7.27-26.67-4.45-25.06-.81,1.62,3.64,10.1,9.7,18.59,13.34,8.49,3.64,21.02,4.85,21.02,4.85Z"/>
      <path class="cls-10" d="M621.56,369.75s-6.06-7.68-2.83-23.85c3.23-16.17,10.51-12.13,18.59-20.61,8.08-8.49,6.47-9.7,14.55-18.59,8.08-8.89,15.36-13.74,18.59-10.1,3.23,3.64-1.62,14.95-6.47,21.42-4.85,6.47-12.53,9.7-16.17,17.78-3.64,8.08-2.02,21.02-11.32,27.08-9.3,6.06-14.95,6.87-14.95,6.87Z"/>
      <path class="cls-10" d="M641.76,374.19s14.55-16.57,25.06-28.7c10.51-12.12,14.55-21.42,14.95-13.34,.4,8.08,3.64,14.55-4.85,25.06-8.49,10.51-35.16,16.97-35.16,16.97Z"/>
      <path class="cls-10" d="M634.09,400.87s-.4-6.47,22.63-21.42c23.04-14.95,32.74-17.78,30.31-11.72-2.42,6.06-12.53,12.12-23.44,23.04-10.91,10.91-29.5,10.1-29.5,10.1Z"/>
      <path class="cls-6" d="M592.21,343.37s-5.41-28.99-11.07-49.61c-5.66-20.61-9.3-33.14-9.3-33.14"/>
      <path class="cls-6" d="M621.43,316.7s9.82-31.43,13.06-50.42c3.23-19-.4-33.14-2.02-41.63"/>
      <path class="cls-6" d="M584.31,368.33s-6-10.71-14.89-21.22c-8.89-10.51-15.76-16.17-19.8-26.27"/>
      <path class="cls-6" d="M621.56,369.75s3.23-19.4,10.91-29.5c7.68-10.1,23.04-25.87,29.1-35.97"/>
      <path class="cls-6" d="M578.98,417.4s-13.6-8.85-23.3-13.7"/>
    </g>
  </g>
  <g id="Character">
    <g>
      <g>
        <path class="cls-2" d="M301.52,290.54s6.11-8.88,6.39-10.55,.28-8.88,1.94-13.33c1.67-4.44,5-7.22,5.83-11.66s1.67-5.83,3.89-3.05c2.22,2.78,1.39,10.83,.56,12.49-.83,1.67,10.83-8.88,14.71-11.94,3.89-3.05,13.6-8.88,14.71-6.39,1.11,2.5-1.94,4.72-3.89,6.11-1.94,1.39-9.16,7.5-9.16,7.5l-.83,1.94s7.22-4.16,10.55-6.94c3.33-2.78,8.88-4.72,11.66-5,2.78-.28,4.16,2.5-.28,5.83-4.44,3.33-11.11,7.5-12.49,8.61-1.39,1.11-6.94,5.83-6.94,5.83,0,0,10.55-3.61,14.44-5.83,3.89-2.22,7.22-3.89,8.33-1.94,1.11,1.94-.83,3.33-4.72,5.27-3.89,1.94-13.6,7.5-13.6,7.5,0,0,9.99-1.39,13.05-1.94,3.05-.56,5.83,1.94,2.5,4.16-3.33,2.22-14.44,4.44-15.27,5-.83,.56-11.66,9.16-17.49,10.83-5.83,1.67-8.33,2.78-8.33,2.78,0,0-4.44,5-5.27,5.83-.83,.83-10.27-11.11-10.27-11.11Z"/>
        <path class="cls-6" d="M320.12,264.45l1.39,6.66s2.5,5.27,.56,8.61c-1.94,3.33-3.89,5-3.89,5"/>
        <line class="cls-6" x1="334.01" y1="265.84" x2="341.5" y2="275.83"/>
      </g>
      <path class="cls-4" d="M291.81,298.87s9.16-9.99,10.27-10.83c1.11-.83,12.22,12.22,12.77,13.6,.56,1.39-9.72,11.94-9.72,11.94,0,0-11.66-9.16-13.33-14.71Z"/>
      <path class="cls-3" d="M228.51,271.39s11.11,17.21,13.33,25.54,8.61,32.48,8.61,32.48c0,0,14.44-10.83,20.82-16.38,6.39-5.55,17.21-14.71,19.71-17.77,2.5-3.05,6.94,5.27,10.55,8.61,3.61,3.33,11.66,7.22,8.33,14.44-3.33,7.22-25.24,41.52-41.62,53.46-16.38,11.94-18.07,12.34-24.45,13.73-6.39,1.39-12.22,1.67-20.82-8.88-8.61-10.55-10.27-58.86-13.88-84.4-3.61-25.54,4.72-25.54,8.33-24.71s11.11,3.89,11.11,3.89Z"/>
      <path class="cls-7" d="M228.94,365.18s7.48,19.45,14.84,20.31c0,0-12.11,2.29-16.38-6.11l1.54-14.21Z"/>
      <path class="cls-3" d="M232.67,322.19c-.28,17.49-5.27,49.42-5.27,57.19s-1.94,60.25-1.94,60.25H107.07s1.04-27.49-.62-44.7c-1.67-17.21-2.32-123.82-.1-129.38,2.22-5.55,46.36-22.49,46.36-22.49,0,0,25.54,.83,37.76,4.16,12.22,3.33,21.93,11.66,26.93,15.55,5,3.89,14.71,8.88,16.66,18.05"/>
      <g>
        <path class="cls-6" d="M181.63,426.14c-2.25,1.37-4.53,2.59-6.8,3.63"/>
        <path class="cls-6" d="M223.22,386.22s-16.21,21.8-35.35,35.75"/>
        <path class="cls-6" d="M204.3,415.69s-18.47,14.08-28.15,18.91"/>
      </g>
      <path class="cls-4" d="M148.27,243.35s1.39,12.49,5.83,26.37c4.44,13.88,6.94,19.99,6.94,19.99,0,0,10.27-11.11,13.33-13.05,3.05-1.94,4.72-3.05,4.72-3.05l12.77-1.67s5.83,3.05,9.16,4.44c3.33,1.39,8.61,5.83,10.55,3.61,1.94-2.22-2.5-6.11-6.11-18.88-3.61-12.77-8.88-17.21-15.27-25.54-6.39-8.33-19.43-9.72-22.77-7.5-3.33,2.22-14.44,6.66-19.16,15.27Z"/>
      <g>
        <path class="cls-2" d="M167.85,200.18s-4.95-15.95,1.1-29.71c6.05-13.75,22.28-23.38,43.18-21.73s33.56,16.5,34.93,29.71c1.38,13.2-.83,18.98-1.93,22.28-1.1,3.3-7.7,13.2-7.7,18.98s-1.1,11.83-4.68,16.5c-3.58,4.68-9.63,13.2-13.75,15.68-4.13,2.48-9.63,2.75-12.1,2.48l-2.48-.28s-5.78,5.78-7.15,8.8c-1.38,3.03-6.6,22.28-7.43,25.03-.83,2.75-10.45-12.38-12.38-17.05-1.93-4.68-8.25-20.08-9.9-27.5s-2.2-10.18-2.2-10.18c0,0,6.33-17.05,6.6-22.83,.28-5.78-4.13-10.18-4.13-10.18Z"/>
        <path class="cls-12" d="M211.49,201.93c-.26,1.83-1.5,3.17-2.76,2.99s-2.07-1.81-1.81-3.64c.26-1.83,1.5-3.17,2.76-2.99s2.07,1.81,1.81,3.64Z"/>
        <path class="cls-12" d="M234.41,210.36c-.26,1.83-1.5,3.17-2.76,2.99s-2.07-1.81-1.81-3.64c.26-1.83,1.5-3.17,2.75-2.99s2.07,1.81,1.81,3.64Z"/>
        <path class="cls-6" d="M226.28,221.61s-.16,6.73-5.62,4.7"/>
        <path class="cls-6" d="M217.63,224.11s.28-.55-1.93-.28c-2.2,.28-3.03-1.93-.83-4.68"/>
        <path class="cls-6" d="M206.25,228.51s7.39,6.57,15.11,6.08"/>
        <path class="cls-6" d="M231.37,203.55s-6.73,3.45-6.57,10.35"/>
        <path class="cls-6" d="M220.7,193.86s-5.91-6.08-12.81-4.76"/>
        <path class="cls-6" d="M235.64,201.58s5.58-.49,6.9,2.96"/>
        <ellipse class="cls-6" cx="209.69" cy="202.97" rx="12.64" ry="12.4"/>
        <ellipse class="cls-6" cx="236.98" cy="214.19" rx="11.36" ry="11.14"/>
        <line class="cls-6" x1="199.84" y1="195.17" x2="178.49" y2="190.9"/>
        <path class="cls-6" d="M222.34,202.97s5.3-.33,6.4,3.2"/>
        <line class="cls-6" x1="248.28" y1="216.35" x2="239.09" y2="213.23"/>
        <path class="cls-7" d="M207.72,162.66c18.77-5.75,31.25,3.15,39.39,16.4-.02-.21-.03-.4-.06-.61-1.38-13.2-14.03-28.05-34.93-29.71-20.9-1.65-37.13,7.98-43.18,21.73-6.05,13.75-1.1,29.71-1.1,29.71,0,0,2.75,2.76,3.76,6.77,3.21-1.51,6.09-4.79,6.89-12.76,0,0,6.73,1.81,7.88-.16,1.15-1.97,.16-.49,3.12-6.57s10.18-4.93,11.66-9.69c1.48-4.76-13.79-8.87,6.57-15.11Z"/>
        <path class="cls-2" d="M182.15,196.6s-2.75-10.18-9.35-6.88c-6.6,3.3-7.43,10.73-4.4,17.88s6.05,11,10.45,8.8"/>
        <path class="cls-7" d="M204.43,254.09s-4.79-.07-9.73-5.84-8.86-13.39-8.86-13.39c0,0-.62,15.04,2.47,22.46s7.99,7.58,7.99,7.58l.98-2,7.15-8.8Z"/>
      </g>
      <g>
        <path class="cls-2" d="M171.87,324.14l13.33-12.77s11.11-18.6,12.49-21.1c1.39-2.5,6.94-9.72,8.33-14.71,1.39-5,3.61-3.89,4.44-.83s-.28,7.77-.28,7.77c0,0,8.33-5.55,12.49-8.05,4.16-2.5,10.83-2.5,12.77-2.5s4.16,.83,3.33,2.22c-.83,1.39-5.55,1.11-8.05,2.78-2.5,1.67-7.22,3.33-8.88,4.44-1.67,1.11-7.22,6.66-7.22,6.66,0,0,14.44-6.94,16.38-7.77s9.16-1.67,13.05-1.94c3.89-.28,3.33,3.05,.83,4.16-2.5,1.11-9.44,3.61-11.38,3.89-1.94,.28-12.49,8.33-12.49,8.33,0,0,11.66-3.33,13.88-3.61,2.22-.28,11.38-1.39,12.49,0,1.11,1.39,1.11,3.33-2.5,4.44-3.61,1.11-10.83,2.5-10.83,2.5l-10.27,4.16h10.27c3.05,0,9.99-1.11,10.27,1.11,.28,2.22-.56,2.78-2.5,3.33-1.94,.56-19.16,3.05-20.27,3.33s-7.77,10.83-15.55,15.55c-7.77,4.72-16.66,7.22-16.66,7.22l-10.27,7.5s-3.61-14.16-7.22-16.1Z"/>
        <path class="cls-6" d="M210.18,282.49s-7.77,5.55-11.66,9.99"/>
      </g>
      <path class="cls-4" d="M159.33,328.37l12.88-7.39s2.28,.2,4.81,3.73c2.53,3.53,4.7,11.9,5.18,14.92,.48,3.02-10.43,8.69-10.43,8.69,0,0-4.92-13.27-12.45-19.95Z"/>
      <path class="cls-3" d="M129.39,254.45s-30.82,9.72-33.32,14.16c-2.5,4.44-4.44,43.59-5.55,71.91-1.11,28.32-.83,37.76,2.5,42.48,3.33,4.72,15.27,14.16,24.99,9.99,9.72-4.16,27.49-20.54,36.09-26.65,8.61-6.11,19.16-14.44,19.43-20.54,.28-6.11-3.61-13.33-6.11-16.66-2.5-3.33-5.83-5.55-9.99-4.72-4.16,.83-27.21,11.66-27.21,11.66l-.28-39.42"/>
      <line class="cls-6" x1="109.97" y1="345.3" x2="105.24" y2="347.46"/>
      <line class="cls-6" x1="130.23" y1="336.08" x2="113.55" y2="343.67"/>
      <path class="cls-6" d="M247.37,338.58c-.51,1.87-.93,3.74-1.1,5.27"/>
      <path class="cls-6" d="M250.44,329.41s-.99,2.52-2.02,5.68"/>
    </g>
  </g>
  <g id="Line">
    <line class="cls-5" x1="52.08" y1="439.63" x2="699.21" y2="439.63"/>
  </g>
</svg>