<svg xmlns="http://www.w3.org/2000/svg" viewBox="0 0 28 55"><defs><style>.cls-1{fill:#fff;}</style></defs><g id="Camada_2" data-name="Camada 2"><g id="Camada_1-2" data-name="Camada 1"><g id="Icons"><g id="touchscreen"><path class="cls-1" d="M5.5,18.92V17.78a9,9,0,1,1,12.1-3,5,5,0,0,1,.89.45,10,10,0,1,0-13,3.66Z"/><path class="cls-1" d="M14.5,15.34a7,7,0,1,0-9,0V14a6,6,0,1,1,9,0Z"/><path class="cls-1" d="M10,8a2,2,0,0,1,2,2V22.5a.5.5,0,0,0,1,0v-1a2,2,0,0,1,4,0v1a.5.5,0,0,0,1,0V22a2,2,0,0,1,4,0v1.5a.5.5,0,0,0,.5.5.47.47,0,0,0,.5-.5,2,2,0,0,1,4,0V34a11.54,11.54,0,0,1-.79,3.84L24,43H9.93L5.62,38.79A6.48,6.48,0,0,1,4.71,37L3.79,34a6.18,6.18,0,0,1-.21-2l.34-4.5a3.22,3.22,0,0,1,.79-1.71L7,23.5V31l1-1V10a2,2,0,0,1,2-2m0-1a3,3,0,0,0-3,3V22.09l-.71.7L4,25.09a4.08,4.08,0,0,0-1.07,2.33l-.35,4.51a7.49,7.49,0,0,0,.25,2.31l.93,3.09A7,7,0,0,0,4.83,39.4l0,.05,0,0,4.31,4.22.29.28H24.66l.26-.61,2.21-5.16A12.47,12.47,0,0,0,28,34V23.5a3,3,0,0,0-5.07-2.17,3,3,0,0,0-5.27-1.21A3,3,0,0,0,15,18.5a3,3,0,0,0-2,.77V10a3,3,0,0,0-3-3Z"/><path class="cls-1" d="M26,43v4H7V43Zm-1,3V44H8v2Z"/><polygon class="cls-1" points="5 46 5 55 6 55 6 47 26 47 26 55 27 55 27 46 5 46"/></g></g></g></g></svg>