<?xml version="1.0" encoding="UTF-8"?><svg id="Camada_2" xmlns="http://www.w3.org/2000/svg" viewBox="0 0 689.75 246.71"><defs><style>.cls-1{fill:#fff;}.cls-2{fill:#ff004a;}.cls-3{fill:#00ab97;}.cls-4{fill:#0e5a91;}.cls-5{fill:#ffbd00;}</style></defs><g id="Camada_1-2"><g><ellipse class="cls-4" cx="65.96" cy="66.87" rx="65.96" ry="66.87"/><ellipse class="cls-2" cx="183.23" cy="81.46" rx="43.57" ry="44.17"/><ellipse class="cls-5" cx="100.9" cy="225.99" rx="20.43" ry="20.72"/><circle class="cls-3" cx="133.76" cy="162.52" r="42.2"/><g><path class="cls-1" d="M382.98,70.99h.22c10.37,0,19.31,3.36,26.81,10.09,2.35,2.29,3.9,4.05,4.63,5.26,.66,.86,1.07,1.5,1.21,1.93l-7.72,3.98c-2.06-3.29-5.08-6.19-9.05-8.7-4.85-2.72-10.19-4.08-16-4.08-8.09,0-14.74,2.08-19.96,6.24-2.06,1.86-3.27,3.19-3.64,3.98-2.13,3.08-3.2,6.23-3.2,9.45v.75c0,4.58,2.25,8.2,6.73,10.85,2.28,1.43,5.59,2.86,9.93,4.29,5.59,1.72,12.83,3.4,21.73,5.04,3.46,.93,6.29,1.93,8.5,3,1.84,.86,3.75,2.04,5.74,3.54,1.84,1.5,3.31,2.94,4.41,4.3,3.61,4.65,5.41,9.77,5.41,15.36,0,6.37-2.24,12.28-6.72,17.73-1.84,2.01-3.24,3.33-4.19,3.98-2.5,1.79-4.63,3.08-6.4,3.87-6.03,2.8-12.43,4.19-19.19,4.2-9.19,0-17.51-2.5-24.93-7.51-1.32-.93-3.13-2.47-5.41-4.62l-1.44-1.5c-2.13-2.58-3.68-4.72-4.64-6.44-.44-.71-.81-1.4-1.1-2.04,2.72-1.43,5.29-2.69,7.72-3.76,3.83,7.23,9.53,12.28,17.1,15.14,4.19,1.5,8.42,2.25,12.69,2.25,6.69,0,12.8-1.65,18.31-4.95,3.82-2.36,6.58-5.7,8.27-9.99,.81-2.08,1.21-4.08,1.21-6.02v-.64c0-4.37-1.81-8.31-5.41-11.81-2.72-2.29-5.89-4.01-9.49-5.15-1.62-.43-5.26-1.18-10.92-2.25-10.89-2.43-18.53-4.86-22.95-7.29-9.12-4.44-13.68-11.09-13.69-19.97,0-6.52,2.42-12.43,7.27-17.73,1.98-2,3.53-3.33,4.63-3.98,6.54-4.51,14.37-6.77,23.49-6.78Z"/><path class="cls-1" d="M517.73,90.16c-.7-.98-2.35-2.77-4.95-5.37-3.09-2.81-5.73-4.84-7.9-6.11-8.08-4.98-17.21-7.47-27.39-7.47-1.76,.07-3.27,.14-4.53,.21-4,.7-6.81,1.3-8.43,1.79-2.18,.63-4.36,1.55-6.53,2.74-1.55,.84-3.37,2.07-5.48,3.69-.63,.35-2.21,1.86-4.74,4.53v-10.71s-20.23,0-20.23,0l-.11,.11,.05,127.83,.11,.11h20.23s-.01-38.65-.01-38.65l1.05,1.16c2.32,2.18,4.14,3.72,5.48,4.63,7.17,5.05,15.17,7.58,24.02,7.58,12.15,0,23.14-4.12,32.97-12.34l1.9-1.58c2.74-2.88,4.56-4.99,5.48-6.32,7.16-9.84,10.74-20.55,10.73-32.14,0-9.76-2.4-18.86-7.17-27.28-1.34-2.11-2.85-4.25-4.53-6.42Zm-10.1,43.3c-1.19,4.21-3.47,8.29-6.84,12.22-1.83,1.9-3.23,3.2-4.21,3.9-5.55,4.22-11.45,6.33-17.7,6.33h-1.37c-3.51,0-7.48-.94-11.91-2.84-1.26-.7-2.74-1.61-4.43-2.74-.84-.49-2.35-1.82-4.53-4-1.97-2.25-3.48-4.14-4.53-5.69-.99-1.82-1.9-3.9-2.74-6.21-1.05-3.72-1.58-6.57-1.58-8.53v-4.21c0-1.54,.35-3.93,1.05-7.16,.77-2.18,1.47-3.93,2.11-5.27,.63-1.26,1.47-2.7,2.53-4.32,.56-1.05,2.11-2.85,4.63-5.37,2.67-2.39,5.09-4.07,7.27-5.06,4.42-1.97,8.5-2.95,12.22-2.95h.84c6.81,0,13.03,2.21,18.65,6.63,.49,.28,1.86,1.62,4.11,4,5.27,6.32,7.91,13.48,7.91,21.49,0,3.3-.49,6.57-1.47,9.8Z"/><path class="cls-1" d="M686.05,104c-2.04-5.69-5.48-11.23-10.33-16.64-2.46-2.53-4.36-4.28-5.69-5.26-9.48-7.37-19.95-11.05-31.4-11.05-10.25,0-19.7,2.96-28.34,8.86-1.47,.91-3.93,2.95-7.37,6.11-2.39,2.6-4.18,4.74-5.37,6.43-1.54,2.25-2.88,4.46-4,6.64-3.93,7.94-5.89,15.84-5.89,23.71v1.58c0,7.23,1.66,14.5,4.96,21.8,.98,2.11,2.18,4.28,3.58,6.53,1.26,1.97,2.63,3.79,4.11,5.48,1.19,1.62,3.16,3.58,5.9,5.9,1.33,1.12,2.84,2.32,4.53,3.58,8.78,5.62,17.95,8.42,27.5,8.42h.95c9.06,0,17.77-2.54,26.12-7.6,1.68-1.05,3.48-2.35,5.37-3.9,1.69-1.26,3.9-3.48,6.63-6.64,2.53-3.16,4.53-6.08,6-8.75,4.28-8.15,6.42-16.65,6.42-25.5,0-6.81-1.23-13.38-3.69-19.7Zm-17.81,19.8c0,5.34-1.38,10.5-4.15,15.5-.95,1.82-2.6,3.99-4.96,6.49-5.94,5.81-12.76,8.72-20.46,8.72-6.28,0-12.09-2.02-17.43-6.07-1.15-.74-2.77-2.29-4.86-4.66-4.8-6.01-7.2-12.7-7.2-20.06,0-6.82,1.95-12.97,5.87-18.44,.54-1.01,1.86-2.57,3.95-4.66,5.94-5.34,12.49-8.01,19.65-8.01,4.73,0,9.29,1.18,13.68,3.54,1.01,.54,2.09,1.28,3.24,2.23,.81,.34,2.36,1.72,4.66,4.15,5.34,6.21,8.01,13.2,8.01,20.97v.3Z"/><path class="cls-1" d="M325.25,87.52c-10.01-10.73-21.56-16.1-34.64-16.09h-.55c-12.28,0-23.24,4.79-32.87,14.35-10,10.74-14.99,23.36-14.99,37.84v.33c0,11.91,3.54,22.83,10.6,32.76,10.45,12.94,22.88,19.41,37.29,19.4,15.44,0,28.35-6.85,38.71-20.53,2.47-3.77,4.45-7.61,5.95-11.5l-7.83-3.06h0c-1.32,3.24-3.16,6.59-5.51,10.05-8.53,11.03-18.86,16.55-30.99,16.56-9.12,0-17.51-3.3-25.16-9.92-9.71-9.41-14.57-20.59-14.57-33.53l87.81-.03,.22-.22c0-13.53-4.5-25.66-13.47-36.4Zm-73.9,28.16c1.61-8.24,4.55-15,8.82-20.3,8.45-10.3,18.45-15.45,30-15.46,4.34,0,8.42,.7,12.25,2.09,9.56,3.38,17.06,10.11,22.51,20.18,2.8,6.32,4.27,10.81,4.42,13.46l-77.99,.03Z"/><path class="cls-1" d="M583.56,91.67c.85,0,1.73,.07,2.63,.19,1.01-1.77,2.13-3.55,3.37-5.36,1.42-2.01,3.55-4.55,6.39-7.65,1.69-1.55,3.16-2.86,4.45-3.96-2.62-1.34-5.28-2.35-7.88-2.94h0c-2.63-.55-5.23-.83-7.8-.83h-.3c-.41,0-.81,0-1.21,0h-1.13c-2.58,0-5.13,.33-7.67,.99-2.31,.49-3.7,.98-3.7,.98-4.36,1.65-7.92,4.23-9.85,5.79-.86,.65-1.73,1.33-2.59,2.05v-7.58s-.21-.21-.21-.21h-19.7s-.32,.22-.32,.22l.04,102.16,.32,.32h19.7s.21-.32,.21-.32l-.02-49.59c0-5.53,.34-10.3,1.03-14.34,1.13-5.18,4.8-15.8,16.08-19.07,2.07-.56,4.23-.84,6.48-.84h1.69Z"/></g></g></g></svg>