<?xml version="1.0" encoding="UTF-8"?><svg id="Camada_2" xmlns="http://www.w3.org/2000/svg" viewBox="0 0 186.35 186.32"><defs><style>.cls-1{fill:#fff;}</style></defs><g id="Camada_1-2"><g><path class="cls-1" d="M156.46,186.32c-7.99,0-15.51-3.12-21.17-8.78l-31.41-31.41c-1.96-1.96-3.04-4.56-3.04-7.33s1.08-5.37,3.04-7.33l6.46-6.51-6.61-6.61c-11.08,8.02-24.63,12.42-38.3,12.42-17.55,0-33.97-6.79-46.25-19.13C6.82,99.34,0,82.92,0,65.41S6.82,31.47,19.19,19.16C31.51,6.8,47.94,0,65.44,0s33.92,6.8,46.25,19.16c22.66,22.6,25.44,58.72,6.71,84.55l6.61,6.61,6.51-6.46c1.96-1.96,4.56-3.04,7.33-3.04s5.37,1.08,7.33,3.04l31.41,31.41c5.66,5.66,8.78,13.18,8.78,21.17s-3.12,15.51-8.79,21.12c-5.59,5.65-13.09,8.77-21.11,8.77Zm-52.44-71.92l10.56,10.56-8.56,8.63c-1.4,1.4-2.17,3.25-2.17,5.21s.77,3.81,2.16,5.21l31.41,31.41c5.09,5.09,11.86,7.9,19.05,7.9s13.95-2.8,18.98-7.89c5.1-5.05,7.91-11.79,7.91-19s-2.81-13.96-7.9-19.05l-31.41-31.41c-1.4-1.39-3.25-2.16-5.21-2.16s-3.81,.77-5.21,2.16l-8.63,8.57-10.56-10.56,.79-1.04c18.69-24.7,16.25-59.81-5.66-81.67C97.8,9.49,82.13,3,65.44,3S33.07,9.49,21.31,21.28C9.5,33.03,3,48.7,3,65.41s6.5,32.38,18.31,44.12c11.72,11.77,27.39,18.25,44.13,18.25,13.65,0,26.63-4.35,37.54-12.59l1.04-.79Zm-38.58-1.32c-12.76,0-24.73-4.96-33.71-13.97-9.01-8.95-13.98-20.93-13.98-33.71s4.97-24.75,13.99-33.71c8.95-9.01,20.93-13.98,33.71-13.98s24.75,4.97,33.71,13.99c9,8.97,13.97,20.95,13.97,33.71s-4.96,24.73-13.97,33.71c-8.98,9.01-20.95,13.97-33.71,13.97Zm0-92.37c-11.97,0-23.19,4.65-31.58,13.1-8.46,8.4-13.11,19.62-13.11,31.59s4.65,23.19,13.1,31.58c8.42,8.45,19.64,13.09,31.59,13.09s23.17-4.65,31.59-13.09h0c8.44-8.42,13.09-19.63,13.09-31.59s-4.65-23.17-13.09-31.59c-8.4-8.45-19.62-13.11-31.59-13.11Z"/><path class="cls-1" d="M65.44,98.9c-5.72,0-10.37-4.65-10.37-10.37v-12.76h-12.76c-5.72,0-10.37-4.65-10.37-10.37s4.65-10.37,10.37-10.37h12.76v-12.75c0-5.72,4.65-10.37,10.37-10.37s10.37,4.65,10.37,10.37v12.75h12.76c5.72,0,10.37,4.65,10.37,10.37s-4.65,10.37-10.37,10.37h-12.76v12.76c0,5.72-4.65,10.37-10.37,10.37Zm-23.13-40.88c-4.06,0-7.37,3.31-7.37,7.37s3.31,7.37,7.37,7.37h15.76v15.76c0,4.07,3.31,7.37,7.37,7.37s7.37-3.31,7.37-7.37v-15.76h15.76c4.07,0,7.37-3.31,7.37-7.37s-3.31-7.37-7.37-7.37h-15.76v-15.75c0-4.07-3.31-7.37-7.37-7.37s-7.37,3.31-7.37,7.37v15.75h-15.76Z"/></g></g></svg>