<?xml version="1.0" encoding="UTF-8"?><svg id="Camada_2" xmlns="http://www.w3.org/2000/svg" viewBox="0 0 96.96 97.62"><defs><style>.cls-1{fill:#fff;}</style></defs><g id="Camada_1-2"><g id="Camada_1-2"><g id="Layer_2"><path class="cls-1" d="M50.75,44.92l45.11,45.15c1.64,1.92,1.42,4.8-.5,6.44-1.71,1.47-4.23,1.47-5.95,0L48,55.11,7.79,95.33c-1.78,1.77-4.66,1.77-6.44,0h0c-1.79-1.78-1.8-4.67-.03-6.46l.03-.03L45.26,44.92c1.52-1.51,3.97-1.51,5.48,0h0Z"/><path class="cls-1" d="M50.75,1.13l45.11,45.15c1.64,1.92,1.42,4.8-.5,6.44-1.71,1.47-4.23,1.47-5.95,0L48,11.32,7.79,51.54c-1.78,1.77-4.66,1.77-6.44,0h0c-1.77-1.78-1.77-4.66,0-6.44L45.26,1.13c1.52-1.51,3.97-1.51,5.48,0h0Z"/></g></g></g></svg>